<?xml version="1.0" encoding="UTF-8" standalone="no"?>
<!-- Created with Inkscape (http://www.inkscape.org/) -->

<svg
   version="1.1"
   id="svg1"
   width="80"
   height="80"
   viewBox="0 0 80 80"
   sodipodi:docname="ct.svg"
   inkscape:version="1.4 (86a8ad7, 2024-10-11)"
   xmlns:inkscape="http://www.inkscape.org/namespaces/inkscape"
   xmlns:sodipodi="http://sodipodi.sourceforge.net/DTD/sodipodi-0.dtd"
   xmlns:xlink="http://www.w3.org/1999/xlink"
   xmlns="http://www.w3.org/2000/svg"
   xmlns:svg="http://www.w3.org/2000/svg"
   xmlns:rdf="http://www.w3.org/1999/02/22-rdf-syntax-ns#"
   xmlns:cc="http://creativecommons.org/ns#"
   xmlns:dc="http://purl.org/dc/elements/1.1/">
  <title
     id="title1">helping hand sticker</title>
  <defs
     id="defs1">
    <inkscape:path-effect
       effect="bspline"
       id="path-effect6"
       is_visible="true"
       lpeversion="1.3"
       weight="33.333333"
       steps="2"
       helper_size="0"
       apply_no_weight="true"
       apply_with_weight="true"
       only_selected="false"
       uniform="false" />
    <inkscape:path-effect
       effect="bspline"
       id="path-effect24"
       is_visible="true"
       lpeversion="1.3"
       weight="33.333333"
       steps="2"
       helper_size="0"
       apply_no_weight="true"
       apply_with_weight="true"
       only_selected="false"
       uniform="false" />
    <linearGradient
       id="linearGradient21"
       inkscape:collect="always">
      <stop
         style="stop-color:#bfbfbf;stop-opacity:1;"
         offset="0"
         id="stop21" />
      <stop
         style="stop-color:#ffffff;stop-opacity:1;"
         offset="0.13513535"
         id="stop23" />
      <stop
         style="stop-color:#dfdfdf;stop-opacity:1;"
         offset="0.2256761"
         id="stop24" />
      <stop
         style="stop-color:#b4b4b4;stop-opacity:1;"
         offset="1"
         id="stop22" />
    </linearGradient>
    <linearGradient
       id="swatch19"
       inkscape:swatch="solid">
      <stop
         style="stop-color:#d999d9;stop-opacity:1;"
         offset="0"
         id="stop19" />
    </linearGradient>
    <clipPath
       clipPathUnits="userSpaceOnUse"
       id="clipPath54">
      <path
         id="path54"
         style="stroke-width:0.0999999;stroke-linecap:square;paint-order:markers fill stroke;stop-color:#000000"
         d="m 1691.1994,-792.32001 h 1634.8919 v 92.82806 H 1691.1994 Z" />
    </clipPath>
    <inkscape:path-effect
       effect="bspline"
       id="path-effect5"
       is_visible="true"
       lpeversion="1.3"
       weight="33.333333"
       steps="2"
       helper_size="0"
       apply_no_weight="true"
       apply_with_weight="true"
       only_selected="false"
       uniform="false" />
    <inkscape:path-effect
       effect="bspline"
       id="path-effect2"
       is_visible="true"
       lpeversion="1.3"
       weight="33.333333"
       steps="2"
       helper_size="0"
       apply_no_weight="true"
       apply_with_weight="true"
       only_selected="false"
       uniform="false" />
    <inkscape:path-effect
       effect="bspline"
       id="path-effect1"
       is_visible="true"
       lpeversion="1.3"
       weight="33.333333"
       steps="2"
       helper_size="0"
       apply_no_weight="true"
       apply_with_weight="true"
       only_selected="false"
       uniform="false" />
    <inkscape:path-effect
       effect="bspline"
       id="path-effect2-4"
       is_visible="true"
       lpeversion="1.3"
       weight="33.333333"
       steps="2"
       helper_size="0"
       apply_no_weight="true"
       apply_with_weight="true"
       only_selected="false"
       uniform="false" />
    <linearGradient
       inkscape:collect="always"
       xlink:href="#linearGradient21"
       id="linearGradient22"
       x1="40.138695"
       y1="68.618027"
       x2="40.138695"
       y2="76.799126"
       gradientUnits="userSpaceOnUse"
       gradientTransform="matrix(0.90611104,-0.52314345,-0.43845445,-0.75942539,49.926641,141.48622)" />
    <filter
       inkscape:collect="always"
       style="color-interpolation-filters:sRGB"
       id="filter1"
       x="-0.05968062"
       y="-0.10310609"
       width="1.1193612"
       height="1.2062122">
      <feGaussianBlur
         inkscape:collect="always"
         stdDeviation="1.014653"
         id="feGaussianBlur1" />
    </filter>
  </defs>
  <sodipodi:namedview
     id="namedview1"
     pagecolor="#505050"
     bordercolor="#eeeeee"
     borderopacity="1"
     inkscape:showpageshadow="0"
     inkscape:pageopacity="0"
     inkscape:pagecheckerboard="0"
     inkscape:deskcolor="#505050"
     inkscape:zoom="10.31492"
     inkscape:cx="59.234584"
     inkscape:cy="39.36046"
     inkscape:window-width="1720"
     inkscape:window-height="1392"
     inkscape:window-x="3624"
     inkscape:window-y="0"
     inkscape:window-maximized="0"
     inkscape:current-layer="g1"
     showgrid="false" />
  <g
     inkscape:groupmode="layer"
     id="layer5"
     inkscape:label="shadow"
     transform="translate(5.232603,-23.562244)"
     style="display:inline">
    <path
       id="path1-7"
       style="display:inline;fill:#444444;fill-opacity:1;stroke:none;stroke-width:6.07775;stroke-opacity:1;paint-order:markers fill stroke;filter:url(#filter1)"
       inkscape:label="peel_shadow"
       d="m 30.26937,103.47729 c 3.627794,-7.179789 9.601636,-13.405826 16.983083,-17.700042 7.409626,-4.24541 15.788451,-6.305893 23.820232,-5.857758 0,0 -13.402659,8.297753 -20.203212,12.224054 C 44.06892,96.069845 30.26937,103.47729 30.26937,103.47729 Z"
       sodipodi:nodetypes="ccczc" />
  </g>
  <g
     inkscape:groupmode="layer"
     inkscape:label="badge"
     id="g1"
     style="display:inline">
    <path
       id="path2"
       style="display:inline;fill:#e1fce1;fill-opacity:1;stroke:#228b22;stroke-width:6.34512;stroke-linecap:square;stroke-linejoin:miter;stroke-opacity:1;paint-order:fill markers stroke"
       inkscape:label="circle"
       d="M 21.610094,8.2577428 C 3.9951496,18.4273 -2.0401459,40.95133 8.1300647,58.565897 13.843762,68.392994 23.775435,75.030769 35.040678,76.551447 L 74.038885,54.035822 C 78.354561,43.519496 77.571915,31.599527 71.918248,21.737772 61.748691,4.1228278 39.224661,-1.9124677 21.610094,8.2577428 Z"
       sodipodi:nodetypes="cccccc" />
    <path
       style="display:inline;fill:#e1fce1;fill-opacity:1;stroke-width:1.10334;stroke-linecap:square;stroke-linejoin:miter;paint-order:stroke fill markers"
       id="path4"
       sodipodi:type="arc"
       sodipodi:cx="40"
       sodipodi:cy="40"
       sodipodi:rx="33.640591"
       sodipodi:ry="33.737537"
       sodipodi:start="1.4106603"
       sodipodi:end="0.57299907"
       sodipodi:arc-type="arc"
       d="M 45.364076,73.305886 A 33.640591,33.737537 0 0 1 8.6305026,52.1859 33.640591,33.737537 0 0 1 21.593239,11.760719 a 33.640591,33.737537 0 0 1 42.123168,4.312165 33.640591,33.737537 0 0 1 4.551068,42.218075"
       sodipodi:open="true" />
    <path
       id="circle19"
       style="display:inline;fill:url(#linearGradient22);stroke:none;stroke-width:6.07775;stroke-opacity:1;paint-order:markers fill stroke"
       inkscape:label="circle"
       d="m 35.50237,79.915295 c 3.627794,-7.179794 9.601636,-13.405831 16.983083,-17.700047 7.409626,-4.24541 15.788451,-6.305893 23.820232,-5.857758 0,0 -13.402659,8.297753 -20.203212,12.224054 C 49.30192,72.507845 35.50237,79.915295 35.50237,79.915295 Z"
       sodipodi:nodetypes="ccczc" />
  </g>
  <g
     inkscape:groupmode="layer"
     id="layer1"
     inkscape:label="rect"
     style="display:inline" />
  <g
     inkscape:groupmode="layer"
     id="layer3"
     inkscape:label="text"
     style="display:inline">
    <circle
       style="display:none;fill:none;fill-opacity:1;stroke:#92079f;stroke-width:0.739426;stroke-opacity:1;paint-order:markers fill stroke"
       id="path3"
       cx="14.641016"
       cy="-54.641018"
       r="24.026592"
       transform="rotate(120)" />
    <path
       style="font-weight:bold;font-size:10.6667px;font-family:Sans;-inkscape-font-specification:'Sans Bold';fill:#8b4513;stroke-width:6;stroke-linecap:square;paint-order:stroke fill markers"
       d="m 25.2965,58.87563 q 0.676829,0.50199 1.006602,1.131704 0.314851,0.631928 0.20361,1.372802 -0.117595,0.749442 -0.727608,1.571918 -0.641784,0.865313 -1.350534,1.176308 -0.708749,0.310995 -1.424207,0.165485 -0.721811,-0.136943 -1.39864,-0.638933 -0.411238,-0.305006 -0.707529,-0.657562 -0.304857,-0.358909 -0.47956,-0.714248 l 1.109926,-0.690747 q 0.174418,0.302006 0.389174,0.567529 0.199835,0.267737 0.456859,0.458366 0.334131,0.247817 0.67983,0.265169 0.345699,0.01735 0.700752,-0.210683 0.3487,-0.219469 0.698186,-0.690679 0.343132,-0.462643 0.445589,-0.851464 0.102456,-0.388821 -0.01449,-0.714602 -0.123298,-0.317213 -0.440294,-0.552322 -0.368401,-0.273235 -0.763862,-0.420456 -0.401815,-0.138654 -0.81384,-0.191919 l 0.781579,-1.053797 q 0.386323,0.0342 0.790351,0.187777 0.404028,0.153576 0.858104,0.490354 z m -8.893593,-0.339632 q -0.105897,-0.119941 -0.209922,-0.269994 -0.11908,-0.15099 -0.16569,-0.25213 l 1.233347,-0.875492 q 0.06167,0.102077 0.151571,0.236138 0.0899,0.134061 0.238161,0.301979 0.162375,0.183911 0.387783,0.326398 0.218349,0.134492 0.487482,0.181457 0.269134,0.04697 0.56175,-0.04064 0.292617,-0.0876 0.612461,-0.369995 l 2.214919,-1.955566 1.066031,1.207411 -4.365871,3.854655 -0.811877,-0.919552 0.580325,-0.825416 -0.04942,-0.05597 q -0.344844,0.0768 -0.69819,0.04727 -0.353346,-0.02953 -0.669089,-0.177636 -0.32374,-0.141046 -0.563773,-0.412914 z m -2.788825,-4.350507 q -0.385775,-0.712995 -0.392891,-1.376182 -0.0165,-0.658111 0.361664,-1.214431 0.363703,-0.560625 1.114224,-0.966704 l 0.684851,-0.370548 1.781673,3.292912 q 0.571502,-0.333475 0.726501,-0.853945 0.145617,-0.515394 -0.194475,-1.143956 -0.258875,-0.478457 -0.565882,-0.821721 -0.307007,-0.343263 -0.717981,-0.65453 l 1.060111,-0.573587 q 0.39067,0.27374 0.703524,0.650225 0.317158,0.362026 0.652174,0.981206 0.411155,0.759903 0.449497,1.503218 0.03327,0.733934 -0.365652,1.38638 -0.408299,0.657522 -1.290162,1.134665 -0.900625,0.487295 -1.654092,0.506874 -0.767925,0.01527 -1.362541,-0.366422 -0.599692,-0.391078 -0.990543,-1.113454 z M 14.5976,53.604833 q 0.22842,0.422169 0.642611,0.537647 0.40481,0.120555 0.955555,-0.116793 l -1.045654,-1.932592 q -0.30959,0.167508 -0.488292,0.397604 -0.178702,0.230097 -0.202677,0.522011 -0.02905,0.282533 0.138457,0.592123 z m -3.805643,-6.944241 q -0.250939,-1.069629 0.126353,-1.749784 0.366907,-0.677718 1.353458,-0.909167 l 3.780048,-0.886814 0.255811,1.090399 -0.697818,0.481444 0.0097,0.04154 q 0.357192,0.168197 0.61541,0.381526 0.255782,0.202944 0.416821,0.515765 0.171424,0.310386 0.283494,0.788084 0.116943,0.498468 0.0226,0.936941 -0.104731,0.44091 -0.445753,0.761954 -0.341021,0.321044 -0.943337,0.46235 -0.893088,0.209521 -1.490682,-0.329572 -0.597595,-0.539093 -0.949184,-1.804235 l -0.252857,-0.937703 -0.176541,0.04142 q -0.508853,0.119379 -0.652564,0.394133 -0.154096,0.27719 -0.05664,0.69258 0.09014,0.384236 0.309775,0.760005 0.219633,0.375769 0.488753,0.728973 l -0.962431,0.707867 q -0.333226,-0.392945 -0.602224,-0.932434 -0.271434,-0.549874 -0.43223,-1.235267 z m 3.167987,-0.787047 q 0.193746,0.732444 0.480042,0.972055 0.286297,0.23961 0.680917,0.147031 0.363466,-0.08527 0.493717,-0.323998 0.11743,-0.246676 0.03703,-0.589372 -0.114506,-0.488083 -0.483241,-0.752179 -0.371171,-0.27448 -0.911177,-0.147792 l -0.467314,0.109633 z m 0.849739,-6.816401 q -2.94e-4,-0.266668 -0.0539,-0.511943 -0.0536,-0.245275 -0.128542,-0.490526 l 1.184003,-0.0013 q 0.10695,0.255883 0.182041,0.639802 0.08575,0.37324 0.08624,0.821241 5.77e-4,0.522668 -0.169631,0.938858 -0.170219,0.405522 -0.58595,0.651316 -0.426408,0.235138 -1.173077,0.235962 l -2.80534,0.0031 8.36e-4,0.757335 -0.672002,7.42e-4 -0.5343,-0.87408 -1.2271764,-0.457314 -0.00112,-1.013336 1.2373362,-0.0014 -0.0018,-1.632004 1.19467,-0.0013 0.0018,1.632004 2.80534,-0.0031 q 0.330668,-3.65e-4 0.501123,-0.192554 0.159789,-0.192177 0.159447,-0.501511 z m -4.141648,-4.655651 5.748113,0.937222 -0.259195,1.58968 -5.748113,-0.937222 z m -2.3921906,0.420523 q 0.056645,-0.347413 0.2662848,-0.572613 0.2008283,-0.237444 0.6535185,-0.163634 0.4316349,0.07038 0.5571647,0.361034 0.1272463,0.280129 0.070601,0.627542 -0.058362,0.357942 -0.2680013,0.583141 -0.2096395,0.2252 -0.6412743,0.154823 -0.4526903,-0.07381 -0.5694089,-0.352223 -0.1272463,-0.280129 -0.068884,-0.63807 z m 8.9066356,-2.393094 -6.232047,0.05738 0.585446,-1.580385 3.598733,0.172875 q 0.124848,7.5e-4 0.299709,0.02003 0.178565,0.0093 0.363428,0.03225 0.184863,0.02298 0.3186,0.06115 l 0.01482,-0.04001 q -0.126327,-0.05817 -0.271544,-0.157468 -0.15522,-0.103 -0.296733,-0.212298 -0.141512,-0.109298 -0.236717,-0.190067 l -2.845432,-2.237084 0.585447,-1.580386 4.690618,4.103633 z m -1.620681,-9.755754 q 0.46711,-0.662566 1.057971,-0.963816 0.582142,-0.307395 1.248588,-0.21603 0.663874,0.0765 1.361311,0.568194 l 0.636412,0.448671 -2.157308,3.060008 q 0.552807,0.363627 1.087916,0.271042 0.526391,-0.09873 0.938185,-0.682834 0.313455,-0.444617 0.484415,-0.872234 0.17096,-0.427616 0.267032,-0.93413 l 0.985131,0.694518 q -0.07149,0.471642 -0.269604,0.919266 -0.183252,0.445053 -0.5889,1.020439 -0.49784,0.706155 -1.146588,1.071002 -0.642602,0.356129 -1.404379,0.288913 -0.770494,-0.07336 -1.589984,-0.651102 -0.836925,-0.590033 -1.189479,-1.256218 -0.355127,-0.681048 -0.277624,-1.383368 0.08365,-0.711038 0.556905,-1.382321 z m 0.957408,0.622769 q -0.276578,0.392308 -0.19585,0.81465 0.07201,0.416197 0.529486,0.803972 l 1.266112,-1.795902 q -0.287693,-0.202823 -0.57325,-0.26058 -0.285557,-0.05776 -0.557689,0.05056 -0.265985,0.0996 -0.468809,0.387296 z m 9.79565,-4.465679 q 0.218208,-0.153287 0.388302,-0.337953 0.170093,-0.184666 0.327924,-0.386788 l 0.680595,0.968842 q -0.148164,0.234439 -0.419463,0.51627 -0.256439,0.284429 -0.623028,0.541951 -0.427687,0.300443 -0.866195,0.399918 -0.429779,0.09334 -0.869659,-0.106036 -0.437282,-0.21424 -0.866486,-0.825221 l -1.612581,-2.295545 -0.61971,0.435335 -0.386283,-0.549883 0.409147,-0.939198 -0.329804,-1.267409 0.829189,-0.582491 0.711253,1.012484 1.335431,-0.938118 0.686726,0.977571 -1.335431,0.938117 1.612581,2.295545 q 0.190076,0.270578 0.44529,0.299864 0.249081,0.02056 0.502202,-0.157255 z m 1.602315,-6.856922 q 0.170478,0.437278 0.272396,0.786798 0.107983,0.335708 0.165596,0.54222 l 0.07951,-0.031 q 0.06653,-0.357947 0.239176,-0.619884 0.172649,-0.261936 0.429859,-0.453802 0.263274,-0.205678 0.591232,-0.333536 0.586351,-0.228596 1.104994,-0.190373 0.518643,0.03822 0.927636,0.382514 0.415058,0.330477 0.690147,1.036086 l 1.379322,3.53798 -1.50066,0.585049 -1.232091,-3.16033 q -0.228595,-0.586351 -0.549657,-0.793193 -0.324936,-0.216779 -0.772153,-0.04243 -0.437278,0.170478 -0.614305,0.479916 -0.16709,0.305564 -0.121429,0.745709 0.04566,0.440145 0.270381,1.016558 l 0.991872,2.544165 -1.50066,0.58505 -2.94462,-7.552991 1.50066,-0.58505 z m 8.090991,-1.566794 0.933922,5.748651 -1.589829,0.258282 -0.933921,-5.74865 z M 34.85076,8.2711656 q 0.347446,-0.056446 0.627502,0.070961 0.288874,0.115168 0.362424,0.5679005 0.07013,0.4316752 -0.165719,0.6428958 -0.22532,0.2095102 -0.572766,0.265956 -0.357975,0.058156 -0.63803,-0.069251 Q 34.184115,9.6222212 34.113985,9.190546 34.040435,8.7378135 34.267465,8.538832 34.492786,8.3293219 34.85076,8.2711656 Z m 7.27467,1.8401974 q 0.958821,0.04763 1.487935,0.575862 0.529114,0.528236 0.47302,1.657514 l -0.188391,3.792669 -1.598034,-0.07938 0.168281,-3.387834 q 0.03122,-0.62856 -0.18781,-0.949156 -0.207849,-0.33072 -0.68726,-0.354533 -0.724442,-0.03599 -1.015653,0.451503 -0.280028,0.477364 -0.326068,1.404224 l -0.135471,2.727313 -1.608689,-0.07991 0.288936,-5.816847 1.235814,0.06139 0.185094,0.788824 0.06392,0.0032 q 0.206052,-0.278121 0.481917,-0.456656 0.287047,-0.188659 0.62207,-0.268136 0.346206,-0.0896 0.740388,-0.07002 z m 6.317401,2.646591 q -0.107645,0.312656 -0.245546,0.614895 -0.124344,0.295625 -0.262245,0.597864 l 0.02017,0.0069 q 0.149471,-0.106476 0.298941,-0.212951 0.159556,-0.103003 0.319112,-0.206006 0.159556,-0.103003 0.325726,-0.192448 l 2.119527,-1.142946 1.694395,0.583364 -3.011552,1.636795 1.246734,3.915127 -1.734737,-0.597253 -0.816051,-2.774102 -0.822576,0.292135 -0.590308,1.714566 -1.502766,-0.517388 2.639025,-7.6651161 1.502766,0.5173879 z m 8.581542,2.592185 q 0.668273,0.458908 0.976782,1.046011 0.314547,0.578309 0.231404,1.24583 -0.06831,0.664767 -0.551373,1.368212 l -0.440793,0.641893 -3.086365,-2.119428 q -0.356786,0.557246 -0.257613,1.091173 0.105211,0.525135 0.694347,0.929698 0.448446,0.307951 0.878137,0.473628 0.429691,0.165676 0.937351,0.255498 l -0.682323,0.993616 q -0.472488,-0.06567 -0.92252,-0.258253 -0.447277,-0.177753 -1.027619,-0.576278 -0.712238,-0.489099 -1.085053,-1.133301 -0.364023,-0.638164 -0.306201,-1.400711 0.06386,-0.77134 0.631456,-1.597888 0.579673,-0.844134 1.241461,-1.204873 0.67662,-0.363493 1.379842,-0.294652 0.712015,0.07488 1.38908,0.539825 z m -0.610921,0.965011 q -0.395688,-0.271722 -0.817003,-0.185794 -0.415277,0.07713 -0.797385,0.539354 l 1.811371,1.243881 q 0.199263,-0.290171 0.253495,-0.576418 0.05423,-0.286247 -0.05743,-0.557023 -0.102874,-0.264738 -0.393045,-0.464 z m 6.85,4.741202 q 0.107567,0.118447 0.213683,0.267028 0.121184,0.149307 0.169205,0.249785 l -1.220964,0.89268 q -0.06309,-0.101203 -0.154863,-0.233992 -0.09177,-0.132789 -0.242367,-0.298614 -0.164935,-0.181618 -0.392317,-0.320935 -0.220211,-0.13142 -0.489976,-0.174611 -0.269765,-0.04319 -0.561125,0.0485 -0.291361,0.09169 -0.607219,0.378536 l -2.187312,1.986397 -1.082838,-1.192362 4.311454,-3.915425 0.824678,0.90809 -0.568708,0.833463 0.0502,0.05528 q 0.343734,-0.08162 0.697459,-0.05704 0.353724,0.02458 0.671511,0.168248 0.325684,0.136497 0.569501,0.404976 z"
       id="text2"
       aria-label="creative thinker" />
  </g>
  <g
     inkscape:groupmode="layer"
     id="layer2"
     inkscape:label="bulb"
     style="display:inline">
    <path
       style="fill:#fffa44;fill-opacity:1;stroke:none;stroke-width:6;stroke-linecap:square;stroke-opacity:1;paint-order:stroke fill markers"
       d="m 32.412596,45.59738 c -0.646313,-1.227994 -1.938939,-3.683983 -2.617568,-5.025085 -0.678629,-1.341101 -0.74326,-1.567307 -0.597836,-2.924589 0.145424,-1.357282 0.500889,-3.845537 1.551165,-5.816806 1.050276,-1.971269 2.795287,-3.425445 4.491875,-4.47571 1.696588,-1.050265 3.344653,-1.696565 5.509828,-1.59961 2.165175,0.09696 4.847321,0.937146 6.770113,2.456004 1.922793,1.518857 3.086133,3.716277 3.651656,6.02687 0.565524,2.310593 0.533208,4.734219 -0.290858,6.86707 -0.824066,2.132851 -2.439816,3.974806 -4.540359,5.041225 -2.100543,1.06642 -4.685744,1.357255 -6.980175,1.341094 -2.294431,-0.01616 -4.297961,-0.339311 -5.299746,-0.50089 -1.001785,-0.161578 -1.001782,-0.161578 -1.648095,-1.389573 z"
       id="path5"
       inkscape:path-effect="#path-effect6"
       inkscape:original-d="m 33.058909,46.825375 c -1.292626,-2.455989 -2.585252,-4.911978 -3.877878,-7.367968 -0.06463,-0.226214 -0.129263,-0.452419 -0.193894,-0.678628 0.355479,-2.488355 0.710944,-4.97661 1.066416,-7.464915 1.74508,-1.454233 3.490091,-2.908409 5.235136,-4.362613 1.648131,-0.646326 3.296196,-1.292626 4.944294,-1.938939 2.682252,0.840224 5.364398,1.680414 8.046596,2.520621 1.163387,2.197508 2.326727,4.394928 3.490091,6.592392 -0.03232,2.423722 -0.06463,4.847348 -0.09695,7.271021 -1.615815,1.842029 -3.231565,3.683984 -4.847348,5.525976 -2.585303,0.290847 -5.170504,0.581682 -7.755755,0.872523 -2.003611,-0.323163 -4.007141,-0.646313 -6.010711,-0.96947 z" />
    <path
       d="m 40.484735,60.615691 c -1.021889,0 -1.896688,-0.363854 -2.624397,-1.091563 -0.727709,-0.727709 -1.091564,-1.602509 -1.091564,-2.624398 h 7.431922 c 0,1.021889 -0.363855,1.896689 -1.091564,2.624398 -0.727709,0.727709 -1.602508,1.091563 -2.624397,1.091563 z M 33.052812,55.04175 v -3.715961 h 14.863845 v 3.715961 z m 0.464495,-5.573941 c -2.136677,-1.269621 -3.832084,-2.97277 -5.08622,-5.109447 -1.254137,-2.136677 -1.881206,-4.459153 -1.881206,-6.967427 0,-3.870793 1.354778,-7.160966 4.064334,-9.870521 2.709555,-2.709555 5.999728,-4.064333 9.870521,-4.064333 3.870793,0 7.160966,1.354778 9.870521,4.064333 2.709555,2.709555 3.838725,6.319498 4.064332,9.870521 0.15253,2.4008 -0.678765,4.883861 -1.881205,6.967427 -1.201194,2.081407 -2.949545,3.839826 -5.086222,5.109447 z m 1.11479,-3.715962 h 11.705277 c 1.393486,-0.990923 2.469567,-2.214093 3.228242,-3.669511 0.758675,-1.455418 1.138013,-3.019218 1.138013,-4.6914 0,-2.848904 -0.990923,-5.264279 -2.972769,-7.246124 -1.981847,-1.981846 -4.397221,-2.972769 -7.246124,-2.972769 -2.848904,0 -5.264279,0.990923 -7.246124,2.972769 -1.981846,1.981845 -2.972769,4.39722 -2.972769,7.246124 0,1.672182 0.379338,3.235982 1.138013,4.6914 0.758675,1.455418 1.834756,2.678588 3.228241,3.669511 z"
       id="path1"
       style="display:inline;fill:#a0522d;fill-opacity:1;stroke:none;stroke-width:0.0464495;stroke-opacity:1"
       sodipodi:nodetypes="ssccssccccccsssssaaccccsssssssc" />
  </g>
  <metadata
     id="metadata1">
    <rdf:RDF>
      <cc:Work
         rdf:about="">
        <dc:title>helping hand sticker</dc:title>
        <dc:contributor>
          <cc:Agent>
            <dc:title>Danish Khatri </dc:title>
          </cc:Agent>
        </dc:contributor>
        <cc:license
           rdf:resource="http://creativecommons.org/publicdomain/zero/1.0/" />
      </cc:Work>
      <cc:License
         rdf:about="http://creativecommons.org/publicdomain/zero/1.0/">
        <cc:permits
           rdf:resource="http://creativecommons.org/ns#Reproduction" />
        <cc:permits
           rdf:resource="http://creativecommons.org/ns#Distribution" />
        <cc:permits
           rdf:resource="http://creativecommons.org/ns#DerivativeWorks" />
      </cc:License>
    </rdf:RDF>
  </metadata>
</svg>
