<?xml version="1.0" encoding="UTF-8" standalone="no"?>
<!-- Created with Inkscape (http://www.inkscape.org/) -->

<svg
   version="1.1"
   id="svg1"
   width="80"
   height="80"
   viewBox="0 0 80 80"
   sodipodi:docname="hh.svg"
   inkscape:version="1.4 (86a8ad7, 2024-10-11)"
   xmlns:inkscape="http://www.inkscape.org/namespaces/inkscape"
   xmlns:sodipodi="http://sodipodi.sourceforge.net/DTD/sodipodi-0.dtd"
   xmlns:xlink="http://www.w3.org/1999/xlink"
   xmlns="http://www.w3.org/2000/svg"
   xmlns:svg="http://www.w3.org/2000/svg"
   xmlns:rdf="http://www.w3.org/1999/02/22-rdf-syntax-ns#"
   xmlns:cc="http://creativecommons.org/ns#"
   xmlns:dc="http://purl.org/dc/elements/1.1/">
  <title
     id="title1">helping hand sticker</title>
  <defs
     id="defs1">
    <inkscape:path-effect
       effect="bspline"
       id="path-effect24"
       is_visible="true"
       lpeversion="1.3"
       weight="33.333333"
       steps="2"
       helper_size="0"
       apply_no_weight="true"
       apply_with_weight="true"
       only_selected="false"
       uniform="false" />
    <linearGradient
       id="linearGradient21"
       inkscape:collect="always">
      <stop
         style="stop-color:#bfbfbf;stop-opacity:1;"
         offset="0"
         id="stop21" />
      <stop
         style="stop-color:#ffffff;stop-opacity:1;"
         offset="0.13513535"
         id="stop23" />
      <stop
         style="stop-color:#dfdfdf;stop-opacity:1;"
         offset="0.2256761"
         id="stop24" />
      <stop
         style="stop-color:#b4b4b4;stop-opacity:1;"
         offset="1"
         id="stop22" />
    </linearGradient>
    <linearGradient
       id="swatch19"
       inkscape:swatch="solid">
      <stop
         style="stop-color:#d999d9;stop-opacity:1;"
         offset="0"
         id="stop19" />
    </linearGradient>
    <clipPath
       clipPathUnits="userSpaceOnUse"
       id="clipPath54">
      <path
         id="path54"
         style="stroke-width:0.0999999;stroke-linecap:square;paint-order:markers fill stroke;stop-color:#000000"
         d="m 1691.1994,-792.32001 h 1634.8919 v 92.82806 H 1691.1994 Z" />
    </clipPath>
    <inkscape:path-effect
       effect="bspline"
       id="path-effect5"
       is_visible="true"
       lpeversion="1.3"
       weight="33.333333"
       steps="2"
       helper_size="0"
       apply_no_weight="true"
       apply_with_weight="true"
       only_selected="false"
       uniform="false" />
    <inkscape:path-effect
       effect="bspline"
       id="path-effect2"
       is_visible="true"
       lpeversion="1.3"
       weight="33.333333"
       steps="2"
       helper_size="0"
       apply_no_weight="true"
       apply_with_weight="true"
       only_selected="false"
       uniform="false" />
    <inkscape:path-effect
       effect="bspline"
       id="path-effect1"
       is_visible="true"
       lpeversion="1.3"
       weight="33.333333"
       steps="2"
       helper_size="0"
       apply_no_weight="true"
       apply_with_weight="true"
       only_selected="false"
       uniform="false" />
    <inkscape:path-effect
       effect="bspline"
       id="path-effect2-4"
       is_visible="true"
       lpeversion="1.3"
       weight="33.333333"
       steps="2"
       helper_size="0"
       apply_no_weight="true"
       apply_with_weight="true"
       only_selected="false"
       uniform="false" />
    <linearGradient
       inkscape:collect="always"
       xlink:href="#linearGradient21"
       id="linearGradient22"
       x1="40.138695"
       y1="68.618027"
       x2="40.138695"
       y2="76.799126"
       gradientUnits="userSpaceOnUse"
       gradientTransform="matrix(0.90611104,-0.52314345,-0.43845445,-0.75942539,49.926641,141.48622)" />
  </defs>
  <sodipodi:namedview
     id="namedview1"
     pagecolor="#505050"
     bordercolor="#eeeeee"
     borderopacity="1"
     inkscape:showpageshadow="0"
     inkscape:pageopacity="0"
     inkscape:pagecheckerboard="0"
     inkscape:deskcolor="#505050"
     inkscape:zoom="10.31492"
     inkscape:cx="61.415891"
     inkscape:cy="44.159334"
     inkscape:window-width="3440"
     inkscape:window-height="1369"
     inkscape:window-x="1912"
     inkscape:window-y="-8"
     inkscape:window-maximized="1"
     inkscape:current-layer="g1"
     showgrid="false" />
  <g
     inkscape:groupmode="layer"
     inkscape:label="badge"
     id="g1"
     style="display:inline">
    <path
       id="path2"
       style="display:inline;fill:#131313;fill-opacity:1;stroke:#92079f;stroke-width:6.34512;stroke-opacity:1;paint-order:fill markers stroke;stroke-linecap:square;stroke-linejoin:miter"
       inkscape:label="circle"
       d="M 21.610094,8.2577428 C 3.9951496,18.4273 -2.0401459,40.95133 8.1300647,58.565897 13.843762,68.392994 23.775435,75.030769 35.040678,76.551447 L 74.038885,54.035822 C 78.354561,43.519496 77.571915,31.599527 71.918248,21.737772 61.748691,4.1228278 39.224661,-1.9124677 21.610094,8.2577428 Z"
       sodipodi:nodetypes="cccccc" />
    <path
       style="display:inline;fill:#131313;fill-opacity:1;stroke-width:1.10334;stroke-linecap:square;stroke-linejoin:miter;paint-order:stroke fill markers"
       id="path4"
       sodipodi:type="arc"
       sodipodi:cx="40"
       sodipodi:cy="40"
       sodipodi:rx="33.640591"
       sodipodi:ry="33.737537"
       sodipodi:start="1.4106603"
       sodipodi:end="0.57299907"
       sodipodi:arc-type="arc"
       d="M 45.364076,73.305886 A 33.640591,33.737537 0 0 1 8.6305026,52.1859 33.640591,33.737537 0 0 1 21.593239,11.760719 a 33.640591,33.737537 0 0 1 42.123168,4.312165 33.640591,33.737537 0 0 1 4.551068,42.218075"
       sodipodi:open="true" />
    <path
       id="circle19"
       style="display:inline;fill:url(#linearGradient22);stroke:none;stroke-width:6.07775;stroke-opacity:1;paint-order:markers fill stroke"
       inkscape:label="circle"
       d="m 35.50237,79.915295 c 3.627794,-7.179794 9.601636,-13.405831 16.983083,-17.700047 7.409626,-4.24541 15.788451,-6.305893 23.820232,-5.857758 0,0 -13.402659,8.297753 -20.203212,12.224054 C 49.30192,72.507845 35.50237,79.915295 35.50237,79.915295 Z"
       sodipodi:nodetypes="ccczc" />
  </g>
  <g
     inkscape:groupmode="layer"
     id="layer1"
     inkscape:label="rect"
     style="display:inline" />
  <g
     inkscape:groupmode="layer"
     id="layer2"
     inkscape:label="hand">
    <path
       style="display:inline;fill:#d999d9;fill-opacity:1;stroke:#92079f;stroke-width:5.76523;stroke-dasharray:none;stroke-opacity:1;paint-order:markers fill stroke"
       d="M 25.249929,71.431019 C 21.296772,67.523564 13.39046,59.708655 9.3458995,55.652668 5.3013388,51.596681 5.1185376,51.299629 4.9928585,50.568398 4.8671794,49.837166 4.7986289,48.671808 4.9928639,47.7235 5.1870988,46.775192 5.644102,46.043987 6.2496507,45.392739 6.8551994,44.741491 7.6092547,44.170237 8.4433112,43.7932 c 0.8340565,-0.377037 1.7480628,-0.559838 2.6392448,-0.42273 0.891183,0.137108 1.759489,0.594112 4.090289,2.696406 2.330801,2.102293 6.123927,5.849719 8.043378,7.712045 1.919451,1.862326 1.965152,1.839476 1.988003,-5.450015 0.02285,-7.289492 0.02285,-21.845042 0.03428,-29.237218 0.01142,-7.392176 0.03427,-7.620678 0.388466,-8.054846 0.354191,-0.434168 1.039696,-1.0739724 1.748072,-1.4852852 0.708376,-0.4113127 1.439581,-0.594114 2.159383,-0.6169633 0.719801,-0.022849 1.428156,0.1142517 2.102256,0.3770376 0.674099,0.2627859 1.313904,0.6512387 1.79377,1.0511279 0.479866,0.39989 0.799768,0.811193 0.999712,1.113965 0.199943,0.302773 0.279917,0.496996 0.342758,4.775859 0.06284,4.278863 0.108541,12.64202 0.154242,21.005345 -0.01143,-10.271351 -0.02285,-20.542702 0.01713,-25.815481 0.03999,-5.2727785 0.131391,-5.5469867 0.405603,-5.9354522 0.274212,-0.3884656 0.731215,-0.8911689 1.313912,-1.3253341 0.582698,-0.4341652 1.291053,-0.7997678 1.988003,-1.0054238 0.696951,-0.2056559 1.382456,-0.2513563 2.04513,-0.1371005 0.662674,0.1142558 1.302479,0.3884578 1.850898,0.7197955 0.548419,0.3313376 1.005422,0.7197902 1.416737,1.22251 0.411315,0.5027198 0.776917,1.1196739 0.936871,6.5010951 0.159954,5.381421 0.114254,15.526891 0.06855,25.672564 0,-8.706084 0,-17.412168 0.05713,-21.753785 0.05713,-4.341617 0.171379,-4.318767 0.411314,-4.501576 0.239935,-0.182809 0.605537,-0.571261 1.17681,-0.9483002 0.571274,-0.377039 1.348179,-0.7426413 2.079405,-0.8911696 0.731227,-0.1485283 1.416732,-0.079978 2.079406,0.057128 0.662674,0.1371057 1.302479,0.3427573 1.965154,0.7655 0.662674,0.4227429 1.348179,1.0625469 1.702363,1.5081369 0.354184,0.445589 0.377034,0.696941 0.388459,4.958663 0.01142,4.261722 0.01142,12.533479 0.03428,16.703715 0.02285,4.170237 0.06855,4.238789 0.0914,0.936809 0.02285,-3.30198 0.02285,-9.974226 0.137106,-13.436096 0.114255,-3.461871 0.342757,-3.713222 0.765499,-4.04456 0.422743,-0.331338 1.039697,-0.742641 1.816628,-1.005424 0.77693,-0.262784 1.713786,-0.377035 2.490713,-0.388459 0.776926,-0.01143 1.393881,0.07998 1.965152,0.239933 0.571271,0.159957 1.096824,0.388458 1.588117,0.914031 0.491293,0.525572 0.948295,1.348177 1.165377,1.759489 0.217081,0.411311 0.194231,0.411311 0.182806,8.146399 -0.01143,7.735087 -0.01143,23.204643 -0.01143,31.03098 0,7.826337 0,8.009139 -0.0914,8.409031 -0.0914,0.399892 -0.274205,1.016846 -0.639821,1.816627 -0.365615,0.799781 -0.914019,1.782338 -1.748077,2.87918 -0.834059,1.096841 -1.953717,2.3079 -3.313345,3.393313 -1.359627,1.085414 -2.959114,2.045107 -4.895735,2.610668 -1.936621,0.565561 -4.210229,0.736938 -8.071983,0.794065 -3.861753,0.05713 -9.311592,0 -12.036539,-0.02856 -2.724947,-0.02856 -5.055703,-1.742361 -9.008859,-5.649816 z"
       id="path1"
       inkscape:path-effect="#path-effect1"
       inkscape:original-d="M 29.203085,75.338474 C 21.296772,67.523564 13.39046,59.708655 5.4841474,51.893745 5.3013388,51.596681 5.1185376,51.299629 4.9357326,51.002571 4.8671794,49.837166 4.798629,48.671808 4.7300771,47.506427 c 0.4570214,-0.731235 0.9140246,-1.46244 1.3710369,-2.193659 0.7540853,-0.571277 1.5081405,-1.142531 2.2622108,-1.713796 0.9140428,-0.182809 1.8280492,-0.36561 2.7420732,-0.548415 0.868341,0.457021 1.736647,0.914025 2.60497,1.371037 3.793278,3.747575 7.586404,7.495001 11.379606,11.242502 0.0457,-0.02285 0.0914,-0.0457 0.137104,-0.06855 0,-14.556132 0,-29.111682 0,-43.667523 0.02285,-0.228511 0.0457,-0.457013 0.06855,-0.685519 0.685532,-0.63983 1.371037,-1.2796342 2.056555,-1.9194514 0.731234,-0.1828086 1.462439,-0.3656099 2.193659,-0.5484148 0.708383,0.1371064 1.416738,0.2742074 2.125107,0.4113111 0.63983,0.3884682 1.279635,0.7769209 1.919452,1.1653811 0.319915,0.411319 0.639817,0.822622 0.959726,1.233933 0.07998,0.194233 0.159952,0.388457 0.239931,0.582691 0.0457,8.363492 0.137104,25.089974 0.137104,25.089974 0,0 -0.02285,-20.542702 -0.03428,-30.8140528 0.0914,-0.2742074 0.182805,-0.5484148 0.274207,-0.8226221 0.457022,-0.5027236 0.914025,-1.005427 1.371037,-1.5081406 0.708383,-0.3656171 1.416738,-0.7312196 2.125107,-1.0968294 0.685532,-0.045702 1.371037,-0.091403 2.056555,-0.1371037 0.63983,0.2742128 1.279635,0.5484147 1.919452,0.8226221 0.457021,0.3884682 0.914024,0.7769209 1.371037,1.1653813 0.365617,0.6169789 0.731219,1.2339332 1.096829,1.8508997 -0.0457,10.1458755 -0.137103,30.4370185 -0.137103,30.4370185 0,0 0,-17.412168 0,-26.118252 0.114255,0.02285 0.228506,0.0457 0.342759,0.06855 0.365617,-0.388468 0.731219,-0.77692 1.096829,-1.1653809 0.776937,-0.3656171 1.553842,-0.7312196 2.330763,-1.0968294 0.685532,0.068553 1.371037,0.1371036 2.056555,0.2056555 0.63983,0.2056596 1.279635,0.411311 1.919452,0.6169666 0.685532,0.6398302 1.371037,1.2796342 2.056555,1.9194512 0.02285,0.251362 0.0457,0.502714 0.06855,0.754071 0,8.272087 0,16.543844 0,24.815767 0.0457,0.06855 0.0914,0.137103 0.137104,0.205655 0,-6.672513 0,-13.344759 0,-20.017138 0.22851,-0.251362 0.457012,-0.502713 0.685518,-0.75407 0.616979,-0.411319 1.233933,-0.822622 1.8509,-1.233933 0.936894,-0.114256 1.87375,-0.228506 2.810625,-0.34276 0.616979,0.0914 1.233933,0.182805 1.8509,0.274208 0.525575,0.228511 1.051128,0.457012 1.576692,0.685518 0.457022,0.822639 0.914025,1.645244 1.371037,2.467867 -0.02285,0 -0.0457,0 -0.06855,0 0,15.470175 0,30.939731 0,46.409597 0,0.182808 0,0.36561 0,0.548415 -0.182808,0.616979 -0.365609,1.233933 -0.548414,1.850899 -0.548426,0.982596 -1.09683,1.965153 -1.645245,2.94773 -1.119702,1.211106 -2.23936,2.422165 -3.35904,3.633247 -1.599575,0.959745 -3.199062,1.919438 -4.798629,2.879178 -2.273675,0.171382 -4.547283,0.34276 -6.820924,0.514139 -5.449866,-0.05713 -10.899705,-0.114253 -16.349599,-0.17138 z"
       sodipodi:nodetypes="ccccccccccccccccccacccccccccccccccccccccccccccscccccccc"
       inkscape:label="hand"
       transform="matrix(0.52036118,0,0,0.52036118,19.475001,19.978615)" />
  </g>
  <g
     inkscape:groupmode="layer"
     id="layer3"
     inkscape:label="text"
     style="display:inline">
    <circle
       style="display:none;fill:none;fill-opacity:1;stroke:#92079f;stroke-width:0.739426;stroke-opacity:1;paint-order:markers fill stroke"
       id="path3"
       cx="14.641016"
       cy="-54.641018"
       r="24.026592"
       transform="rotate(120)" />
    <path
       style="font-weight:bold;font-size:10.6667px;font-family:Sans;-inkscape-font-specification:'Sans Bold';fill:#d999d9;paint-order:markers fill stroke"
       d="m 21.955158,64.614474 q 0.290678,-0.368485 0.540417,-0.633405 0.234758,-0.263151 0.383634,-0.417432 l -0.067,-0.05285 q -0.342327,0.123952 -0.655626,0.10777 -0.3133,-0.01618 -0.609016,-0.140769 -0.310697,-0.122817 -0.587061,-0.340826 -0.494105,-0.389773 -0.723857,-0.856319 -0.229753,-0.466546 -0.140067,-0.993583 0.07471,-0.525269 0.543754,-1.11987 l 2.351851,-2.981381 1.264574,0.997555 -2.10081,2.663143 q -0.389773,0.494105 -0.405488,0.875703 -0.02232,0.389973 0.354538,0.687258 0.368485,0.290678 0.724959,0.286574 0.3481,-0.01071 0.704474,-0.273027 0.356374,-0.262317 0.739541,-0.748048 l 1.691218,-2.143914 1.264574,0.997555 -5.020804,6.364745 -1.264574,-0.997554 z m -6.277823,-7.125827 q -0.475012,-0.656923 -0.568102,-1.313583 -0.101734,-0.650409 0.20106,-1.251086 0.287901,-0.603071 0.979399,-1.103083 l 0.630992,-0.456261 2.193804,3.033949 q 0.523411,-0.404797 0.60958,-0.940977 0.07753,-0.52993 -0.341235,-1.109059 -0.318758,-0.440831 -0.667702,-0.741366 -0.348944,-0.300535 -0.796825,-0.555856 l 0.976741,-0.706267 q 0.422881,0.220746 0.781932,0.553462 0.361444,0.317823 0.773954,0.888309 0.506262,0.700142 0.64071,1.432202 0.128198,0.723416 -0.182708,1.422099 -0.319549,0.704934 -1.13206,1.292449 -0.829798,0.600015 -1.574358,0.717175 -0.759454,0.114767 -1.398562,-0.186564 -0.645358,-0.309976 -1.12662,-0.975543 z m 0.899878,-0.703341 q 0.281257,0.388968 0.70693,0.449738 0.417028,0.06702 0.932328,-0.23977 l -1.287532,-1.780609 q -0.285243,0.206255 -0.432584,0.45759 -0.147342,0.251335 -0.133244,0.543893 0.0078,0.283915 0.214102,0.569158 z m 1.225465,-7.555139 0.66757,1.465815 -7.377613,3.359953 -0.66757,-1.465815 z m -7.179306,-3.322234 q -0.222021,-0.988715 0.398782,-1.729398 0.610396,-0.738346 2.057042,-1.063197 0.957493,-0.21501 1.686675,-0.08358 0.726846,0.121024 1.169729,0.535392 0.442883,0.414367 0.58778,1.059634 0.09348,0.416301 0.05718,0.74149 -0.04671,0.327526 -0.15608,0.570733 -0.122116,0.235136 -0.266325,0.420571 l 0.01402,0.06245 q 0.182661,-0.06288 0.427768,-0.139787 0.234699,-0.07457 0.494887,-0.132994 l 2.175173,-0.488446 0.352897,1.571537 -8.180317,1.836932 -0.287459,-1.280126 0.689857,-0.38449 -0.01636,-0.07285 q -0.274429,-0.10236 -0.508506,-0.268444 -0.236414,-0.17649 -0.418671,-0.452601 -0.184595,-0.286518 -0.278077,-0.702819 z m 1.365756,0.239928 q 0.08881,0.395487 0.309081,0.597467 0.220273,0.20198 0.576685,0.231269 0.356411,0.02929 0.868717,-0.07482 l 0.166521,-0.03739 q 0.541191,-0.121528 0.905236,-0.301667 0.3513,-0.188209 0.495291,-0.471987 0.141653,-0.294184 0.04817,-0.710486 -0.07946,-0.353855 -0.328619,-0.538417 -0.251495,-0.194969 -0.651874,-0.225317 -0.410786,-0.02801 -0.962385,0.09585 -0.84301,0.189302 -1.18814,0.551043 -0.357874,0.353671 -0.238684,0.884454 z m -1.848164,-6.529153 5.823431,-0.08272 0.02288,1.610509 -5.823431,0.08272 z m -2.281747,0.832494 q -0.005,-0.351966 0.1620147,-0.610365 0.156197,-0.268913 0.6148188,-0.275427 0.4372906,-0.0062 0.611728,0.258005 0.174286,0.253551 0.1792853,0.605517 0.00515,0.362631 -0.1618632,0.62103 -0.167014,0.258399 -0.6043046,0.26461 -0.4586219,0.0065 -0.6222422,-0.247188 Q 7.8643679,40.813833 7.859217,40.451202 Z m 2.884833,-6.927111 q 0.187411,-0.941532 0.787381,-1.387659 0.599971,-0.446126 1.708887,-0.225398 l 3.724283,0.741312 -0.31235,1.569221 -3.326748,-0.662184 q -0.617227,-0.122858 -0.966421,0.04691 -0.357573,0.15722 -0.451278,0.627987 -0.141599,0.71138 0.298031,1.070786 0.431252,0.346863 1.3414,0.528026 l 2.678136,0.533079 -0.314433,1.579682 -5.711963,-1.136957 0.241551,-1.21353 0.807417,-0.06768 0.01249,-0.06277 q -0.244978,-0.24453 -0.381226,-0.543549 -0.144627,-0.311562 -0.174228,-0.654609 -0.03798,-0.35559 0.03907,-0.742665 z m 2.398028,-6.809939 q 0.281351,-0.538987 0.676949,-0.789721 0.386142,-0.255669 0.849955,-0.314372 l 0.01974,-0.03782 -0.583355,-0.472967 0.631807,-1.210358 5.200758,2.714795 q 0.728106,0.380071 1.071735,0.920421 0.353084,0.545285 0.307299,1.255368 -0.04085,0.700627 -0.499897,1.580028 -0.310967,0.595723 -0.633414,1.029031 -0.312991,0.438245 -0.700382,0.765457 l -1.210358,-0.631806 q 0.411238,-0.326797 0.747245,-0.71693 0.340943,-0.399588 0.646974,-0.985855 0.310967,-0.595724 0.194697,-1.041457 -0.111334,-0.455189 -0.593586,-0.706925 l -0.141839,-0.07404 q -0.113471,-0.05923 -0.297653,-0.167408 -0.179247,-0.117632 -0.311214,-0.210583 l -0.02468,0.04728 q 0.226886,0.395182 0.247349,0.863099 0.0254,0.458461 -0.251017,0.987993 -0.463983,0.888857 -1.435617,1.067517 -0.966698,0.169204 -2.252704,-0.50209 -1.286005,-0.671295 -1.704392,-1.575546 -0.418387,-0.904251 0.0456,-1.793108 z m 1.367118,0.124043 q -0.162887,0.312045 -0.101689,0.632771 0.06613,0.31127 0.356773,0.607373 0.295573,0.286647 0.815649,0.558126 0.775385,0.404752 1.281958,0.356337 0.511509,-0.05787 0.773116,-0.559034 0.14808,-0.283678 0.166632,-0.526676 0.01855,-0.242998 -0.07803,-0.449837 -0.106039,-0.211775 -0.331733,-0.401782 -0.220758,-0.199464 -0.570627,-0.382095 l -0.20803,-0.108592 q -0.520076,-0.27148 -0.914785,-0.34516 -0.394709,-0.07368 -0.688316,0.07387 -0.293606,0.14755 -0.500918,0.544699 z m 5.252729,-9.68352 q 0.298622,0.362077 0.504689,0.662225 0.207508,0.285131 0.326788,0.463286 l 0.06583,-0.05429 q -0.0487,-0.360806 0.03342,-0.663584 0.08212,-0.302778 0.266467,-0.56543 0.185789,-0.277667 0.457347,-0.501633 0.485513,-0.400426 0.990115,-0.526238 0.504601,-0.125812 1.00072,0.07338 0.497561,0.184177 0.979429,0.768438 l 2.416124,2.929535 -1.242584,1.024817 -2.158223,-2.616832 q -0.400425,-0.485513 -0.770054,-0.581631 -0.376416,-0.104346 -0.746722,0.201063 -0.362077,0.298622 -0.433508,0.64789 -0.0632,0.342481 0.117754,0.746298 0.180955,0.403817 0.574593,0.8811 l 1.737438,2.106632 -1.242584,1.024817 -5.158018,-6.254063 1.242584,-1.024817 z m 8.402936,-4.675625 q 1.006575,-0.440321 1.743767,-0.192312 0.732917,0.238236 1.139038,1.16663 l 1.556085,3.557218 -1.026121,0.44887 -0.599751,-0.599196 -0.03909,0.0171 q -0.100795,0.381729 -0.263885,0.674282 -0.153318,0.288278 -0.431841,0.503257 -0.274248,0.224752 -0.723786,0.4214 -0.469084,0.205198 -0.917391,0.19174 -0.452582,-0.02323 -0.830027,-0.30054 -0.377445,-0.277308 -0.625393,-0.844118 -0.367646,-0.840441 0.05443,-1.525709 0.422076,-0.685269 1.602728,-1.259951 l 0.87648,-0.418339 -0.07267,-0.166134 q -0.209473,-0.478856 -0.505694,-0.570486 -0.300496,-0.101402 -0.691399,0.0696 -0.361585,0.158173 -0.691416,0.442168 -0.329831,0.283994 -0.628515,0.612576 l -0.870314,-0.818477 q 0.326172,-0.39882 0.808089,-0.760986 0.49169,-0.366441 1.13668,-0.648588 z m 1.347227,2.973308 q -0.685303,0.323067 -0.869161,0.64799 -0.183858,0.324923 -0.02141,0.696281 0.149624,0.34204 0.407977,0.42695 0.263851,0.07086 0.586346,-0.07021 0.459311,-0.200923 0.652335,-0.611354 0.202796,-0.414705 -0.0195,-0.922879 L 30.0563,15.179368 Z m 7.087816,-5.222938 q 0.951258,-0.129281 1.568388,0.292791 0.617129,0.422073 0.769394,1.542444 l 0.511379,3.762754 -1.58543,0.215469 -0.456794,-3.361112 q -0.08475,-0.623603 -0.358938,-0.898517 -0.265054,-0.286921 -0.740683,-0.22228 -0.718729,0.09768 -0.915454,0.630359 -0.187591,0.520673 -0.06262,1.440223 l 0.367734,2.705801 -1.596,0.216905 -0.784306,-5.770966 1.226066,-0.166629 0.326821,0.74141 0.06342,-0.0086 q 0.151467,-0.311233 0.389849,-0.537397 0.247515,-0.238169 0.562243,-0.377825 0.32386,-0.151662 0.714933,-0.204811 z m 6.28857,6.015885 q -0.94929,-0.143019 -1.448229,-0.984071 -0.486802,-0.85001 -0.265918,-2.316136 0.224063,-1.487221 0.948653,-2.143938 0.72618,-0.667264 1.717661,-0.517889 0.411359,0.06198 0.689213,0.222494 0.289992,0.15156 0.482889,0.374789 0.192897,0.223229 0.314563,0.489662 l 0.05274,0.0079 q -0.003,-0.194625 0.01617,-0.536918 0.03134,-0.351251 0.07425,-0.636038 l 0.276503,-1.8352938 1.603245,0.2415425 -1.207712,8.0162263 -1.22353,-0.184335 -0.203604,-0.796557 -0.06329,-0.0095 q -0.184216,0.220349 -0.434321,0.376836 -0.250105,0.156487 -0.584015,0.224838 -0.323362,0.06994 -0.745269,0.0064 z m 0.751307,-1.192046 q 0.653955,0.09852 0.973265,-0.230917 0.3209,-0.339989 0.436903,-1.109968 l 0.02543,-0.168763 q 0.125539,-0.833266 -0.06086,-1.314406 -0.186402,-0.48114 -0.872001,-0.584431 -0.516835,-0.07787 -0.878912,0.320641 -0.351529,0.400097 -0.478657,1.24391 -0.127127,0.843813 0.0941,1.308626 0.23336,0.455853 0.760743,0.535308 z"
       id="text4"
       aria-label="helping hand" />
  </g>
  <metadata
     id="metadata1">
    <rdf:RDF>
      <cc:Work
         rdf:about="">
        <dc:title>helping hand sticker</dc:title>
        <dc:contributor>
          <cc:Agent>
            <dc:title>Danish Khatri </dc:title>
          </cc:Agent>
        </dc:contributor>
        <cc:license
           rdf:resource="http://creativecommons.org/publicdomain/zero/1.0/" />
      </cc:Work>
      <cc:License
         rdf:about="http://creativecommons.org/publicdomain/zero/1.0/">
        <cc:permits
           rdf:resource="http://creativecommons.org/ns#Reproduction" />
        <cc:permits
           rdf:resource="http://creativecommons.org/ns#Distribution" />
        <cc:permits
           rdf:resource="http://creativecommons.org/ns#DerivativeWorks" />
      </cc:License>
    </rdf:RDF>
  </metadata>
</svg>
