<?xml version="1.0" encoding="UTF-8" standalone="no"?>
<!-- Created with Inkscape (http://www.inkscape.org/) -->

<svg
   version="1.1"
   id="svg1"
   width="80"
   height="80"
   viewBox="0 0 80 80"
   sodipodi:docname="hp.svg"
   inkscape:version="1.4 (86a8ad7, 2024-10-11)"
   xmlns:inkscape="http://www.inkscape.org/namespaces/inkscape"
   xmlns:sodipodi="http://sodipodi.sourceforge.net/DTD/sodipodi-0.dtd"
   xmlns:xlink="http://www.w3.org/1999/xlink"
   xmlns="http://www.w3.org/2000/svg"
   xmlns:svg="http://www.w3.org/2000/svg"
   xmlns:rdf="http://www.w3.org/1999/02/22-rdf-syntax-ns#"
   xmlns:cc="http://creativecommons.org/ns#"
   xmlns:dc="http://purl.org/dc/elements/1.1/">
  <title
     id="title1">helping hand sticker</title>
  <defs
     id="defs1">
    <linearGradient
       id="swatch3"
       inkscape:swatch="solid">
      <stop
         style="stop-color:#ff69b4;stop-opacity:1;"
         offset="0"
         id="stop3" />
    </linearGradient>
    <linearGradient
       id="swatch1">
      <stop
         style="stop-color:#8b4513;stop-opacity:1;"
         offset="0"
         id="stop1" />
    </linearGradient>
    <inkscape:path-effect
       effect="bspline"
       id="path-effect24"
       is_visible="true"
       lpeversion="1.3"
       weight="33.333333"
       steps="2"
       helper_size="0"
       apply_no_weight="true"
       apply_with_weight="true"
       only_selected="false"
       uniform="false" />
    <linearGradient
       id="linearGradient21"
       inkscape:collect="always">
      <stop
         style="stop-color:#bfbfbf;stop-opacity:1;"
         offset="0"
         id="stop21" />
      <stop
         style="stop-color:#ffffff;stop-opacity:1;"
         offset="0.13513535"
         id="stop23" />
      <stop
         style="stop-color:#dfdfdf;stop-opacity:1;"
         offset="0.2256761"
         id="stop24" />
      <stop
         style="stop-color:#b4b4b4;stop-opacity:1;"
         offset="1"
         id="stop22" />
    </linearGradient>
    <linearGradient
       id="swatch19"
       inkscape:swatch="solid">
      <stop
         style="stop-color:#d999d9;stop-opacity:1;"
         offset="0"
         id="stop19" />
    </linearGradient>
    <clipPath
       clipPathUnits="userSpaceOnUse"
       id="clipPath54">
      <path
         id="path54"
         style="stroke-width:0.0999999;stroke-linecap:square;paint-order:markers fill stroke;stop-color:#000000"
         d="m 1691.1994,-792.32001 h 1634.8919 v 92.82806 H 1691.1994 Z" />
    </clipPath>
    <inkscape:path-effect
       effect="bspline"
       id="path-effect5"
       is_visible="true"
       lpeversion="1.3"
       weight="33.333333"
       steps="2"
       helper_size="0"
       apply_no_weight="true"
       apply_with_weight="true"
       only_selected="false"
       uniform="false" />
    <inkscape:path-effect
       effect="bspline"
       id="path-effect2"
       is_visible="true"
       lpeversion="1.3"
       weight="33.333333"
       steps="2"
       helper_size="0"
       apply_no_weight="true"
       apply_with_weight="true"
       only_selected="false"
       uniform="false" />
    <inkscape:path-effect
       effect="bspline"
       id="path-effect1"
       is_visible="true"
       lpeversion="1.3"
       weight="33.333333"
       steps="2"
       helper_size="0"
       apply_no_weight="true"
       apply_with_weight="true"
       only_selected="false"
       uniform="false" />
    <inkscape:path-effect
       effect="bspline"
       id="path-effect2-4"
       is_visible="true"
       lpeversion="1.3"
       weight="33.333333"
       steps="2"
       helper_size="0"
       apply_no_weight="true"
       apply_with_weight="true"
       only_selected="false"
       uniform="false" />
    <linearGradient
       inkscape:collect="always"
       xlink:href="#linearGradient21"
       id="linearGradient22"
       x1="40.138695"
       y1="68.618027"
       x2="40.138695"
       y2="76.799126"
       gradientUnits="userSpaceOnUse"
       gradientTransform="matrix(0.90611104,-0.52314345,-0.43845445,-0.75942539,49.926641,141.48622)" />
    <filter
       inkscape:collect="always"
       style="color-interpolation-filters:sRGB"
       id="filter1"
       x="-0.11604381"
       y="-0.20048088"
       width="1.2320876"
       height="1.4009618">
      <feGaussianBlur
         inkscape:collect="always"
         stdDeviation="1.972905"
         id="feGaussianBlur1" />
    </filter>
  </defs>
  <sodipodi:namedview
     id="namedview1"
     pagecolor="#505050"
     bordercolor="#eeeeee"
     borderopacity="1"
     inkscape:showpageshadow="0"
     inkscape:pageopacity="0"
     inkscape:pagecheckerboard="0"
     inkscape:deskcolor="#505050"
     inkscape:zoom="10.31492"
     inkscape:cx="37.421521"
     inkscape:cy="27.532933"
     inkscape:window-width="1718"
     inkscape:window-height="1360"
     inkscape:window-x="3626"
     inkscape:window-y="0"
     inkscape:window-maximized="0"
     inkscape:current-layer="layer2"
     showgrid="false" />
  <g
     inkscape:groupmode="layer"
     id="layer5"
     inkscape:label="shadow"
     transform="translate(5.232603,-23.562244)"
     style="display:inline">
    <path
       id="path1-7"
       style="display:inline;fill:#aaaaaa;fill-opacity:1;stroke:none;stroke-width:6.07775;stroke-opacity:1;paint-order:markers fill stroke;filter:url(#filter1)"
       inkscape:label="peel_shadow"
       d="m 30.26937,103.47729 c 3.627794,-7.179789 9.601636,-13.405826 16.983083,-17.700042 7.409626,-4.24541 15.788451,-6.305893 23.820232,-5.857758 0,0 -13.402659,8.297753 -20.203212,12.224054 C 44.06892,96.069845 30.26937,103.47729 30.26937,103.47729 Z"
       sodipodi:nodetypes="ccczc" />
  </g>
  <g
     inkscape:groupmode="layer"
     inkscape:label="badge"
     id="g1"
     style="display:inline">
    <path
       id="path2"
       style="display:inline;fill:#fffacd;fill-opacity:1;stroke:#a0522f;stroke-width:6.36038;stroke-linecap:square;stroke-linejoin:miter;stroke-opacity:1;paint-order:fill markers stroke"
       inkscape:label="circle"
       d="M 21.598475,8.1250487 C 3.9718638,18.336796 -2.0674295,40.954274 8.1095178,58.641919 13.826999,68.509786 23.765251,75.1751 35.037956,76.702087 L 74.061995,54.09305 C 78.380531,43.533094 77.597366,31.563672 71.939953,21.661003 61.763661,3.972979 39.224711,-2.0873555 21.598475,8.1250487 Z"
       sodipodi:nodetypes="cccccc" />
    <path
       style="display:inline;fill:#e1fce1;fill-opacity:1;stroke-width:1.11353;stroke-linecap:square;stroke-linejoin:miter;paint-order:stroke fill markers"
       id="path4"
       sodipodi:type="arc"
       sodipodi:cx="40.359409"
       sodipodi:cy="40.262463"
       sodipodi:rx="34"
       sodipodi:ry="34"
       sodipodi:start="1.4106603"
       sodipodi:end="0.57299907"
       sodipodi:arc-type="arc"
       d="M 45.780794,73.827453 A 34,34 0 0 1 8.6547665,52.543164 34,34 0 0 1 21.755994,11.803493 a 34,34 0 0 1 42.573204,4.345711 34,34 0 0 1 4.59969,42.546513"
       sodipodi:open="true" />
    <path
       id="circle19"
       style="display:inline;fill:url(#linearGradient22);stroke:none;stroke-width:6;stroke-opacity:1;paint-order:markers fill stroke;stroke-dasharray:none"
       inkscape:label="circle"
       d="m 35.50237,79.915295 c 3.627794,-7.179794 9.601636,-13.405831 16.983083,-17.700047 7.409626,-4.24541 15.788451,-6.305893 23.820232,-5.857758 0,0 -13.402659,8.297753 -20.203212,12.224054 C 49.30192,72.507845 35.50237,79.915295 35.50237,79.915295 Z"
       sodipodi:nodetypes="ccczc" />
  </g>
  <g
     inkscape:groupmode="layer"
     id="layer1"
     inkscape:label="rect"
     style="display:inline" />
  <g
     inkscape:groupmode="layer"
     id="layer3"
     inkscape:label="text"
     style="display:inline">
    <circle
       style="display:none;fill:none;fill-opacity:1;stroke:#92079f;stroke-width:0.739426;stroke-opacity:1;paint-order:markers fill stroke"
       id="path3"
       cx="14.641016"
       cy="-54.641018"
       r="24.026592"
       transform="rotate(120)" />
    <path
       d="m 21.955158,64.614474 q 0.290678,-0.368485 0.540417,-0.633405 0.234758,-0.263151 0.383634,-0.417432 l -0.067,-0.05285 q -0.342327,0.123952 -0.655626,0.10777 -0.3133,-0.01618 -0.609016,-0.140769 -0.310697,-0.122817 -0.587061,-0.340826 -0.494105,-0.389773 -0.723857,-0.856319 -0.229753,-0.466546 -0.140067,-0.993583 0.07471,-0.525269 0.543754,-1.11987 l 2.351851,-2.981381 1.264574,0.997555 -2.10081,2.663143 q -0.389773,0.494105 -0.405488,0.875703 -0.02232,0.389973 0.354538,0.687258 0.368485,0.290678 0.724959,0.286574 0.3481,-0.01071 0.704474,-0.273027 0.356374,-0.262317 0.739541,-0.748048 l 1.691218,-2.143914 1.264574,0.997555 -5.020804,6.364745 -1.264574,-0.997554 z m -6.277823,-7.125827 q -0.475012,-0.656923 -0.568102,-1.313583 -0.101734,-0.650409 0.20106,-1.251086 0.287901,-0.603071 0.979399,-1.103083 l 0.630992,-0.456261 2.193804,3.033949 q 0.523411,-0.404797 0.60958,-0.940977 0.07753,-0.52993 -0.341235,-1.109059 -0.318758,-0.440831 -0.667702,-0.741366 -0.348944,-0.300535 -0.796825,-0.555856 l 0.976741,-0.706267 q 0.422881,0.220746 0.781932,0.553462 0.361444,0.317823 0.773954,0.888309 0.506262,0.700142 0.64071,1.432202 0.128198,0.723416 -0.182708,1.422099 -0.319549,0.704934 -1.13206,1.292449 -0.829798,0.600015 -1.574358,0.717175 -0.759454,0.114767 -1.398562,-0.186564 -0.645358,-0.309976 -1.12662,-0.975543 z m 0.899878,-0.703341 q 0.281257,0.388968 0.70693,0.449738 0.417028,0.06702 0.932328,-0.23977 l -1.287532,-1.780609 q -0.285243,0.206255 -0.432584,0.45759 -0.147342,0.251335 -0.133244,0.543893 0.0078,0.283915 0.214102,0.569158 z m 1.225465,-7.555139 0.66757,1.465815 -7.377613,3.359953 -0.66757,-1.465815 z m -7.179306,-3.322234 q -0.222021,-0.988715 0.398782,-1.729398 0.610396,-0.738346 2.057042,-1.063197 0.957493,-0.21501 1.686675,-0.08358 0.726846,0.121024 1.169729,0.535392 0.442883,0.414367 0.58778,1.059634 0.09348,0.416301 0.05718,0.74149 -0.04671,0.327526 -0.15608,0.570733 -0.122116,0.235136 -0.266325,0.420571 l 0.01402,0.06245 q 0.182661,-0.06288 0.427768,-0.139787 0.234699,-0.07457 0.494887,-0.132994 l 2.175173,-0.488446 0.352897,1.571537 -8.180317,1.836932 -0.287459,-1.280126 0.689857,-0.38449 -0.01636,-0.07285 q -0.274429,-0.10236 -0.508506,-0.268444 -0.236414,-0.17649 -0.418671,-0.452601 -0.184595,-0.286518 -0.278077,-0.702819 z m 1.365756,0.239928 q 0.08881,0.395487 0.309081,0.597467 0.220273,0.20198 0.576685,0.231269 0.356411,0.02929 0.868717,-0.07482 l 0.166521,-0.03739 q 0.541191,-0.121528 0.905236,-0.301667 0.3513,-0.188209 0.495291,-0.471987 0.141653,-0.294184 0.04817,-0.710486 -0.07946,-0.353855 -0.328619,-0.538417 -0.251495,-0.194969 -0.651874,-0.225317 -0.410786,-0.02801 -0.962385,0.09585 -0.84301,0.189302 -1.18814,0.551043 -0.357874,0.353671 -0.238684,0.884454 z m -1.848164,-6.529153 5.823431,-0.08272 0.02288,1.610509 -5.823431,0.08272 z m -2.281747,0.832494 q -0.005,-0.351966 0.1620147,-0.610365 0.156197,-0.268913 0.6148188,-0.275427 0.4372906,-0.0062 0.611728,0.258005 0.174286,0.253551 0.1792853,0.605517 0.00515,0.362631 -0.1618632,0.62103 -0.167014,0.258399 -0.6043046,0.26461 -0.4586219,0.0065 -0.6222422,-0.247188 Q 7.8643679,40.813833 7.859217,40.451202 Z m 2.884833,-6.927111 q 0.187411,-0.941532 0.787381,-1.387659 0.599971,-0.446126 1.708887,-0.225398 l 3.724283,0.741312 -0.31235,1.569221 -3.326748,-0.662184 q -0.617227,-0.122858 -0.966421,0.04691 -0.357573,0.15722 -0.451278,0.627987 -0.141599,0.71138 0.298031,1.070786 0.431252,0.346863 1.3414,0.528026 l 2.678136,0.533079 -0.314433,1.579682 -5.711963,-1.136957 0.241551,-1.21353 0.807417,-0.06768 0.01249,-0.06277 q -0.244978,-0.24453 -0.381226,-0.543549 -0.144627,-0.311562 -0.174228,-0.654609 -0.03798,-0.35559 0.03907,-0.742665 z m 2.398028,-6.809939 q 0.281351,-0.538987 0.676949,-0.789721 0.386142,-0.255669 0.849955,-0.314372 l 0.01974,-0.03782 -0.583355,-0.472967 0.631807,-1.210358 5.200758,2.714795 q 0.728106,0.380071 1.071735,0.920421 0.353084,0.545285 0.307299,1.255368 -0.04085,0.700627 -0.499897,1.580028 -0.310967,0.595723 -0.633414,1.029031 -0.312991,0.438245 -0.700382,0.765457 l -1.210358,-0.631806 q 0.411238,-0.326797 0.747245,-0.71693 0.340943,-0.399588 0.646974,-0.985855 0.310967,-0.595724 0.194697,-1.041457 -0.111334,-0.455189 -0.593586,-0.706925 l -0.141839,-0.07404 q -0.113471,-0.05923 -0.297653,-0.167408 -0.179247,-0.117632 -0.311214,-0.210583 l -0.02468,0.04728 q 0.226886,0.395182 0.247349,0.863099 0.0254,0.458461 -0.251017,0.987993 -0.463983,0.888857 -1.435617,1.067517 -0.966698,0.169204 -2.252704,-0.50209 -1.286005,-0.671295 -1.704392,-1.575546 -0.418387,-0.904251 0.0456,-1.793108 z m 1.367118,0.124043 q -0.162887,0.312045 -0.101689,0.632771 0.06613,0.31127 0.356773,0.607373 0.295573,0.286647 0.815649,0.558126 0.775385,0.404752 1.281958,0.356337 0.511509,-0.05787 0.773116,-0.559034 0.14808,-0.283678 0.166632,-0.526676 0.01855,-0.242998 -0.07803,-0.449837 -0.106039,-0.211775 -0.331733,-0.401782 -0.220758,-0.199464 -0.570627,-0.382095 l -0.20803,-0.108592 q -0.520076,-0.27148 -0.914785,-0.34516 -0.394709,-0.07368 -0.688316,0.07387 -0.293606,0.14755 -0.500918,0.544699 z m 6.854506,-10.3026 q 0.779175,-0.647871 1.721295,-0.432422 0.9353,0.207248 1.883237,1.347305 0.627412,0.754569 0.842423,1.463619 0.223212,0.70223 0.05596,1.285215 -0.167257,0.582985 -0.675771,1.005806 -0.328074,0.272787 -0.634124,0.38854 -0.31287,0.107551 -0.579203,0.120917 -0.26495,-0.0017 -0.495711,-0.04561 l -0.04921,0.04092 q 0.139159,0.133994 0.319235,0.317199 0.173257,0.175003 0.343749,0.380049 l 1.425316,1.714186 -1.238478,1.029774 -5.36028,-6.44665 1.008826,-0.838823 0.656438,0.439118 0.05741,-0.04774 q -0.03383,-0.290938 0.0075,-0.574965 0.04948,-0.290847 0.212321,-0.578838 0.171038,-0.294812 0.499112,-0.567599 z m 0.408271,1.325206 q -0.31167,0.259148 -0.391197,0.547231 -0.07953,0.288082 0.05668,0.618738 0.136212,0.330656 0.462175,0.739366 l 0.109115,0.13123 q 0.354625,0.426496 0.68077,0.668587 0.327527,0.227069 0.645744,0.226051 0.326418,-0.0078 0.654492,-0.280625 0.278863,-0.23187 0.329729,-0.537738 0.05907,-0.312688 -0.09622,-0.682971 -0.162109,-0.378485 -0.523552,-0.813183 -0.552396,-0.664349 -1.031612,-0.806909 -0.477834,-0.157582 -0.896128,0.190223 z m 6.173319,-5.286286 q 1.003024,-0.448351 1.742174,-0.206242 0.734798,0.232371 1.148326,1.15749 l 1.584464,3.544668 -1.022501,0.457057 -0.604521,-0.594384 -0.03895,0.01741 q -0.09774,0.382522 -0.258489,0.676369 -0.151009,0.289494 -0.427804,0.506693 -0.272443,0.226936 -0.720396,0.42717 -0.467428,0.208941 -0.915829,0.199066 -0.452753,-0.01961 -0.832402,-0.293896 -0.379649,-0.274284 -0.632119,-0.839093 -0.374351,-0.837477 0.04224,-1.526096 0.416587,-0.68862 1.592608,-1.27272 l 0.873108,-0.42533 -0.074,-0.165548 q -0.213293,-0.477166 -0.510236,-0.566426 -0.301297,-0.099 -0.690821,0.07512 -0.36031,0.161058 -0.68786,0.44768 -0.327551,0.286621 -0.623599,0.617579 L 26.01185,13.999587 q 0.322974,-0.401414 0.801982,-0.76742 0.488745,-0.370359 1.13146,-0.657652 z m 1.370947,2.962447 q -0.6827,0.328533 -0.863955,0.654915 -0.181255,0.326382 -0.01584,0.69643 0.152352,0.340833 0.411376,0.423675 0.264408,0.06875 0.585766,-0.0749 0.45769,-0.204587 0.647427,-0.616548 0.199476,-0.416313 -0.02688,-0.922694 l -0.195882,-0.438214 z m 8.755917,-1.536609 q -0.06009,-0.176329 -0.179225,-0.518371 -0.109559,-0.353695 -0.244496,-0.747781 -0.135974,-0.404703 -0.254076,-0.736129 -0.119138,-0.342042 -0.166536,-0.498175 l -0.04246,0.0041 q -0.0163,0.162353 -0.06702,0.520981 -0.04114,0.346975 -0.09626,0.770336 -0.05615,0.412746 -0.105839,0.78199 -0.04968,0.369244 -0.07349,0.564482 l -0.271192,2.052075 -1.698594,0.165859 -2.211506,-5.635775 1.571199,-0.153419 0.919683,2.503816 q 0.100229,0.258149 0.189591,0.624533 0.09998,0.365348 0.187269,0.710499 0.08625,0.334536 0.127181,0.534171 l 0.04246,-0.0041 q -0.0039,-0.149663 0.0041,-0.396946 0.007,-0.257899 0.02352,-0.527451 0.02716,-0.270588 0.03828,-0.486022 0.0207,-0.227087 0.03467,-0.303474 l 0.439692,-2.8509 1.741059,-0.170006 0.951031,2.715104 q 0.05698,0.14448 0.142194,0.4684 0.09583,0.322883 0.171469,0.658455 0.08625,0.334535 0.105949,0.536243 l 0.04246,-0.0041 q 0.0036,-0.182549 0.02352,-0.527451 0.01887,-0.355518 0.04525,-0.743921 0.037,-0.38944 0.08539,-0.662101 l 0.439192,-2.636503 1.549966,-0.1513468 -1.100751,5.9591998 -1.719826,0.167932 z m 9.33004,1.242276 q -0.112449,0.54315 -0.457917,0.896451 -0.332859,0.345017 -0.900531,0.456241 -0.567672,0.111225 -1.371953,-0.05529 -0.605821,-0.125425 -1.048109,-0.304136 -0.444452,-0.168267 -0.835942,-0.434497 l 0.270312,-1.30565 q 0.414176,0.314499 0.920931,0.550129 0.506755,0.235629 0.893227,0.315642 0.480479,0.09947 0.717496,0.0069 0.247461,-0.09037 0.295036,-0.32017 0.03244,-0.156677 -0.05651,-0.305807 -0.0785,-0.146968 -0.33241,-0.341142 -0.243462,-0.192013 -0.714189,-0.496434 -0.468565,-0.314866 -0.767844,-0.605577 -0.297117,-0.301157 -0.40981,-0.651275 -0.102248,-0.347956 -0.0049,-0.81799 0.162187,-0.78339 0.862791,-1.063165 0.713211,-0.288058 1.736841,-0.07613 0.553595,0.114613 0.999841,0.326822 0.456692,0.214372 0.904366,0.524913 l -0.682326,0.980706 q -0.360155,-0.259744 -0.754175,-0.461141 -0.39402,-0.201397 -0.717821,-0.268434 -0.355137,-0.07353 -0.577383,2.85e-4 -0.220084,0.06337 -0.261171,0.261823 -0.03028,0.146233 0.05039,0.282755 0.09111,0.138685 0.336735,0.320252 0.256071,0.18373 0.716352,0.485988 0.470728,0.304421 0.767844,0.605578 0.309724,0.292874 0.40981,0.651275 0.112694,0.350118 0.01106,0.841042 z"
       id="text1"
       style="font-weight:bold;font-size:10.6667px;font-family:Sans;-inkscape-font-specification:'Sans Bold';fill:#8b4513;stroke-width:0.75;stroke-linecap:square;paint-order:stroke fill markers"
       aria-label="helping paws" />
  </g>
  <g
     inkscape:groupmode="layer"
     id="layer2"
     inkscape:label="paws"
     style="display:inline">
    <path
       d="m 29.232564,39.78696 q -1.757203,0 -2.97051,-1.213306 -1.213306,-1.213306 -1.213306,-2.970509 0,-1.757202 1.213306,-2.970509 1.213307,-1.213306 2.97051,-1.213306 1.757202,0 2.970508,1.213306 1.213306,1.213307 1.213306,2.970509 0,1.757203 -1.213306,2.970509 -1.213306,1.213306 -2.970508,1.213306 z m 7.530867,-6.694105 q -1.757202,0 -2.970508,-1.213306 -1.213308,-1.213306 -1.213308,-2.970508 0,-1.757203 1.213308,-2.97051 1.213306,-1.213306 2.970508,-1.213306 1.757203,0 2.970509,1.213306 1.213307,1.213307 1.213307,2.97051 0,1.757202 -1.213307,2.970508 -1.213306,1.213306 -2.970509,1.213306 z m 10.041157,0 q -1.757202,0 -2.970509,-1.213306 -1.213306,-1.213306 -1.213306,-2.970508 0,-1.757203 1.213306,-2.97051 1.213307,-1.213306 2.970509,-1.213306 1.757202,0 2.970509,1.213306 1.213306,1.213307 1.213306,2.97051 0,1.757202 -1.213306,2.970508 -1.213307,1.213306 -2.970509,1.213306 z m 7.530868,6.694105 q -1.757202,0 -2.97051,-1.213306 -1.213306,-1.213306 -1.213306,-2.970509 0,-1.757202 1.213306,-2.970509 1.213308,-1.213306 2.97051,-1.213306 1.757203,0 2.970509,1.213306 1.213306,1.213307 1.213306,2.970509 0,1.757203 -1.213306,2.970509 -1.213306,1.213306 -2.970509,1.213306 z M 32.830644,56.522222 q -1.882717,0 -3.15878,-1.443417 -1.276063,-1.443416 -1.276063,-3.409809 0,-2.175584 1.485254,-3.807272 1.485254,-1.631688 2.949589,-3.221538 1.213307,-1.296982 2.091908,-2.824075 0.878602,-1.527092 2.091908,-2.865914 0.92044,-1.087792 2.133746,-1.79904 1.213307,-0.711249 2.635804,-0.711249 1.422497,0 2.635803,0.669411 1.213306,0.66941 2.133746,1.757202 1.171468,1.338821 2.070988,2.886832 0.899521,1.548012 2.112827,2.886833 1.464335,1.58985 2.949591,3.221538 1.485254,1.631688 1.485254,3.807272 0,1.966393 -1.276064,3.409809 -1.276064,1.443417 -3.158781,1.443417 -2.25926,0 -4.476682,-0.376543 -2.217422,-0.376543 -4.476682,-0.376543 -2.259261,0 -4.476682,0.376543 -2.217423,0.376543 -4.476684,0.376543 z"
       id="path1"
       style="stroke-width:3;stroke:#a0522d;stroke-opacity:1;fill:#90ee90;fill-opacity:1;stroke-dasharray:none" />
  </g>
  <metadata
     id="metadata1">
    <rdf:RDF>
      <cc:Work
         rdf:about="">
        <dc:title>helping hand sticker</dc:title>
        <dc:contributor>
          <cc:Agent>
            <dc:title>Danish Khatri </dc:title>
          </cc:Agent>
        </dc:contributor>
        <cc:license
           rdf:resource="http://creativecommons.org/publicdomain/zero/1.0/" />
      </cc:Work>
      <cc:License
         rdf:about="http://creativecommons.org/publicdomain/zero/1.0/">
        <cc:permits
           rdf:resource="http://creativecommons.org/ns#Reproduction" />
        <cc:permits
           rdf:resource="http://creativecommons.org/ns#Distribution" />
        <cc:permits
           rdf:resource="http://creativecommons.org/ns#DerivativeWorks" />
      </cc:License>
    </rdf:RDF>
  </metadata>
</svg>
