<?xml version="1.0" encoding="UTF-8" standalone="no"?>
<!-- Created with Inkscape (http://www.inkscape.org/) -->

<svg
   version="1.1"
   id="svg1"
   width="80"
   height="80"
   viewBox="0 0 80 80"
   sodipodi:docname="mr.svg"
   inkscape:version="1.4 (86a8ad7, 2024-10-11)"
   xmlns:inkscape="http://www.inkscape.org/namespaces/inkscape"
   xmlns:sodipodi="http://sodipodi.sourceforge.net/DTD/sodipodi-0.dtd"
   xmlns:xlink="http://www.w3.org/1999/xlink"
   xmlns="http://www.w3.org/2000/svg"
   xmlns:svg="http://www.w3.org/2000/svg"
   xmlns:rdf="http://www.w3.org/1999/02/22-rdf-syntax-ns#"
   xmlns:cc="http://creativecommons.org/ns#"
   xmlns:dc="http://purl.org/dc/elements/1.1/">
  <title
     id="title1">helping hand sticker</title>
  <defs
     id="defs1">
    <linearGradient
       id="swatch27"
       inkscape:swatch="solid">
      <stop
         style="stop-color:#000000;stop-opacity:1;"
         offset="0"
         id="stop27" />
    </linearGradient>
    <linearGradient
       id="swatch26"
       inkscape:swatch="solid">
      <stop
         style="stop-color:#ffda63;stop-opacity:1;"
         offset="0"
         id="stop26" />
    </linearGradient>
    <linearGradient
       id="swatch21"
       inkscape:swatch="solid">
      <stop
         style="stop-color:#fffacd;stop-opacity:1;"
         offset="0"
         id="stop25" />
    </linearGradient>
    <linearGradient
       id="swatch20"
       inkscape:swatch="solid">
      <stop
         style="stop-color:#008080;stop-opacity:1;"
         offset="0"
         id="stop20" />
    </linearGradient>
    <linearGradient
       id="swatch17"
       inkscape:swatch="solid">
      <stop
         style="stop-color:#007aff;stop-opacity:1;"
         offset="0"
         id="stop17" />
    </linearGradient>
    <linearGradient
       id="swatch16"
       inkscape:swatch="solid">
      <stop
         style="stop-color:#f29db5;stop-opacity:1;"
         offset="0"
         id="stop16" />
    </linearGradient>
    <linearGradient
       id="swatch15"
       inkscape:swatch="solid">
      <stop
         style="stop-color:#afeeee;stop-opacity:1;"
         offset="0"
         id="stop15" />
    </linearGradient>
    <linearGradient
       id="swatch14"
       inkscape:swatch="solid">
      <stop
         style="stop-color:#ff9505;stop-opacity:1;"
         offset="0"
         id="stop14" />
    </linearGradient>
    <linearGradient
       id="swatch11"
       inkscape:swatch="solid">
      <stop
         style="stop-color:#ff9505;stop-opacity:1;"
         offset="0"
         id="stop11" />
    </linearGradient>
    <inkscape:path-effect
       effect="bspline"
       id="path-effect24"
       is_visible="true"
       lpeversion="1.3"
       weight="33.333333"
       steps="2"
       helper_size="0"
       apply_no_weight="true"
       apply_with_weight="true"
       only_selected="false"
       uniform="false" />
    <linearGradient
       id="linearGradient21"
       inkscape:collect="always">
      <stop
         style="stop-color:#bfbfbf;stop-opacity:1;"
         offset="0"
         id="stop21" />
      <stop
         style="stop-color:#ffffff;stop-opacity:1;"
         offset="0.13513535"
         id="stop23" />
      <stop
         style="stop-color:#dfdfdf;stop-opacity:1;"
         offset="0.2256761"
         id="stop24" />
      <stop
         style="stop-color:#b4b4b4;stop-opacity:1;"
         offset="1"
         id="stop22" />
    </linearGradient>
    <linearGradient
       id="swatch19"
       inkscape:swatch="solid">
      <stop
         style="stop-color:#d999d9;stop-opacity:1;"
         offset="0"
         id="stop19" />
    </linearGradient>
    <clipPath
       clipPathUnits="userSpaceOnUse"
       id="clipPath54">
      <path
         id="path54"
         style="stroke-width:0.0999999;stroke-linecap:square;paint-order:markers fill stroke;stop-color:#000000"
         d="m 1691.1994,-792.32001 h 1634.8919 v 92.82806 H 1691.1994 Z" />
    </clipPath>
    <inkscape:path-effect
       effect="bspline"
       id="path-effect5"
       is_visible="true"
       lpeversion="1.3"
       weight="33.333333"
       steps="2"
       helper_size="0"
       apply_no_weight="true"
       apply_with_weight="true"
       only_selected="false"
       uniform="false" />
    <inkscape:path-effect
       effect="bspline"
       id="path-effect2"
       is_visible="true"
       lpeversion="1.3"
       weight="33.333333"
       steps="2"
       helper_size="0"
       apply_no_weight="true"
       apply_with_weight="true"
       only_selected="false"
       uniform="false" />
    <inkscape:path-effect
       effect="bspline"
       id="path-effect1"
       is_visible="true"
       lpeversion="1.3"
       weight="33.333333"
       steps="2"
       helper_size="0"
       apply_no_weight="true"
       apply_with_weight="true"
       only_selected="false"
       uniform="false" />
    <inkscape:path-effect
       effect="bspline"
       id="path-effect2-4"
       is_visible="true"
       lpeversion="1.3"
       weight="33.333333"
       steps="2"
       helper_size="0"
       apply_no_weight="true"
       apply_with_weight="true"
       only_selected="false"
       uniform="false" />
    <linearGradient
       inkscape:collect="always"
       xlink:href="#linearGradient21"
       id="linearGradient22"
       x1="40.138695"
       y1="68.618027"
       x2="40.138695"
       y2="76.799126"
       gradientUnits="userSpaceOnUse"
       gradientTransform="matrix(0.90611104,-0.52314345,-0.43845445,-0.75942539,49.926641,141.48622)" />
    <filter
       inkscape:collect="always"
       style="color-interpolation-filters:sRGB"
       id="filter1"
       x="-0.11604381"
       y="-0.20048088"
       width="1.2320876"
       height="1.4009618">
      <feGaussianBlur
         inkscape:collect="always"
         stdDeviation="1.972905"
         id="feGaussianBlur1" />
    </filter>
    <linearGradient
       inkscape:collect="always"
       xlink:href="#swatch15"
       id="linearGradient15"
       x1="6.3594093"
       y1="40.262463"
       x2="74.359409"
       y2="40.262463"
       gradientUnits="userSpaceOnUse" />
    <linearGradient
       inkscape:collect="always"
       xlink:href="#swatch20"
       id="linearGradient25"
       x1="-0.00088267494"
       y1="40"
       x2="80.000885"
       y2="40"
       gradientUnits="userSpaceOnUse" />
  </defs>
  <sodipodi:namedview
     id="namedview1"
     pagecolor="#505050"
     bordercolor="#eeeeee"
     borderopacity="1"
     inkscape:showpageshadow="0"
     inkscape:pageopacity="0"
     inkscape:pagecheckerboard="0"
     inkscape:deskcolor="#505050"
     inkscape:zoom="7.2937499"
     inkscape:cx="41.610969"
     inkscape:cy="75.13282"
     inkscape:window-width="1717"
     inkscape:window-height="1360"
     inkscape:window-x="3627"
     inkscape:window-y="0"
     inkscape:window-maximized="0"
     inkscape:current-layer="layer6"
     showgrid="false" />
  <g
     inkscape:groupmode="layer"
     id="layer5"
     inkscape:label="shadow"
     transform="translate(5.232603,-23.562244)"
     style="display:inline">
    <path
       id="path1-7"
       style="display:inline;fill:#aaaaaa;fill-opacity:1;stroke:none;stroke-width:6.07775;stroke-opacity:1;paint-order:markers fill stroke;filter:url(#filter1)"
       inkscape:label="peel_shadow"
       d="m 30.26937,103.47729 c 3.627794,-7.179789 9.601636,-13.405826 16.983083,-17.700042 7.409626,-4.24541 15.788451,-6.305893 23.820232,-5.857758 0,0 -13.402659,8.297753 -20.203212,12.224054 C 44.06892,96.069845 30.26937,103.47729 30.26937,103.47729 Z"
       sodipodi:nodetypes="ccczc" />
  </g>
  <g
     inkscape:groupmode="layer"
     inkscape:label="badge"
     id="g1"
     style="display:inline">
    <path
       id="path2"
       style="display:inline;fill:url(#linearGradient25);fill-opacity:1;stroke:#008080;stroke-width:6.36038;stroke-linecap:square;stroke-linejoin:miter;stroke-opacity:1;paint-order:fill markers stroke"
       inkscape:label="circle"
       d="M 21.598475,8.1250487 C 3.9718638,18.336796 -2.0674295,40.954274 8.1095178,58.641919 13.826999,68.509786 23.765251,75.1751 35.037956,76.702087 L 74.061995,54.09305 C 78.380531,43.533094 77.597366,31.563672 71.939953,21.661003 61.763661,3.972979 39.224711,-2.0873555 21.598475,8.1250487 Z"
       sodipodi:nodetypes="cccccc" />
    <path
       style="display:inline;fill:url(#linearGradient15);fill-opacity:1;stroke-width:1.11353;stroke-linecap:square;stroke-linejoin:miter;paint-order:stroke fill markers;stroke:none;stroke-opacity:1"
       id="path4"
       sodipodi:type="arc"
       sodipodi:cx="40.359409"
       sodipodi:cy="40.262463"
       sodipodi:rx="34"
       sodipodi:ry="34"
       sodipodi:start="1.4106603"
       sodipodi:end="0.57299907"
       sodipodi:arc-type="arc"
       d="M 45.780794,73.827453 A 34,34 0 0 1 8.6547665,52.543164 34,34 0 0 1 21.755994,11.803493 a 34,34 0 0 1 42.573204,4.345711 34,34 0 0 1 4.59969,42.546513"
       sodipodi:open="true" />
    <path
       id="circle19"
       style="display:inline;fill:url(#linearGradient22);stroke:none;stroke-width:6;stroke-opacity:1;paint-order:markers fill stroke;stroke-dasharray:none"
       inkscape:label="circle"
       d="m 35.50237,79.915295 c 3.627794,-7.179794 9.601636,-13.405831 16.983083,-17.700047 7.409626,-4.24541 15.788451,-6.305893 23.820232,-5.857758 0,0 -13.402659,8.297753 -20.203212,12.224054 C 49.30192,72.507845 35.50237,79.915295 35.50237,79.915295 Z"
       sodipodi:nodetypes="ccczc" />
  </g>
  <g
     inkscape:groupmode="layer"
     id="layer1"
     inkscape:label="rect"
     style="display:inline" />
  <g
     inkscape:groupmode="layer"
     id="layer3"
     inkscape:label="text"
     style="display:inline">
    <path
       d="m 18.014904,60.492221 q -0.740403,-0.676129 -0.780417,-1.391588 -0.04001,-0.715458 0.722429,-1.550381 l 2.560658,-2.80408 1.181494,1.078929 -2.287329,2.504768 q -0.45315,0.496227 -0.481948,0.859946 -0.03599,0.371596 0.294828,0.673696 0.456844,0.417186 0.955176,0.25112 0.491139,-0.15819 1.052182,-0.772567 l 1.963651,-2.15032 1.18937,1.086122 -2.287328,2.504768 q -0.294908,0.322941 -0.411032,0.592469 -0.116125,0.269529 -0.06066,0.49352 0.04827,0.231867 0.268818,0.433267 0.322942,0.294907 0.663031,0.302127 0.332212,2.6e-5 0.698693,-0.24311 0.358604,-0.25033 0.77579,-0.707174 l 1.841371,-2.016417 1.189371,1.086121 -3.9273,4.30064 -0.913689,-0.834372 0.330214,-0.709607 -0.03938,-0.03596 q -0.305848,0.08183 -0.616482,0.05817 -0.31851,-0.03085 -0.627421,-0.182939 -0.316105,-0.144212 -0.615416,-0.417541 -0.480475,-0.438764 -0.64449,-0.891887 -0.171892,-0.460317 -0.06534,-0.940818 l -0.03938,-0.03596 q -0.507576,0.128735 -0.990128,-0.02303 -0.489745,-0.143883 -0.89933,-0.517912 z m -4.65521,-6.789401 q -0.508613,-0.973853 -0.311976,-1.726378 0.187183,-0.747587 1.085397,-1.216696 l 3.441576,-1.797428 0.518489,0.992762 -0.556459,0.639603 0.01975,0.03782 q 0.387766,0.07426 0.690858,0.21681 0.298155,0.133096 0.531809,0.396148 0.24311,0.258114 0.470258,0.693039 0.237023,0.453834 0.254479,0.902003 0.008,0.453107 -0.242649,0.848758 -0.25065,0.395651 -0.799033,0.682055 -0.813119,0.424667 -1.525835,0.0508 -0.712715,-0.373869 -1.367362,-1.512129 l -0.477722,-0.845581 -0.160733,0.08395 q -0.463289,0.241962 -0.534296,0.543791 -0.08046,0.306767 0.117058,0.684962 0.182706,0.349831 0.488746,0.659315 0.30604,0.309485 0.654417,0.584824 L 14.899886,55.54587 Q 14.479545,55.247946 14.085042,54.792121 13.685601,54.326842 13.359694,53.70282 Z m 2.873441,-1.548845 q 0.369507,0.661421 0.706323,0.82246 0.336816,0.161039 0.696102,-0.02661 0.330921,-0.17283 0.397832,-0.436418 0.05252,-0.268106 -0.110436,-0.580117 -0.232085,-0.444379 -0.654837,-0.608671 -0.427691,-0.173748 -0.919345,0.08303 l -0.425469,0.222209 z m -5.664254,-6.335118 q -0.03944,-0.155063 -0.06347,-0.33606 -0.03699,-0.188704 -0.03228,-0.299968 l 1.497031,-0.2157 q 0.0082,0.118971 0.02702,0.279293 0.01877,0.160322 0.07399,0.377409 0.06048,0.237763 0.19595,0.467456 0.132842,0.219356 0.350833,0.384034 0.21799,0.164678 0.51832,0.22036 0.300329,0.05568 0.71383,-0.0495 l 2.86349,-0.728379 0.397058,1.560964 -5.64428,1.435721 -0.302395,-1.188813 0.893201,-0.469342 -0.01841,-0.07236 q -0.34186,-0.08914 -0.642731,-0.276765 -0.300872,-0.187622 -0.514145,-0.463563 -0.223611,-0.273312 -0.313015,-0.624787 z m 0.937441,-4.585689 q 0.330643,-0.004 0.661677,0.02393 0.320237,0.01743 0.651271,0.04539 l -2.6e-4,-0.02133 q -0.150625,-0.104837 -0.301249,-0.209673 -0.150755,-0.115503 -0.301509,-0.231005 -0.150755,-0.115503 -0.290974,-0.241801 l -1.790457,-1.610275 -0.02187,-1.791872 2.556068,2.28365 3.265825,-2.493383 0.02239,1.834536 -2.336728,1.703316 0.552293,0.675979 1.813204,-0.02213 0.0194,1.58922 -8.1060887,0.09893 -0.019396,-1.58922 z m -0.451841,-8.953382 q 0.206822,-0.783842 0.655594,-1.272178 0.438458,-0.491056 1.094946,-0.637759 0.648894,-0.159737 1.473992,0.05797 l 0.752901,0.198659 -0.955192,3.620115 q 0.644893,0.148096 1.114155,-0.12523 0.458949,-0.276046 0.641279,-0.967065 0.138789,-0.526 0.149948,-0.98639 0.01116,-0.460389 -0.07538,-0.96862 l 1.16545,0.307512 q 0.09742,0.466976 0.06778,0.955585 -0.0166,0.481017 -0.196211,1.161723 -0.220429,0.835411 -0.701286,1.403535 -0.478135,0.55781 -1.215554,0.76038 -0.747732,0.199849 -1.717222,-0.05596 -0.990117,-0.26125 -1.552798,-0.762734 -0.570273,-0.514518 -0.742474,-1.199797 -0.16948,-0.695593 0.04006,-1.489749 z m 1.114453,0.249929 q -0.12246,0.464118 0.10044,0.831821 0.212586,0.364982 0.776547,0.568946 l 0.560598,-2.124626 q -0.340353,-0.0898 -0.628131,-0.04439 -0.287777,0.04542 -0.505074,0.241812 -0.214575,0.186082 -0.30438,0.526434 z m 6.022843,-5.172598 q 0.124762,-0.235682 0.192408,-0.477462 0.06765,-0.241779 0.116435,-0.49354 l 1.046427,0.553946 q -0.0255,0.276159 -0.139166,0.650474 -0.09925,0.369879 -0.308851,0.765824 -0.244535,0.461936 -0.590001,0.749751 -0.340475,0.278389 -0.82292,0.300586 -0.486882,0.0078 -1.146791,-0.341555 l -2.479371,-1.312503 -0.354326,0.669336 -0.593918,-0.314401 -0.06214,-1.022562 -0.869544,-0.97928 0.474098,-0.89559 1.093563,0.578898 0.763547,-1.442372 1.055854,0.558936 -0.763547,1.442372 2.479371,1.312503 q 0.292246,0.154705 0.532911,0.06486 0.231238,-0.09483 0.375963,-0.368224 z m 2.024498,-9.918373 q 0.114046,-0.112222 0.25826,-0.224201 0.144336,-0.127064 0.242811,-0.179069 l 0.940842,1.184249 q -0.0986,0.06709 -0.227604,0.164106 -0.129009,0.09702 -0.288672,0.254127 -0.17487,0.172074 -0.304972,0.40485 -0.1225,0.225296 -0.154857,0.496573 -0.03236,0.271278 0.07093,0.558735 0.103282,0.287456 0.402541,0.591577 l 2.072369,2.106039 -1.148058,1.129703 -4.084884,-4.151254 0.874348,-0.860369 0.855562,0.534886 0.05322,-0.05237 q -0.09531,-0.340192 -0.08491,-0.694617 0.0104,-0.354425 0.14123,-0.677708 0.12335,-0.330887 0.381853,-0.585257 z m 4.193494,-3.019783 q 0.691113,-0.423731 1.352947,-0.466663 0.656259,-0.05203 1.232196,0.295528 0.579454,0.332885 1.025486,1.060373 l 0.407005,0.663832 -3.191851,1.956965 q 0.363862,0.552652 0.891946,0.679307 0.522508,0.117561 1.131779,-0.25599 0.463773,-0.284346 0.78995,-0.609449 0.326176,-0.325102 0.614787,-0.752292 l 0.63002,1.027576 q -0.252236,0.404888 -0.611269,0.737623 -0.344364,0.336254 -0.944541,0.70423 -0.736581,0.451608 -1.476739,0.53005 -0.731065,0.07287 -1.404109,-0.290221 -0.67862,-0.372182 -1.202707,-1.22698 -0.535239,-0.872984 -0.595494,-1.624294 -0.05674,-0.765978 0.292279,-1.380346 0.358109,-0.619943 1.058315,-1.049249 z m 0.632942,0.950713 q -0.409211,0.250893 -0.502145,0.670718 -0.09851,0.410732 0.168245,0.94785 l 1.87328,-1.148533 Q 26.398103,15.539621 26.158688,15.373611 25.919274,15.2076 25.62649,15.19943 25.3428,15.185685 25.042711,15.369674 Z m 9.327258,-0.589164 q 0.167104,0.528899 0.03815,1.005911 -0.121993,0.463627 -0.563065,0.837897 -0.441073,0.37427 -1.224249,0.621711 -0.589925,0.186384 -1.063163,0.24641 -0.470024,0.0702 -0.94167,0.02904 l -0.401691,-1.271391 q 0.515014,0.0722 1.072304,0.03036 0.557289,-0.04184 0.933621,-0.160737 0.467871,-0.147822 0.629518,-0.344317 0.171818,-0.199709 0.10112,-0.423473 -0.0482,-0.152567 -0.198647,-0.239272 -0.140274,-0.08992 -0.45667,-0.135378 -0.306225,-0.04867 -0.865667,-0.08446 -0.562655,-0.04596 -0.965786,-0.153508 -0.406345,-0.117718 -0.67566,-0.368222 -0.259144,-0.253717 -0.403752,-0.711418 -0.241014,-0.762834 0.233755,-1.349106 0.481726,-0.599656 1.478496,-0.914581 0.53907,-0.170317 1.032119,-0.203043 0.503221,-0.03594 1.045534,0.01645 l -0.116537,1.189021 q -0.441132,-0.0508 -0.883326,-0.03414 -0.442194,0.01666 -0.757499,0.116278 -0.345818,0.10926 -0.50372,0.282199 -0.161117,0.162768 -0.10006,0.356019 0.04499,0.142396 0.18205,0.222143 0.147231,0.07653 0.450242,0.115036 0.313183,0.03529 0.862454,0.07429 0.559442,0.03579 0.965787,0.153508 0.413302,0.104333 0.675659,0.368222 0.269315,0.250504 0.42035,0.728546 z m 3.85264,-4.685119 q 0.80911,-0.05026 1.413828,0.222109 0.604056,0.261722 0.949828,0.838731 0.355756,0.565701 0.40866,1.417395 l 0.04827,0.777172 -3.73681,0.232114 q 0.06229,0.658741 0.469362,1.018197 0.406407,0.34881 1.119702,0.304503 0.542955,-0.03373 0.983482,-0.167962 0.440526,-0.134237 0.895732,-0.376257 l 0.07473,1.203018 q -0.412622,0.239376 -0.885748,0.36495 -0.461819,0.135558 -1.164467,0.179204 -0.862341,0.05357 -1.552889,-0.224159 -0.679902,-0.278385 -1.104165,-0.914642 -0.424924,-0.646903 -0.487086,-1.647644 -0.06348,-1.022033 0.235532,-1.713904 0.309001,-0.703179 0.905318,-1.082212 0.606963,-0.379694 1.426719,-0.430613 z m 0.113344,1.136496 q -0.479079,0.02976 -0.757994,0.357014 -0.279577,0.316609 -0.295775,0.916102 l 2.193113,-0.136227 q -0.02182,-0.351324 -0.155463,-0.610204 -0.13364,-0.258881 -0.388422,-0.403364 -0.244135,-0.145144 -0.595459,-0.123321 z m 7.900688,-0.533381 q 1.076003,0.222021 1.5345,0.850306 0.460651,0.617838 0.255874,1.610268 l -0.78462,3.802574 -1.096896,-0.226333 -0.143442,-0.835562 -0.04179,-0.0086 q -0.302784,0.253375 -0.604905,0.397972 -0.291674,0.146753 -0.643211,0.161348 -0.353692,0.02504 -0.834237,-0.07411 -0.501439,-0.103466 -0.859611,-0.373417 -0.356016,-0.280396 -0.503931,-0.72479 -0.147915,-0.444395 -0.02289,-1.050299 0.185377,-0.89841 0.925757,-1.213971 0.740379,-0.315562 2.036093,-0.102662 l 0.95711,0.164815 0.03664,-0.177593 q 0.105622,-0.511885 -0.08325,-0.757793 -0.186715,-0.256355 -0.60458,-0.342576 -0.386526,-0.07976 -0.819811,-0.03846 -0.433285,0.04129 -0.866902,0.136975 l -0.23763,-1.170847 q 0.496627,-0.137137 1.099214,-0.154388 0.613034,-0.0151 1.302511,0.127171 z m -0.617811,3.205291 q -0.746022,-0.132151 -1.083794,0.02687 -0.337772,0.159024 -0.419683,0.555996 -0.07545,0.365632 0.0864,0.58418 0.174444,0.210257 0.519183,0.281391 0.490991,0.10131 0.885639,-0.122218 0.405094,-0.221372 0.517183,-0.764597 l 0.097,-0.470099 z m 8.468784,-0.398048 q 0.14535,0.06688 0.301163,0.162064 0.169962,0.08995 0.253486,0.163609 l -0.774051,1.299413 q -0.09767,-0.06843 -0.234105,-0.15469 -0.136433,-0.08626 -0.339924,-0.1799 -0.222871,-0.102554 -0.486645,-0.141736 -0.254083,-0.03472 -0.519226,0.03114 -0.265142,0.06586 -0.497353,0.264298 -0.232212,0.198435 -0.410566,0.586037 l -1.235106,2.684142 -1.463197,-0.673289 2.434541,-5.290765 1.114355,0.51277 -0.197034,0.989579 0.06783,0.03121 q 0.284348,-0.209669 0.619463,-0.325528 0.335115,-0.115858 0.683782,-0.108062 0.353125,-0.0019 0.682587,0.149706 z m 0.662019,7.654646 q -0.675599,-0.503644 -1.003831,-1.134163 -0.313304,-0.632696 -0.200252,-1.373296 0.119428,-0.749152 0.731451,-1.570133 0.643899,-0.863741 1.353407,-1.173002 0.709509,-0.30926 1.424608,-0.162 0.721474,0.138708 1.397073,0.642352 0.410491,0.306012 0.705918,0.659291 0.303979,0.359654 0.477812,0.715419 l -1.111612,0.688029 q -0.173679,-0.302431 -0.387785,-0.568479 -0.19918,-0.268224 -0.455737,-0.459481 -0.333523,-0.248635 -0.679179,-0.266832 -0.345655,-0.0182 -0.701265,0.208969 -0.349235,0.218615 -0.699874,0.688969 -0.344263,0.461802 -0.44767,0.850371 -0.103406,0.38857 0.01274,0.714635 0.122522,0.317514 0.438942,0.553398 0.367731,0.274135 0.762831,0.422323 0.401474,0.139637 0.813368,0.193909 l -0.784154,1.051882 q -0.386238,-0.03515 -0.78989,-0.18971 -0.403651,-0.154563 -0.856901,-0.492451 z m 8.461858,-0.977441 q -0.367476,0.291953 -0.671341,0.492497 -0.288877,0.202261 -0.469183,0.318264 l 0.05308,0.06681 q 0.361635,-0.04209 0.662862,0.04555 0.301226,0.08764 0.560463,0.276759 0.274225,0.190835 0.493189,0.466442 0.391482,0.492752 0.508049,0.999569 0.116566,0.506817 -0.09166,0.999212 -0.193242,0.494111 -0.786215,0.965216 l -2.973215,2.362164 -1.00193,-1.261111 2.655851,-2.110023 q 0.492752,-0.391482 0.595611,-0.759292 0.11121,-0.374445 -0.187378,-0.750273 -0.291953,-0.367476 -0.639856,-0.44528 -0.341269,-0.06945 -0.748326,0.104091 -0.407058,0.173542 -0.891458,0.558389 l -2.138043,1.698635 -1.001929,-1.261111 6.347315,-5.042822 1.001929,1.261111 z m 4.474828,8.375335 q 0.311621,0.748383 0.251569,1.408884 -0.05021,0.6564 -0.482737,1.171583 -0.418585,0.520929 -1.206356,0.848951 l -0.718842,0.29932 -1.439196,-3.456347 q -0.602323,0.273911 -0.80921,0.776018 -0.19704,0.498007 0.07768,1.157766 0.209114,0.502204 0.479797,0.874781 0.270683,0.372578 0.648038,0.723847 l -1.112727,0.463331 q -0.360954,-0.311881 -0.63409,-0.7181 -0.278884,-0.392271 -0.549502,-1.042183 -0.332122,-0.797618 -0.295025,-1.540997 0.0412,-0.733531 0.50411,-1.342245 0.47276,-0.612815 1.398392,-0.99824 0.945326,-0.393627 1.696904,-0.336836 0.765527,0.06254 1.318451,0.502464 0.557025,0.449773 0.872746,1.208003 z m -1.037243,0.478118 q -0.184512,-0.443122 -0.584887,-0.599934 -0.390528,-0.160912 -0.96247,0.01947 l 0.844657,2.028511 q 0.324956,-0.135309 0.526031,-0.346134 0.201076,-0.210826 0.254477,-0.498814 0.0575,-0.278141 -0.07781,-0.603097 z m 3.173982,7.702405 q 0.02593,0.157884 0.03428,0.340278 0.0206,0.191191 0.0063,0.301634 l -1.51005,0.0859 q 0.002,-0.11924 -0.0029,-0.280583 -0.0049,-0.161342 -0.04119,-0.382381 -0.03977,-0.24209 -0.154942,-0.482602 -0.113446,-0.229987 -0.316436,-0.412836 -0.20299,-0.182849 -0.497404,-0.264204 -0.294414,-0.08135 -0.71544,-0.01219 l -2.915603,0.478927 -0.261076,-1.589371 5.747,-0.944024 0.198833,1.210448 -0.930321,0.390631 0.0121,0.07368 q 0.332908,0.11827 0.616493,0.331119 0.283585,0.212849 0.472288,0.506141 0.199229,0.291564 0.258014,0.649436 z"
       id="text1"
       style="font-weight:bold;font-size:10.6667px;font-family:Sans;-inkscape-font-specification:'Sans Bold';fill:#000080;stroke-width:0.75;stroke-linecap:square;paint-order:stroke fill markers"
       aria-label="market researcher" />
    <circle
       style="display:none;fill:none;fill-opacity:1;stroke:#92079f;stroke-width:0.739426;stroke-opacity:1;paint-order:markers fill stroke"
       id="path3"
       cx="14.641016"
       cy="-54.641018"
       r="24.026592"
       transform="rotate(120)" />
  </g>
  <g
     inkscape:groupmode="layer"
     id="layer6"
     inkscape:label="magnifying">
    <circle
       style="fill:#cebff4;fill-opacity:1;stroke:#008080;stroke-width:6;stroke-linecap:square;stroke-dasharray:none;stroke-opacity:1;paint-order:stroke fill markers"
       id="path1"
       cx="-37.230541"
       cy="37.236191"
       r="9.4058228"
       transform="rotate(-90)" />
    <path
       style="fill:#008080;fill-opacity:1;stroke:none;stroke-width:0.612752;stroke-linecap:square;stroke-dasharray:none;paint-order:stroke fill markers"
       d="m 43.938783,47.560479 2.589758,-3.101426 10.506008,8.561468 -4.082684,4.295057 z"
       id="path5"
       sodipodi:nodetypes="ccccc" />
  </g>
  <metadata
     id="metadata1">
    <rdf:RDF>
      <cc:Work
         rdf:about="">
        <dc:title>helping hand sticker</dc:title>
        <dc:contributor>
          <cc:Agent>
            <dc:title>Danish Khatri </dc:title>
          </cc:Agent>
        </dc:contributor>
        <cc:license
           rdf:resource="http://creativecommons.org/publicdomain/zero/1.0/" />
      </cc:Work>
      <cc:License
         rdf:about="http://creativecommons.org/publicdomain/zero/1.0/">
        <cc:permits
           rdf:resource="http://creativecommons.org/ns#Reproduction" />
        <cc:permits
           rdf:resource="http://creativecommons.org/ns#Distribution" />
        <cc:permits
           rdf:resource="http://creativecommons.org/ns#DerivativeWorks" />
      </cc:License>
    </rdf:RDF>
  </metadata>
</svg>
