<?xml version="1.0" encoding="UTF-8" standalone="no"?>
<!-- Created with Inkscape (http://www.inkscape.org/) -->

<svg
   version="1.1"
   id="svg1"
   width="80"
   height="80"
   viewBox="0 0 80 80"
   sodipodi:docname="mw.svg"
   inkscape:version="1.4 (86a8ad7, 2024-10-11)"
   xmlns:inkscape="http://www.inkscape.org/namespaces/inkscape"
   xmlns:sodipodi="http://sodipodi.sourceforge.net/DTD/sodipodi-0.dtd"
   xmlns:xlink="http://www.w3.org/1999/xlink"
   xmlns="http://www.w3.org/2000/svg"
   xmlns:svg="http://www.w3.org/2000/svg"
   xmlns:rdf="http://www.w3.org/1999/02/22-rdf-syntax-ns#"
   xmlns:cc="http://creativecommons.org/ns#"
   xmlns:dc="http://purl.org/dc/elements/1.1/">
  <title
     id="title1">helping hand sticker</title>
  <defs
     id="defs1">
    <inkscape:path-effect
       effect="bspline"
       id="path-effect24"
       is_visible="true"
       lpeversion="1.3"
       weight="33.333333"
       steps="2"
       helper_size="0"
       apply_no_weight="true"
       apply_with_weight="true"
       only_selected="false"
       uniform="false" />
    <linearGradient
       id="linearGradient21"
       inkscape:collect="always">
      <stop
         style="stop-color:#bfbfbf;stop-opacity:1;"
         offset="0"
         id="stop21" />
      <stop
         style="stop-color:#ffffff;stop-opacity:1;"
         offset="0.13513535"
         id="stop23" />
      <stop
         style="stop-color:#dfdfdf;stop-opacity:1;"
         offset="0.2256761"
         id="stop24" />
      <stop
         style="stop-color:#b4b4b4;stop-opacity:1;"
         offset="1"
         id="stop22" />
    </linearGradient>
    <linearGradient
       id="swatch19"
       inkscape:swatch="solid">
      <stop
         style="stop-color:#d999d9;stop-opacity:1;"
         offset="0"
         id="stop19" />
    </linearGradient>
    <clipPath
       clipPathUnits="userSpaceOnUse"
       id="clipPath54">
      <path
         id="path54"
         style="stroke-width:0.0999999;stroke-linecap:square;paint-order:markers fill stroke;stop-color:#000000"
         d="m 1691.1994,-792.32001 h 1634.8919 v 92.82806 H 1691.1994 Z" />
    </clipPath>
    <inkscape:path-effect
       effect="bspline"
       id="path-effect5"
       is_visible="true"
       lpeversion="1.3"
       weight="33.333333"
       steps="2"
       helper_size="0"
       apply_no_weight="true"
       apply_with_weight="true"
       only_selected="false"
       uniform="false" />
    <inkscape:path-effect
       effect="bspline"
       id="path-effect2"
       is_visible="true"
       lpeversion="1.3"
       weight="33.333333"
       steps="2"
       helper_size="0"
       apply_no_weight="true"
       apply_with_weight="true"
       only_selected="false"
       uniform="false" />
    <inkscape:path-effect
       effect="bspline"
       id="path-effect1"
       is_visible="true"
       lpeversion="1.3"
       weight="33.333333"
       steps="2"
       helper_size="0"
       apply_no_weight="true"
       apply_with_weight="true"
       only_selected="false"
       uniform="false" />
    <inkscape:path-effect
       effect="bspline"
       id="path-effect2-4"
       is_visible="true"
       lpeversion="1.3"
       weight="33.333333"
       steps="2"
       helper_size="0"
       apply_no_weight="true"
       apply_with_weight="true"
       only_selected="false"
       uniform="false" />
    <linearGradient
       inkscape:collect="always"
       xlink:href="#linearGradient21"
       id="linearGradient22"
       x1="40.138695"
       y1="68.618027"
       x2="40.138695"
       y2="76.799126"
       gradientUnits="userSpaceOnUse"
       gradientTransform="matrix(0.90611104,-0.52314345,-0.43845445,-0.75942539,49.926641,141.48622)" />
    <filter
       inkscape:collect="always"
       style="color-interpolation-filters:sRGB"
       id="filter1"
       x="-0.11604382"
       y="-0.20048089"
       width="1.2320876"
       height="1.4009618">
      <feGaussianBlur
         inkscape:collect="always"
         stdDeviation="1.9729052"
         id="feGaussianBlur1" />
    </filter>
  </defs>
  <sodipodi:namedview
     id="namedview1"
     pagecolor="#505050"
     bordercolor="#eeeeee"
     borderopacity="1"
     inkscape:showpageshadow="0"
     inkscape:pageopacity="0"
     inkscape:pagecheckerboard="0"
     inkscape:deskcolor="#505050"
     inkscape:zoom="10.31492"
     inkscape:cx="38.487938"
     inkscape:cy="43.916967"
     inkscape:window-width="1720"
     inkscape:window-height="1392"
     inkscape:window-x="3624"
     inkscape:window-y="0"
     inkscape:window-maximized="0"
     inkscape:current-layer="g1"
     showgrid="false" />
  <g
     inkscape:groupmode="layer"
     id="layer5"
     inkscape:label="shadow"
     transform="translate(5.232603,-23.562244)"
     style="display:inline">
    <path
       id="path1-7"
       style="display:inline;fill:#131313;fill-opacity:1;stroke:none;stroke-width:6.07775;stroke-opacity:1;paint-order:markers fill stroke;filter:url(#filter1)"
       inkscape:label="peel_shadow"
       d="m 30.26937,103.47729 c 3.627794,-7.179789 9.601636,-13.405826 16.983083,-17.700042 7.409626,-4.24541 15.788451,-6.305893 23.820232,-5.857758 0,0 -13.402659,8.297753 -20.203212,12.224054 C 44.06892,96.069845 30.26937,103.47729 30.26937,103.47729 Z"
       sodipodi:nodetypes="ccczc" />
  </g>
  <g
     inkscape:groupmode="layer"
     inkscape:label="badge"
     id="g1"
     style="display:inline">
    <path
       id="path2"
       style="display:inline;fill:#131313;fill-opacity:1;stroke:#92079f;stroke-width:6.34512;stroke-linecap:square;stroke-linejoin:miter;stroke-opacity:1;paint-order:fill markers stroke"
       inkscape:label="circle"
       d="M 21.610094,8.2577428 C 3.9951496,18.4273 -2.0401459,40.95133 8.1300647,58.565897 13.843762,68.392994 23.775435,75.030769 35.040678,76.551447 L 74.038885,54.035822 C 78.354561,43.519496 77.571915,31.599527 71.918248,21.737772 61.748691,4.1228278 39.224661,-1.9124677 21.610094,8.2577428 Z"
       sodipodi:nodetypes="cccccc" />
    <path
       style="display:inline;fill:#d8d8d8;fill-opacity:1;stroke-width:1.10334;stroke-linecap:square;stroke-linejoin:miter;paint-order:stroke fill markers"
       id="path4"
       sodipodi:type="arc"
       sodipodi:cx="40"
       sodipodi:cy="40"
       sodipodi:rx="33.640591"
       sodipodi:ry="33.737537"
       sodipodi:start="1.4106603"
       sodipodi:end="0.57299907"
       sodipodi:arc-type="arc"
       d="M 45.364076,73.305886 A 33.640591,33.737537 0 0 1 8.6305026,52.1859 33.640591,33.737537 0 0 1 21.593239,11.760719 a 33.640591,33.737537 0 0 1 42.123168,4.312165 33.640591,33.737537 0 0 1 4.551068,42.218075"
       sodipodi:open="true" />
    <path
       id="circle19"
       style="display:inline;fill:url(#linearGradient22);stroke:none;stroke-width:6.07775;stroke-opacity:1;paint-order:markers fill stroke"
       inkscape:label="circle"
       d="m 35.50237,79.915295 c 3.627794,-7.179794 9.601636,-13.405831 16.983083,-17.700047 7.409626,-4.24541 15.788451,-6.305893 23.820232,-5.857758 0,0 -13.402659,8.297753 -20.203212,12.224054 C 49.30192,72.507845 35.50237,79.915295 35.50237,79.915295 Z"
       sodipodi:nodetypes="ccczc" />
  </g>
  <g
     inkscape:groupmode="layer"
     id="layer1"
     inkscape:label="rect"
     style="display:inline" />
  <g
     inkscape:groupmode="layer"
     id="layer3"
     inkscape:label="text"
     style="display:inline">
    <circle
       style="display:none;fill:none;fill-opacity:1;stroke:#92079f;stroke-width:0.739426;stroke-opacity:1;paint-order:markers fill stroke"
       id="path3"
       cx="14.641016"
       cy="-54.641018"
       r="24.026592"
       transform="rotate(120)" />
    <path
       d="m 18.014904,60.492221 q -0.740403,-0.676129 -0.780417,-1.391588 -0.04001,-0.715458 0.722429,-1.550381 l 2.560658,-2.80408 1.181494,1.078929 -2.287329,2.504768 q -0.45315,0.496227 -0.481948,0.859946 -0.03599,0.371596 0.294828,0.673696 0.456844,0.417186 0.955176,0.25112 0.491139,-0.15819 1.052182,-0.772567 l 1.963651,-2.15032 1.18937,1.086122 -2.287328,2.504768 q -0.294908,0.322941 -0.411032,0.592469 -0.116125,0.269529 -0.06066,0.49352 0.04827,0.231867 0.268818,0.433267 0.322942,0.294907 0.663031,0.302127 0.332212,2.6e-5 0.698693,-0.24311 0.358604,-0.25033 0.77579,-0.707174 l 1.841371,-2.016417 1.189371,1.086121 -3.9273,4.30064 -0.913689,-0.834372 0.330214,-0.709607 -0.03938,-0.03596 q -0.305848,0.08183 -0.616482,0.05817 -0.31851,-0.03085 -0.627421,-0.182939 -0.316105,-0.144212 -0.615416,-0.417541 -0.480475,-0.438764 -0.64449,-0.891887 -0.171892,-0.460317 -0.06534,-0.940818 l -0.03938,-0.03596 q -0.507576,0.128735 -0.990128,-0.02303 -0.489745,-0.143883 -0.89933,-0.517912 z m -4.65521,-6.789401 q -0.508613,-0.973853 -0.311976,-1.726378 0.187183,-0.747587 1.085397,-1.216696 l 3.441576,-1.797428 0.518489,0.992762 -0.556459,0.639603 0.01975,0.03782 q 0.387766,0.07426 0.690858,0.21681 0.298155,0.133096 0.531809,0.396148 0.24311,0.258114 0.470258,0.693039 0.237023,0.453834 0.254479,0.902003 0.008,0.453107 -0.242649,0.848758 -0.25065,0.395651 -0.799033,0.682055 -0.813119,0.424667 -1.525835,0.0508 -0.712715,-0.373869 -1.367362,-1.512129 l -0.477722,-0.845581 -0.160733,0.08395 q -0.463289,0.241962 -0.534296,0.543791 -0.08046,0.306767 0.117058,0.684962 0.182706,0.349831 0.488746,0.659315 0.30604,0.309485 0.654417,0.584824 L 14.899886,55.54587 Q 14.479545,55.247946 14.085042,54.792121 13.685601,54.326842 13.359694,53.70282 Z m 2.873441,-1.548845 q 0.369507,0.661421 0.706323,0.82246 0.336816,0.161039 0.696102,-0.02661 0.330921,-0.17283 0.397832,-0.436418 0.05252,-0.268106 -0.110436,-0.580117 -0.232085,-0.444379 -0.654837,-0.608671 -0.427691,-0.173748 -0.919345,0.08303 l -0.425469,0.222209 z m -5.664254,-6.335118 q -0.03944,-0.155063 -0.06347,-0.33606 -0.03699,-0.188704 -0.03228,-0.299968 l 1.497031,-0.2157 q 0.0082,0.118971 0.02702,0.279293 0.01877,0.160322 0.07399,0.377409 0.06048,0.237763 0.19595,0.467456 0.132842,0.219356 0.350833,0.384034 0.21799,0.164678 0.51832,0.22036 0.300329,0.05568 0.71383,-0.0495 l 2.86349,-0.728379 0.397058,1.560964 -5.64428,1.435721 -0.302395,-1.188813 0.893201,-0.469342 -0.01841,-0.07236 q -0.34186,-0.08914 -0.642731,-0.276765 -0.300872,-0.187622 -0.514145,-0.463563 -0.223611,-0.273312 -0.313015,-0.624787 z m 0.937441,-4.585689 q 0.330643,-0.004 0.661677,0.02393 0.320237,0.01743 0.651271,0.04539 l -2.6e-4,-0.02133 q -0.150625,-0.104837 -0.301249,-0.209673 -0.150755,-0.115503 -0.301509,-0.231005 -0.150755,-0.115503 -0.290974,-0.241801 l -1.790457,-1.610275 -0.02187,-1.791872 2.556068,2.28365 3.265825,-2.493383 0.02239,1.834536 -2.336728,1.703316 0.552293,0.675979 1.813204,-0.02213 0.0194,1.58922 -8.1060887,0.09893 -0.019396,-1.58922 z m -0.451841,-8.953382 q 0.206822,-0.783842 0.655594,-1.272178 0.438458,-0.491056 1.094946,-0.637759 0.648894,-0.159737 1.473992,0.05797 l 0.752901,0.198659 -0.955192,3.620115 q 0.644893,0.148096 1.114155,-0.12523 0.458949,-0.276046 0.641279,-0.967065 0.138789,-0.526 0.149948,-0.98639 0.01116,-0.460389 -0.07538,-0.96862 l 1.16545,0.307512 q 0.09742,0.466976 0.06778,0.955585 -0.0166,0.481017 -0.196211,1.161723 -0.220429,0.835411 -0.701286,1.403535 -0.478135,0.55781 -1.215554,0.76038 -0.747732,0.199849 -1.717222,-0.05596 -0.990117,-0.26125 -1.552798,-0.762734 -0.570273,-0.514518 -0.742474,-1.199797 -0.16948,-0.695593 0.04006,-1.489749 z m 1.114453,0.249929 q -0.12246,0.464118 0.10044,0.831821 0.212586,0.364982 0.776547,0.568946 l 0.560598,-2.124626 q -0.340353,-0.0898 -0.628131,-0.04439 -0.287777,0.04542 -0.505074,0.241812 -0.214575,0.186082 -0.30438,0.526434 z m 6.022843,-5.172598 q 0.124762,-0.235682 0.192408,-0.477462 0.06765,-0.241779 0.116435,-0.49354 l 1.046427,0.553946 q -0.0255,0.276159 -0.139166,0.650474 -0.09925,0.369879 -0.308851,0.765824 -0.244535,0.461936 -0.590001,0.749751 -0.340475,0.278389 -0.82292,0.300586 -0.486882,0.0078 -1.146791,-0.341555 l -2.479371,-1.312503 -0.354326,0.669336 -0.593918,-0.314401 -0.06214,-1.022562 -0.869544,-0.97928 0.474098,-0.89559 1.093563,0.578898 0.763547,-1.442372 1.055854,0.558936 -0.763547,1.442372 2.479371,1.312503 q 0.292246,0.154705 0.532911,0.06486 0.231238,-0.09483 0.375963,-0.368224 z m -1.475537,-6.054013 4.63783,3.522744 -0.974239,1.282623 -4.63783,-3.522744 z m -2.310146,-0.750096 q 0.212913,-0.280309 0.503666,-0.380939 0.288711,-0.115576 0.653961,0.161856 0.348262,0.264529 0.322872,0.580114 -0.01894,0.307091 -0.231852,0.5874 -0.219365,0.288802 -0.510118,0.389432 -0.290753,0.100631 -0.639015,-0.163898 -0.36525,-0.277432 -0.337817,-0.578071 0.01894,-0.307092 0.238303,-0.595894 z m 6.540148,-3.678801 q 0.727706,-0.626138 1.475142,-0.607883 0.747436,0.01826 1.484888,0.875332 l 2.476725,2.878483 -1.212844,1.043564 -2.212355,-2.571229 q -0.410469,-0.477052 -0.790108,-0.558479 -0.378511,-0.09647 -0.742364,0.216599 -0.549823,0.473083 -0.42498,1.027034 0.125971,0.538909 0.731238,1.242359 l 1.781016,2.06992 -1.220929,1.050521 -3.798573,-4.414752 0.937932,-0.807023 0.677666,0.444152 0.04851,-0.04174 q -0.0423,-0.34354 0.03461,-0.663009 0.07804,-0.334511 0.266082,-0.622951 0.189169,-0.303484 0.488337,-0.560896 z m 6.084522,-3.88644 q 0.553686,-0.251193 1.019762,-0.204951 0.461669,0.03653 0.863162,0.276052 l 0.03885,-0.01763 -0.168082,-0.731948 1.243365,-0.564083 2.423791,5.342587 q 0.339331,0.747962 0.277075,1.385286 -0.05785,0.647038 -0.531403,1.178131 -0.463842,0.526686 -1.367225,0.936527 -0.611969,0.277634 -1.132914,0.420269 -0.516538,0.152348 -1.023269,0.171403 l -0.564082,-1.243366 q 0.525259,-0.004 1.030283,-0.104306 0.514738,-0.10468 1.116993,-0.377907 0.611969,-0.277634 0.795011,-0.700355 0.192755,-0.427127 -0.032,-0.922531 l -0.0661,-0.145707 q -0.05288,-0.116565 -0.131307,-0.315248 -0.06871,-0.20309 -0.115386,-0.35761 l -0.04857,0.02203 q -0.06477,0.451055 -0.336941,0.832221 -0.262459,0.376758 -0.806432,0.623544 -0.913096,0.414248 -1.788486,-0.04367 -0.865675,-0.462321 -1.465013,-1.783397 -0.599337,-1.321076 -0.371761,-2.29109 0.227576,-0.970013 1.140673,-1.384261 z m 1.000396,0.940004 q -0.320555,0.145427 -0.469955,0.435755 -0.139687,0.28592 -0.0932,0.698213 0.0562,0.407886 0.298582,0.942145 0.361366,0.796531 0.7902,1.070504 0.438548,0.269565 0.953379,0.036 0.291414,-0.132207 0.455742,-0.312175 0.164327,-0.179969 0.215689,-0.402393 0.04696,-0.232138 -0.01375,-0.520852 -0.05099,-0.293121 -0.214044,-0.652531 l -0.09695,-0.213704 q -0.242379,-0.534258 -0.507879,-0.835479 -0.2655,-0.301221 -0.587669,-0.365897 -0.322169,-0.06468 -0.730148,0.120414 z m 13.094932,0.02554 q -0.03905,-0.182147 -0.117371,-0.535775 -0.06744,-0.36408 -0.155364,-0.771244 -0.08771,-0.417827 -0.16624,-0.760791 -0.07832,-0.353628 -0.107131,-0.514233 l -0.04266,-8.49e-4 q -0.03517,0.159333 -0.12749,0.509568 -0.08144,0.339782 -0.185691,0.753793 -0.10404,0.403345 -0.196568,0.764245 -0.09253,0.360899 -0.139003,0.552014 l -0.509325,2.006276 -1.706335,-0.03393 -1.537216,-5.855739 1.57836,0.03139 0.620546,2.594192 q 0.06935,0.268099 0.11525,0.64242 0.05656,0.374534 0.102889,0.727525 0.04654,0.342328 0.06384,0.545379 l 0.04266,8.49e-4 q 0.01363,-0.149093 0.05051,-0.393742 0.03708,-0.255314 0.08504,-0.52108 0.05863,-0.265555 0.09486,-0.47821 0.04711,-0.223109 0.06993,-0.297337 l 0.770092,-2.779913 1.748993,0.03478 0.626969,2.807696 q 0.03969,0.150152 0.08644,0.481815 0.05741,0.331875 0.09329,0.67399 0.04654,0.342328 0.04251,0.544955 l 0.04266,8.48e-4 q 0.02493,-0.180874 0.08504,-0.52108 0.06032,-0.350871 0.131944,-0.733524 0.08229,-0.382441 0.162242,-0.647571 l 0.744521,-2.567046 1.557031,0.03096 -1.790137,5.789571 -1.727664,-0.03436 z m 7.791907,-2.452025 -1.588784,5.60312 -1.549581,-0.439389 1.588784,-5.60312 z M 48.77396,9.0766883 q 0.33865,0.096025 0.538383,0.330056 0.212906,0.2266784 0.08778,0.6679497 -0.119305,0.420747 -0.422416,0.512195 -0.292848,0.09436 -0.631499,-0.0017 -0.348912,-0.09894 -0.548645,-0.332966 -0.199733,-0.234031 -0.08043,-0.6547781 0.125124,-0.4412714 0.415063,-0.5253666 0.292849,-0.094357 0.641761,0.00458 z m 3.790529,10.3151857 -4.145,-2.01315 0.414746,-0.853947 4.01166,-2.107121 -2.283588,-1.109096 0.535908,-1.103415 3.924317,1.905968 -0.452027,0.930707 -3.902555,2.053387 2.437107,1.183657 z m 6.752571,-2.290008 q 0.844161,0.703185 0.952205,1.473436 0.114872,0.762055 -0.533696,1.54065 l -2.485042,2.983247 -0.860552,-0.716838 0.267525,-0.804469 -0.03278,-0.02731 q -0.386486,0.08065 -0.721093,0.0657 -0.326412,-0.0081 -0.643291,-0.161029 -0.323707,-0.144703 -0.700711,-0.458747 -0.393395,-0.327698 -0.581946,-0.734648 -0.181725,-0.415147 -0.102603,-0.876779 0.07912,-0.461633 0.475089,-0.936986 0.587125,-0.704833 1.388823,-0.633973 0.801698,0.07086 1.843909,0.869606 l 0.766293,0.596673 0.116059,-0.139327 q 0.334525,-0.401591 0.283933,-0.707505 -0.04377,-0.314109 -0.371595,-0.587191 -0.303242,-0.2526 -0.7048,-0.420506 -0.401558,-0.167905 -0.829056,-0.288005 l 0.342573,-1.144551 q 0.502611,0.113257 1.042128,0.382199 0.547712,0.27577 1.088631,0.726354 z m -2.05629,2.535203 q -0.595552,-0.468328 -0.9684,-0.487375 -0.372848,-0.01905 -0.632276,0.292392 -0.238946,0.28685 -0.199287,0.555892 0.05468,0.267672 0.325142,0.492964 0.385199,0.320871 0.83862,0.309856 0.461616,-0.0042 0.816622,-0.430367 l 0.307217,-0.368808 z m 7.655322,3.641849 q 0.09664,0.127519 0.189162,0.284925 0.107466,0.159465 0.146388,0.263805 l -1.295314,0.780892 q -0.05387,-0.106399 -0.133503,-0.246803 -0.07964,-0.140403 -0.214932,-0.318929 -0.148181,-0.195529 -0.362312,-0.35446 -0.207689,-0.15043 -0.472562,-0.217373 -0.264872,-0.06694 -0.563216,-0.0014 -0.298344,0.06549 -0.638393,0.323199 l -2.354843,1.784608 -0.972837,-1.283687 4.641676,-3.517675 0.740902,0.977642 -0.640376,0.779749 0.0451,0.05951 q 0.349618,-0.05082 0.69977,0.005 0.350152,0.05585 0.653946,0.227133 0.312297,0.16484 0.531346,0.453882 z m -3.285689,6.486118 q -0.38568,-0.879123 0.0593,-1.749928 0.459034,-0.865322 1.81679,-1.460984 1.377292,-0.604232 2.319371,-0.341946 0.951848,0.258001 1.35467,1.176196 0.167128,0.380953 0.179669,0.701596 0.0266,0.326127 -0.05924,0.608391 -0.08583,0.282265 -0.246217,0.527348 l 0.02143,0.04884 q 0.162968,-0.10644 0.462689,-0.272875 0.313775,-0.160952 0.577511,-0.276656 l 1.699637,-0.745649 0.651372,1.48474 -7.423701,3.256858 -0.4971,-1.133091 0.56497,-0.5973 -0.02571,-0.05861 q -0.284659,-0.03819 -0.550476,-0.166182 -0.265817,-0.127992 -0.501825,-0.373894 -0.231723,-0.236134 -0.403137,-0.626855 z m 1.409055,-8.21e-4 q 0.265691,0.605618 0.714705,0.699832 0.458782,0.08993 1.171849,-0.222902 L 65.0823,30.17258 q 0.771674,-0.338542 1.079083,-0.752959 0.307409,-0.414417 0.02886,-1.049338 -0.209981,-0.478634 -0.740228,-0.572154 -0.525961,-0.08375 -1.307404,0.259074 -0.781442,0.342827 -1.056459,0.777978 -0.260963,0.440633 -0.0467,0.929034 z"
       id="text1"
       style="font-weight:bold;font-size:10.6667px;font-family:Sans;-inkscape-font-specification:'Sans Bold';fill:#92079f;stroke-width:6;stroke-linecap:square;paint-order:stroke fill markers"
       aria-label="marketing wizard" />
  </g>
  <g
     inkscape:groupmode="layer"
     id="layer2"
     inkscape:label="wand"
     style="display:inline">
    <g
       id="g2"
       transform="matrix(0.5516327,0.43240301,-0.47699563,0.60852118,39.809871,6.9568422)">
      <rect
         style="fill:#ffffff;fill-opacity:1;stroke:#92079f;stroke-width:3;stroke-linecap:round;stroke-linejoin:miter;stroke-dasharray:none;stroke-opacity:1;paint-order:stroke fill markers"
         id="rect1"
         width="3.1989999"
         height="26.272623"
         x="29.471872"
         y="25.497047"
         rx="1.5" />
      <rect
         style="display:inline;fill:#92079f;fill-opacity:1;stroke:#92079f;stroke-width:2.84558;stroke-linecap:round;stroke-linejoin:miter;stroke-dasharray:none;stroke-opacity:1;paint-order:stroke fill markers"
         id="rect1-8"
         width="3.3534162"
         height="22.549162"
         x="29.442612"
         y="34.970188"
         rx="1.5724053" />
    </g>
    <path
       sodipodi:type="star"
       style="fill:#92079f;fill-opacity:1;stroke:#92079f;stroke-width:3;stroke-linecap:round;stroke-linejoin:miter;stroke-dasharray:none;stroke-opacity:1;paint-order:stroke fill markers"
       id="path5"
       inkscape:flatsided="false"
       sodipodi:sides="5"
       sodipodi:cx="40.523823"
       sodipodi:cy="23.170321"
       sodipodi:r1="2.7980576"
       sodipodi:r2="1.4046831"
       sodipodi:arg1="0.24497866"
       sodipodi:arg2="1.026644"
       inkscape:rounded="0"
       inkscape:randomized="0"
       d="m 43.238337,23.848949 -1.98732,0.523171 -0.533777,1.589565 -1.111681,-1.728385 -1.676713,-0.01645 1.300264,-1.591372 -0.502488,-1.599731 1.915288,0.744863 1.366158,-0.972238 -0.11655,2.051722 z"
       transform="translate(8.4343844,6.3984985)" />
    <path
       sodipodi:type="star"
       style="display:inline;fill:#92079f;fill-opacity:1;stroke:#92079f;stroke-width:3;stroke-linecap:round;stroke-linejoin:miter;stroke-dasharray:none;stroke-opacity:1;paint-order:stroke fill markers"
       id="path5-1"
       inkscape:flatsided="false"
       sodipodi:sides="5"
       sodipodi:cx="40.523823"
       sodipodi:cy="23.170321"
       sodipodi:r1="2.7980576"
       sodipodi:r2="1.4046831"
       sodipodi:arg1="0.24497866"
       sodipodi:arg2="1.026644"
       inkscape:rounded="0"
       inkscape:randomized="0"
       d="m 43.238337,23.848949 -1.98732,0.523171 -0.533777,1.589565 -1.111681,-1.728385 -1.676713,-0.01645 1.300264,-1.591372 -0.502488,-1.599731 1.915288,0.744863 1.366158,-0.972238 -0.11655,2.051722 z"
       transform="matrix(0.33336709,0,0,0.33336709,33.197122,38.303597)" />
    <path
       sodipodi:type="star"
       style="display:inline;fill:#92079f;fill-opacity:1;stroke:#92079f;stroke-width:3;stroke-linecap:round;stroke-linejoin:miter;stroke-dasharray:none;stroke-opacity:1;paint-order:stroke fill markers"
       id="path5-2"
       inkscape:flatsided="false"
       sodipodi:sides="5"
       sodipodi:cx="40.523823"
       sodipodi:cy="23.170321"
       sodipodi:r1="2.7980576"
       sodipodi:r2="1.4046831"
       sodipodi:arg1="0.24497866"
       sodipodi:arg2="1.026644"
       inkscape:rounded="0"
       inkscape:randomized="0"
       d="m 43.238337,23.848949 -1.98732,0.523171 -0.533777,1.589565 -1.111681,-1.728385 -1.676713,-0.01645 1.300264,-1.591372 -0.502488,-1.599731 1.915288,0.744863 1.366158,-0.972238 -0.11655,2.051722 z"
       transform="matrix(0.54999727,0,0,0.54999727,31.640457,32.117917)" />
    <path
       sodipodi:type="star"
       style="display:inline;fill:#92079f;fill-opacity:1;stroke:#92079f;stroke-width:3;stroke-linecap:round;stroke-linejoin:miter;stroke-dasharray:none;stroke-opacity:1;paint-order:stroke fill markers"
       id="path5-2-8"
       inkscape:flatsided="false"
       sodipodi:sides="5"
       sodipodi:cx="40.523823"
       sodipodi:cy="23.170321"
       sodipodi:r1="2.7980576"
       sodipodi:r2="1.4046831"
       sodipodi:arg1="0.24497866"
       sodipodi:arg2="1.026644"
       inkscape:rounded="0"
       inkscape:randomized="0"
       d="m 43.238337,23.848949 -1.98732,0.523171 -0.533777,1.589565 -1.111681,-1.728385 -1.676713,-0.01645 1.300264,-1.591372 -0.502488,-1.599731 1.915288,0.744863 1.366158,-0.972238 -0.11655,2.051722 z"
       transform="matrix(0.54999727,0,0,0.54999727,10.924342,22.922125)" />
    <path
       sodipodi:type="star"
       style="display:inline;fill:#92079f;fill-opacity:1;stroke:#92079f;stroke-width:3;stroke-linecap:round;stroke-linejoin:miter;stroke-dasharray:none;stroke-opacity:1;paint-order:stroke fill markers"
       id="path5-23"
       inkscape:flatsided="false"
       sodipodi:sides="5"
       sodipodi:cx="40.523823"
       sodipodi:cy="23.170321"
       sodipodi:r1="2.7980576"
       sodipodi:r2="1.4046831"
       sodipodi:arg1="0.24497866"
       sodipodi:arg2="1.026644"
       inkscape:rounded="0"
       inkscape:randomized="0"
       d="m 43.238337,23.848949 -1.98732,0.523171 -0.533777,1.589565 -1.111681,-1.728385 -1.676713,-0.01645 1.300264,-1.591372 -0.502488,-1.599731 1.915288,0.744863 1.366158,-0.972238 -0.11655,2.051722 z"
       transform="matrix(0.38635991,0,0,0.38635991,39.751931,28.65243)" />
    <path
       sodipodi:type="star"
       style="display:inline;fill:#92079f;fill-opacity:1;stroke:#92079f;stroke-width:3;stroke-linecap:round;stroke-linejoin:miter;stroke-dasharray:none;stroke-opacity:1;paint-order:stroke fill markers"
       id="path5-23-8"
       inkscape:flatsided="false"
       sodipodi:sides="5"
       sodipodi:cx="40.523823"
       sodipodi:cy="23.170321"
       sodipodi:r1="2.7980576"
       sodipodi:r2="1.4046831"
       sodipodi:arg1="0.24497866"
       sodipodi:arg2="1.026644"
       inkscape:rounded="0"
       inkscape:randomized="0"
       d="m 43.238337,23.848949 -1.98732,0.523171 -0.533777,1.589565 -1.111681,-1.728385 -1.676713,-0.01645 1.300264,-1.591372 -0.502488,-1.599731 1.915288,0.744863 1.366158,-0.972238 -0.11655,2.051722 z"
       transform="matrix(0.38635991,0,0,0.38635991,21.393073,17.568912)" />
  </g>
  <metadata
     id="metadata1">
    <rdf:RDF>
      <cc:Work
         rdf:about="">
        <dc:title>helping hand sticker</dc:title>
        <dc:contributor>
          <cc:Agent>
            <dc:title>Danish Khatri </dc:title>
          </cc:Agent>
        </dc:contributor>
        <cc:license
           rdf:resource="http://creativecommons.org/publicdomain/zero/1.0/" />
      </cc:Work>
      <cc:License
         rdf:about="http://creativecommons.org/publicdomain/zero/1.0/">
        <cc:permits
           rdf:resource="http://creativecommons.org/ns#Reproduction" />
        <cc:permits
           rdf:resource="http://creativecommons.org/ns#Distribution" />
        <cc:permits
           rdf:resource="http://creativecommons.org/ns#DerivativeWorks" />
      </cc:License>
    </rdf:RDF>
  </metadata>
</svg>
