<?xml version="1.0" encoding="UTF-8" standalone="no"?>
<!-- Created with Inkscape (http://www.inkscape.org/) -->

<svg
   width="80mm"
   height="80mm"
   viewBox="0 0 80 80"
   version="1.1"
   id="svg1"
   inkscape:version="1.4 (86a8ad7, 2024-10-11)"
   sodipodi:docname="piggybank.svg"
   xmlns:inkscape="http://www.inkscape.org/namespaces/inkscape"
   xmlns:sodipodi="http://sodipodi.sourceforge.net/DTD/sodipodi-0.dtd"
   xmlns="http://www.w3.org/2000/svg"
   xmlns:svg="http://www.w3.org/2000/svg"
   xmlns:rdf="http://www.w3.org/1999/02/22-rdf-syntax-ns#"
   xmlns:cc="http://creativecommons.org/ns#"
   xmlns:dc="http://purl.org/dc/elements/1.1/">
  <title
     id="title1">piggybank</title>
  <sodipodi:namedview
     id="namedview1"
     pagecolor="#505050"
     bordercolor="#eeeeee"
     borderopacity="1"
     inkscape:showpageshadow="0"
     inkscape:pageopacity="0"
     inkscape:pagecheckerboard="0"
     inkscape:deskcolor="#505050"
     inkscape:document-units="mm"
     inkscape:zoom="0.71891835"
     inkscape:cx="127.27454"
     inkscape:cy="92.500073"
     inkscape:window-width="1920"
     inkscape:window-height="1009"
     inkscape:window-x="1912"
     inkscape:window-y="46"
     inkscape:window-maximized="1"
     inkscape:current-layer="g12" />
  <defs
     id="defs1" />
  <g
     id="g12"
     transform="matrix(0.26458333,0,0,0.26458333,-18.199722,-51.567291)">
		<path
   class="st0"
   d="m 211.96616,479.0311 c -23.6,0 -29.9,-14.9 -30.2,-15.5 l -0.2,-0.4 v -0.5 c -0.2,-4.9 -1,-18.6 -2.6,-23.6 -0.3,-1 -0.9,-1.9 -1.6,-2.7 l -2.5,-2.7 -1.9,3.1 c -2.8,4.5 -7.9,7.5 -15.2,8.9 -2.6,0.5 -5.2,0.8 -7.8,0.8 -17.2,0 -26,-11.9 -26.4,-12.4 l -0.6,-0.8 2.4,-29.1 -0.7,-0.9 c -14.5,-17.3 -23.8,-35.8 -27.5,-54.7 -3.1,-15.7 -2.5,-31.9 1.9,-48 6.1,-22.4 17.5,-38.1 22.1,-43.8 l 0.6,-0.8 v -1 c 0,-4.8 2.3,-9.6 4.1,-12.8 l 1,-1.6 -1.2,-1.5 c -3.7,-4.8 -4.4,-11.9 -3.4,-16.7 1.1,-5.2 4.1,-8.6 8,-9.1 0.6,-0.1 1.2,-0.1 1.8,-0.1 3,0 4.8,1.2 5.7,2.2 1.9,2.1 2.1,5 1.9,7.3 l -0.1,2 1.8,0.8 c 0.4,0.2 0.9,0.4 1.4,0.5 l 0.8,0.3 0.8,-0.2 c 1.9,-0.5 3.9,-0.7 5.8,-0.7 4.2,0 7.5,1.1 9.5,2.1 l 0.9,0.4 1,-0.3 c 15.7,-4 30.6,-6.1 44.3,-6.1 28.1,0 44.9,8.5 52.4,13.6 l 2.2,1.5 1.6,-2.1 c 5.2,-6.9 17.1,-18.8 38,-20.8 2.1,-0.2 4.2,-0.3 6.2,-0.3 15,0 26.3,5.4 33.1,9.9 5.3,3.5 6.9,10.6 3.7,16.1 l -0.1,0.2 -0.2,0.2 c -10.7,11.8 -18.9,25.4 -24.5,40.4 l -0.9,2.4 0.4,1 c 6,15.5 7.9,40.8 8.5,54.5 0.2,3.9 2.6,7.5 6.3,9.3 0.3,0.1 0.5,0.3 0.7,0.4 5.9,4.3 9,11.9 9,21.7 0,7.6 -1.9,16 -5.1,22.6 -6.7,13.8 -19.4,23.3 -33.3,24.8 l -0.5,0.1 c -0.5,0.1 -1.2,0.2 -2,0.3 l -3.2,0.4 0.9,3.2 c 1.1,4 1.8,9.8 -0.9,15.1 -2.6,5 -7.7,8.3 -15.1,9.7 -2.5,0.5 -4.9,0.7 -7.1,0.7 -9.5,0 -14.6,-4.2 -17.2,-7.8 -0.6,-0.8 -1.1,-1.6 -1.6,-2.5 l -1.1,-2.2 -9.5,3.5 -0.3,0.2 c -1.9,1.4 -2.4,4.5 -2.6,11.6 -0.2,5.6 -0.5,12 -3.2,17.5 -3.3,6.5 -9.5,10.5 -18.6,11.9 -3.4,0.2 -6.7,0.5 -9.9,0.5 z"
   id="path1"
   style="fill:#f29db5" />

		<g
   id="g7"
   transform="translate(23.60831,15.331104)">
			<path
   class="st1"
   d="m 317.4,205.5 c -7.1,-4.7 -18.9,-10.4 -34.6,-10.4 -2.1,0 -4.3,0.1 -6.5,0.3 -21.9,2.1 -34.4,14.5 -40,21.9 -8,-5.4 -25.3,-14.1 -54,-14.1 -14,0 -29.1,2.1 -45.1,6.2 -2.3,-1.1 -6,-2.4 -10.7,-2.4 -1.8,0 -3.6,0.2 -5.4,0.6 0,0 0,0 0,0 -1.2,0.2 -2.2,-0.7 -2.3,-1.9 0,-2.4 -0.5,-5.3 -2.7,-7.7 -1.3,-1.4 -3.7,-3.1 -7.7,-3.1 -0.7,0 -1.4,0 -2.1,0.1 -5.2,0.6 -9.1,4.9 -10.4,11.3 -1.2,6 -0.1,13.8 3.9,19 -2.1,3.5 -4.5,8.8 -4.5,14.2 -4.3,5.3 -16.3,21.6 -22.6,44.9 -4.5,16.5 -5.1,33.1 -1.9,49.3 3.9,19.5 13.3,38.3 28.1,56 l -2.2,27 c -0.1,1.3 0.3,2.6 1,3.7 0.4,0.6 10,13.6 28.6,13.6 2.7,0 5.5,-0.3 8.3,-0.8 9.5,-1.9 14.4,-6.1 17,-10.2 0.4,0.4 0.8,1 1,1.7 1.4,4.4 1.3,9.4 2.1,13.7 0.4,2.4 0.7,4.9 0.4,7.4 -0.6,5.5 5,11 9.2,14 5.8,4.2 13,6.2 20.1,6.7 1.3,0.1 2.6,0.1 3.9,0.1 3.3,0 6.7,-0.3 10.3,-0.8 10.1,-1.5 17,-6 20.7,-13.4 3.1,-6.1 3.3,-12.7 3.5,-18.6 0.1,-3.2 0.3,-8.6 1.5,-9.4 l 6.8,-2.5 c 0.5,0.9 1.1,1.9 1.8,2.9 3,4.1 8.8,8.9 19.4,8.9 2.4,0 4.9,-0.2 7.6,-0.7 8.3,-1.5 14.1,-5.3 17.1,-11.1 3.2,-6.2 2.3,-13 1.1,-17.1 0.8,-0.1 1.5,-0.2 2,-0.3 0.2,0 0.4,0 0.4,-0.1 14.8,-1.7 28.5,-11.8 35.6,-26.4 3.3,-6.9 5.3,-15.8 5.4,-23.8 0,-3.6 -0.4,-7.2 -1.3,-10.6 -0.8,-3 -2.1,-5.9 -4,-8.5 -1,-1.3 -2,-2.6 -3.3,-3.7 -1.1,-1 -2.4,-1.7 -3.7,-2.5 -0.3,-0.2 -0.6,-0.4 -0.9,-0.7 -0.4,-0.4 -0.8,-0.8 -1.2,-1.2 -1,-1.3 -1.6,-2.8 -1.7,-4.4 -0.6,-14.2 -2.6,-39.6 -8.7,-55.4 l 0.5,-1.4 c 5.4,-14.6 13.5,-28 23.9,-39.5 l 0.4,-0.4 0.3,-0.5 c 4.1,-6.9 2.1,-15.6 -4.4,-19.9 z M 120,213.6 c 2.3,-0.8 4.5,-1 6.5,-1 1.8,0 3.3,0.2 4.7,0.6 -13.6,6.1 -23.2,14 -28.9,19.7 0.2,-0.6 0.5,-1.2 0.8,-1.8 6.9,-14.2 16.9,-17.5 16.9,-17.5 z m -13.1,-13.1 c 0.5,-0.1 1,-0.1 1.4,-0.1 2.2,0 4.1,1 4.7,3.2 0.3,1.2 0.4,2.5 0.3,3.7 0,1.1 -0.1,2.5 -0.5,3.5 -0.2,0.6 -0.7,1.2 -1.2,1.6 -3.7,2.7 -6.4,5.8 -8.3,8.5 -4.6,-7 -2.9,-19.5 3.6,-20.4 z m 26.6,227.1 c -2.6,0.5 -5,0.7 -7.2,0.7 -11.8,0 -19.3,-6.1 -22.4,-9.3 -1.1,-1.1 -1.7,-2.7 -1.5,-4.3 l 1.7,-21 c 6.9,5 22.7,15.3 44.3,23.1 -1.3,4.4 -5.1,8.9 -14.9,10.8 z m 64.2,32.6 c -3.5,0.5 -6.6,0.8 -9.5,0.8 -15.2,0 -22.6,-6.5 -25.7,-10.6 -1.3,-1.7 -2,-3.7 -2.1,-5.8 -0.3,-5.2 -1.1,-16.8 -2.6,-21.7 -0.4,-1.4 -1.1,-2.5 -1.9,-3.4 8.7,2.7 18.2,4.9 28.3,6.1 5.5,0.7 10.4,1 14.9,1 7.4,0 13.6,-0.8 19.1,-2.1 -2.8,10.5 4,32 -20.5,35.7 z m 61.2,-32.8 c -2.4,0.4 -4.6,0.7 -6.6,0.7 -10.7,0 -15.1,-5.9 -16.9,-9.9 2.2,-1 4.3,-2.1 6.3,-3.1 8.7,-4.3 17.7,-8.8 30.5,-10.6 1.8,4.9 5.2,19.5 -13.3,22.9 z m 51.4,-91.2 c 11.5,11.9 5.8,32.6 -2.3,44.7 -6.1,9.1 -18.8,19.7 -30.6,17.2 -4.5,-1 -6.9,-7.4 -7.9,-11.3 -4.5,-16.8 2.8,-34.8 14.7,-46.8 5.4,-5.5 14.3,-10.5 22,-6.8 1.6,0.8 3,1.9 4.1,3 z M 121.5,397.8 C 109.2,391 98.6,381.7 91.1,369.7 84,358.4 78.8,345.9 76.1,332.8 72,312.5 74.7,291.6 82.4,272.5 c 2.6,-6.4 5.7,-12.6 9.4,-18.5 1.3,-2.1 2.4,-4.2 3.7,-6.2 2.8,-4.3 6.5,-8.1 10.2,-11.7 2.4,-2.3 4.8,-4.5 7.4,-6.6 9.6,-7.6 20.7,-13.5 32.5,-16.5 3.1,-0.8 6.2,-1.3 9.3,-1.9 6.1,-1 12.2,-1.8 18.3,-2.2 3,-0.2 6,-0.3 9,-0.3 38.8,0 55.3,16.5 55.3,16.5 0,0 11,-21.7 39.2,-24.4 2.1,-0.2 4,-0.3 6,-0.3 14.4,0 25.1,5.2 31.6,9.5 0.3,0.2 0.5,0.4 0.8,0.6 -7.9,-1.5 -20.9,-1.6 -33.3,9.2 -19.3,16.8 -17.6,37.9 -17.5,38.8 l 0.2,2.4 2.4,-0.3 c 0.1,0 13.5,-1.3 24,6.2 l -0.1,0.2 c 6.5,14.9 8.5,41.7 9.1,55.6 0.1,1.4 0.4,2.8 0.9,4.1 -5.8,-0.2 -11.7,2.3 -16.3,6.3 -9.1,7.8 -16.9,20.1 -19.7,31.4 -2.7,10.9 -2,26 5.6,34.7 -13.1,2.1 -22.3,6.6 -31.1,11 -13.8,6.9 -26.7,11.3 -54.5,9.9 -20.8,-1 -46.9,-13.1 -63.3,-22.2 z M 317.2,222.5 v 0 c -10.5,11.7 -18.8,25.2 -24.5,39.8 -8.9,-5.9 -19,-6.5 -23.6,-6.5 0.2,-5.6 2.1,-20.4 15.9,-32.4 13.8,-12.1 28.1,-8.9 33.4,-7.1 0.3,2.1 -0.1,4.3 -1.2,6.2 z"
   id="path2"
   style="fill:#020203" />

			<path
   class="st1"
   d="m 165.5,223.9 c 15.6,1.9 29.9,5.9 42.5,11.5 2.7,1.2 6,0.4 7.6,-1.8 1.6,-2.2 0.7,-5.1 -2.1,-6.4 -13.4,-6 -28.6,-10.4 -45,-12.5 -3.5,-0.5 -7.1,1.4 -7.8,3.9 -0.7,2.6 1.5,4.9 4.8,5.3 z"
   id="path3"
   style="fill:#020203" />

			<path
   class="st1"
   d="m 264.2,314.5 c -1.3,0 -2.4,1.9 -2.4,4.3 0,2.3 1.1,4.3 2.4,4.3 1.3,0 2.4,-1.9 2.4,-4.3 0,-2.4 -1.1,-4.3 -2.4,-4.3 z"
   id="path4"
   style="fill:#020203" />

			<ellipse
   transform="matrix(0.866,-0.5,0.5,0.866,-117.7202,183.0747)"
   class="st1"
   cx="282.79999"
   cy="311.20001"
   rx="2.4000001"
   ry="4.3000002"
   id="ellipse4"
   style="fill:#020203" />

			<path
   class="st1"
   d="m 287.2,359 c -1.3,-0.3 -3.1,3.2 -3.1,7.8 0,4.7 1.8,8.1 3.1,7.8 1.3,-0.3 1.6,-3.8 1.6,-7.8 0,-4 -0.3,-7.5 -1.6,-7.8 z"
   id="path5"
   style="fill:#020203" />

			<path
   class="st1"
   d="m 299.5,352.3 c -1.3,0.3 -1.6,3.8 -1.6,7.8 0,4.1 0.3,7.6 1.6,7.8 1.3,0.3 3.1,-3.2 3.1,-7.8 0.1,-4.6 -1.8,-8.1 -3.1,-7.8 z"
   id="path6"
   style="fill:#020203" />

			<path
   class="st1"
   d="m 217.5,244.5 c -6,-3 -13.7,-4.2 -23,-3.5 -16.4,1.3 -28.7,11.6 -33.6,28.4 -5,16.9 -1.4,36.5 8,43.7 15.8,12 17.4,12.2 18,12.3 l 2.4,0.3 0.3,-2.4 c 0.1,-0.4 5.8,-41.5 39.8,-48.7 l 1.6,-0.3 0.2,-1.7 c 0,-0.1 2.7,-19.7 -13.7,-28.1 z m -52,26.3 c 2.5,-8.6 9.7,-23.4 29.4,-24.9 1.7,-0.1 3.3,-0.2 4.9,-0.2 4.5,0 8.4,0.5 11.8,1.6 -3.3,2.7 -8.4,7.6 -13.3,15.1 -7,10.7 -14.8,29 -13.7,56.3 -2.4,-1.6 -6.3,-4.4 -12.7,-9.4 -7.8,-5.9 -10.8,-23.9 -6.4,-38.5 z m 61,-0.4 c -14.6,3.7 -26.4,13.7 -34.2,29.1 -1.1,2.2 -2.1,4.4 -2.9,6.4 1.3,-19 7.2,-32.3 12.6,-40.7 5.8,-9 12,-14 14.5,-15.7 9.8,5.8 10.3,16.8 10,20.9 z"
   id="path7"
   style="fill:#020203" />

		</g>

		
	</g>
  <metadata
     id="metadata1">
    <rdf:RDF>
      <cc:Work
         rdf:about="">
        <dc:title>piggybank</dc:title>
      </cc:Work>
    </rdf:RDF>
  </metadata>
</svg>
