<?xml version="1.0" encoding="UTF-8" standalone="no"?>
<!-- Created with Inkscape (http://www.inkscape.org/) -->

<svg
   version="1.1"
   id="svg1"
   width="80"
   height="80"
   viewBox="0 0 80 80"
   sodipodi:docname="sc.svg"
   inkscape:version="1.4 (86a8ad7, 2024-10-11)"
   xmlns:inkscape="http://www.inkscape.org/namespaces/inkscape"
   xmlns:sodipodi="http://sodipodi.sourceforge.net/DTD/sodipodi-0.dtd"
   xmlns:xlink="http://www.w3.org/1999/xlink"
   xmlns="http://www.w3.org/2000/svg"
   xmlns:svg="http://www.w3.org/2000/svg"
   xmlns:rdf="http://www.w3.org/1999/02/22-rdf-syntax-ns#"
   xmlns:cc="http://creativecommons.org/ns#"
   xmlns:dc="http://purl.org/dc/elements/1.1/">
  <title
     id="title1">helping hand sticker</title>
  <defs
     id="defs1">
    <inkscape:path-effect
       effect="bspline"
       id="path-effect24"
       is_visible="true"
       lpeversion="1.3"
       weight="33.333333"
       steps="2"
       helper_size="0"
       apply_no_weight="true"
       apply_with_weight="true"
       only_selected="false"
       uniform="false" />
    <linearGradient
       id="linearGradient21"
       inkscape:collect="always">
      <stop
         style="stop-color:#bfbfbf;stop-opacity:1;"
         offset="0"
         id="stop21" />
      <stop
         style="stop-color:#ffffff;stop-opacity:1;"
         offset="0.13513535"
         id="stop23" />
      <stop
         style="stop-color:#dfdfdf;stop-opacity:1;"
         offset="0.2256761"
         id="stop24" />
      <stop
         style="stop-color:#b4b4b4;stop-opacity:1;"
         offset="1"
         id="stop22" />
    </linearGradient>
    <linearGradient
       id="swatch19"
       inkscape:swatch="solid">
      <stop
         style="stop-color:#d999d9;stop-opacity:1;"
         offset="0"
         id="stop19" />
    </linearGradient>
    <clipPath
       clipPathUnits="userSpaceOnUse"
       id="clipPath54">
      <path
         id="path54"
         style="stroke-width:0.0999999;stroke-linecap:square;paint-order:markers fill stroke;stop-color:#000000"
         d="m 1691.1994,-792.32001 h 1634.8919 v 92.82806 H 1691.1994 Z" />
    </clipPath>
    <inkscape:path-effect
       effect="bspline"
       id="path-effect5"
       is_visible="true"
       lpeversion="1.3"
       weight="33.333333"
       steps="2"
       helper_size="0"
       apply_no_weight="true"
       apply_with_weight="true"
       only_selected="false"
       uniform="false" />
    <inkscape:path-effect
       effect="bspline"
       id="path-effect2"
       is_visible="true"
       lpeversion="1.3"
       weight="33.333333"
       steps="2"
       helper_size="0"
       apply_no_weight="true"
       apply_with_weight="true"
       only_selected="false"
       uniform="false" />
    <inkscape:path-effect
       effect="bspline"
       id="path-effect1"
       is_visible="true"
       lpeversion="1.3"
       weight="33.333333"
       steps="2"
       helper_size="0"
       apply_no_weight="true"
       apply_with_weight="true"
       only_selected="false"
       uniform="false" />
    <inkscape:path-effect
       effect="bspline"
       id="path-effect2-4"
       is_visible="true"
       lpeversion="1.3"
       weight="33.333333"
       steps="2"
       helper_size="0"
       apply_no_weight="true"
       apply_with_weight="true"
       only_selected="false"
       uniform="false" />
    <linearGradient
       inkscape:collect="always"
       xlink:href="#linearGradient21"
       id="linearGradient22"
       x1="40.138695"
       y1="68.618027"
       x2="40.138695"
       y2="76.799126"
       gradientUnits="userSpaceOnUse"
       gradientTransform="matrix(0.90611104,-0.52314345,-0.43845445,-0.75942539,49.926641,141.48622)" />
    <inkscape:path-effect
       effect="bspline"
       id="path-effect2-4-4"
       is_visible="true"
       lpeversion="1.3"
       weight="33.333333"
       steps="2"
       helper_size="0"
       apply_no_weight="true"
       apply_with_weight="true"
       only_selected="false"
       uniform="false" />
  </defs>
  <sodipodi:namedview
     id="namedview1"
     pagecolor="#505050"
     bordercolor="#eeeeee"
     borderopacity="1"
     inkscape:showpageshadow="0"
     inkscape:pageopacity="0"
     inkscape:pagecheckerboard="0"
     inkscape:deskcolor="#505050"
     inkscape:zoom="10.31492"
     inkscape:cx="61.415891"
     inkscape:cy="42.414289"
     inkscape:window-width="3440"
     inkscape:window-height="1369"
     inkscape:window-x="1912"
     inkscape:window-y="-8"
     inkscape:window-maximized="1"
     inkscape:current-layer="layer3"
     showgrid="false" />
  <g
     inkscape:groupmode="layer"
     inkscape:label="badge"
     id="g1"
     style="display:inline">
    <path
       id="path2"
       style="display:inline;fill:#131313;fill-opacity:1;stroke:#d60d5c;stroke-width:6.34512;stroke-opacity:1;paint-order:fill markers stroke;stroke-linecap:square;stroke-linejoin:miter"
       inkscape:label="circle"
       d="M 21.610094,8.2577428 C 3.9951496,18.4273 -2.0401459,40.95133 8.1300647,58.565897 13.843762,68.392994 23.775435,75.030769 35.040678,76.551447 L 74.038885,54.035822 C 78.354561,43.519496 77.571915,31.599527 71.918248,21.737772 61.748691,4.1228278 39.224661,-1.9124677 21.610094,8.2577428 Z"
       sodipodi:nodetypes="cccccc" />
    <path
       style="display:inline;fill:#312e2e;fill-opacity:1;stroke-width:1.10334;stroke-linecap:square;stroke-linejoin:miter;paint-order:stroke fill markers"
       id="path4"
       sodipodi:type="arc"
       sodipodi:cx="40"
       sodipodi:cy="40"
       sodipodi:rx="33.640591"
       sodipodi:ry="33.737537"
       sodipodi:start="1.4106603"
       sodipodi:end="0.57299907"
       sodipodi:arc-type="arc"
       d="M 45.364076,73.305886 A 33.640591,33.737537 0 0 1 8.6305026,52.1859 33.640591,33.737537 0 0 1 21.593239,11.760719 a 33.640591,33.737537 0 0 1 42.123168,4.312165 33.640591,33.737537 0 0 1 4.551068,42.218075"
       sodipodi:open="true" />
    <path
       id="circle19"
       style="display:inline;fill:url(#linearGradient22);stroke:none;stroke-width:6.07775;stroke-opacity:1;paint-order:markers fill stroke"
       inkscape:label="circle"
       d="m 35.50237,79.915295 c 3.627794,-7.179794 9.601636,-13.405831 16.983083,-17.700047 7.409626,-4.24541 15.788451,-6.305893 23.820232,-5.857758 0,0 -13.402659,8.297753 -20.203212,12.224054 C 49.30192,72.507845 35.50237,79.915295 35.50237,79.915295 Z"
       sodipodi:nodetypes="ccczc" />
    <path
       style="fill:#f12b79;fill-opacity:1;stroke:#d60d5c;stroke-width:1.98135;stroke-dasharray:none;stroke-opacity:1;paint-order:markers fill stroke"
       d="m 43.186004,65.320159 c -1.725027,-1.803752 -4.859645,-5.083791 -6.54814,-6.933866 -1.688495,-1.850075 -1.930858,-2.27017 -2.108595,-2.67412 -0.177737,-0.403949 -0.29084,-0.791729 -0.315075,-1.381497 -0.02424,-0.589769 0.04039,-1.381486 0.452426,-2.205544 0.412032,-0.824057 1.171434,-1.680405 2.076283,-2.221694 0.904848,-0.54129 1.955086,-0.767495 2.892248,-0.638227 0.937162,0.129267 1.761195,0.613992 2.544857,1.324946 0.783662,0.710954 1.526907,1.648089 2.036021,2.308344 0.509114,0.660255 0.784013,1.043515 0.949865,1.271795 0.165852,0.228279 0.222619,0.301527 0.279388,0.374776 0.396118,-0.464098 0.792187,-0.928138 1.3619,-1.628793 0.569713,-0.700654 1.312958,-1.637789 2.09662,-2.348743 0.783662,-0.710954 1.607695,-1.195679 2.544857,-1.324946 0.937162,-0.129268 1.9874,0.09694 2.892248,0.638227 0.904849,0.541289 1.664251,1.397637 2.076283,2.221694 0.412032,0.824058 0.476662,1.615775 0.452426,2.205544 -0.02423,0.589768 -0.137338,0.977548 -0.315075,1.381497 -0.177737,0.40395 -0.4201,0.824045 -2.108595,2.67412 -1.688495,1.850075 -4.823113,5.130114 -6.548141,6.937636 -1.725027,1.807522 -2.040463,2.142526 -2.3559,2.146296 -0.315437,0.0038 -0.630873,-0.323694 -2.355901,-2.127445 z"
       id="path2-2"
       inkscape:path-effect="#path-effect2-4-4"
       inkscape:original-d="m 44.595595,66.796445 c -3.134618,-3.280038 -6.269236,-6.560077 -9.403854,-9.840115 -0.242372,-0.420112 -0.484735,-0.840207 -0.727102,-1.26031 -0.113107,-0.387796 -0.22621,-0.775576 -0.339314,-1.163363 0.06463,-0.79175 0.129262,-1.583467 0.193894,-2.3752 0.759433,-0.856382 1.518835,-1.71273 2.278253,-2.569095 1.050279,-0.226214 2.100517,-0.452419 3.150776,-0.678628 0.824065,0.484744 1.648098,0.969469 2.472147,1.454204 0.743274,0.937173 1.486519,1.874308 2.229779,2.811461 0.274969,0.383357 0.549868,0.766617 0.824802,1.149926 0.05677,0.07325 0.113537,0.146498 0.170306,0.219747 0,0 0.792187,-0.928138 1.188354,-1.392294 0.74326,-0.937153 1.486505,-1.874288 2.229779,-2.811461 0.824049,-0.484735 1.648082,-0.96946 2.472147,-1.454204 1.050259,0.226209 2.100497,0.452414 3.150776,0.678628 0.759418,0.856365 1.51882,1.712713 2.278253,2.569095 0.06463,0.791733 0.129264,1.58345 0.193894,2.3752 -0.113104,0.387787 -0.226207,0.775567 -0.339314,1.163363 -0.242367,0.420103 -0.48473,0.840198 -0.727102,1.26031 -3.134618,3.280038 -6.269236,6.560077 -9.403854,9.840115 -0.315437,0.335006 -0.630873,0.67001 -0.94631,1.005016 -0.315437,-0.327466 -0.630873,-0.65493 -0.94631,-0.982395 z"
       sodipodi:nodetypes="ccccccccccccccccccccccc"
       transform="matrix(-1.542973,0,0,1.542973,110.85161,-48.348564)"
       inkscape:label="heart" />
  </g>
  <g
     inkscape:groupmode="layer"
     id="layer1"
     inkscape:label="rect"
     style="display:inline" />
  <g
     inkscape:groupmode="layer"
     id="layer2"
     inkscape:label="hand" />
  <g
     inkscape:groupmode="layer"
     id="layer3"
     inkscape:label="text"
     style="display:inline">
    <circle
       style="display:none;fill:none;fill-opacity:1;stroke:#92079f;stroke-width:0.739426;stroke-opacity:1;paint-order:markers fill stroke"
       id="path3"
       cx="14.641016"
       cy="-54.641018"
       r="24.026592"
       transform="rotate(120)" />
    <path
       style="font-weight:bold;font-size:10.6667px;font-family:Sans;-inkscape-font-specification:'Sans Bold';fill:#f12b79;stroke-linecap:square;paint-order:stroke fill markers"
       d="m 22.933613,59.402533 q 0.329037,-0.446533 0.790494,-0.623241 0.446543,-0.174449 1.008781,-0.0384 0.562239,0.136052 1.223451,0.62328 0.498056,0.367003 0.82527,0.714117 0.333542,0.338526 0.578046,0.743941 L 26.5687,61.895628 q -0.244955,-0.458747 -0.606969,-0.884502 -0.362014,-0.425756 -0.679739,-0.659879 -0.39501,-0.291071 -0.649012,-0.305991 -0.26259,-0.02125 -0.401798,0.167671 -0.09492,0.128807 -0.07639,0.301457 0.0099,0.166323 0.159534,0.448802 0.141007,0.276152 0.441553,0.749363 0.294219,0.481797 0.444715,0.87094 0.144168,0.39773 0.100321,0.762915 -0.05243,0.358857 -0.337178,0.74528 -0.474573,0.644037 -1.227994,0.605606 -0.768336,-0.03617 -1.609879,-0.656281 -0.455119,-0.335365 -0.771938,-0.714567 -0.325406,-0.385531 -0.60245,-0.854673 l 1.029583,-0.606062 q 0.218742,0.386432 0.492625,0.733997 0.273883,0.347564 0.540085,0.543721 0.291963,0.21514 0.524724,0.240906 0.226432,0.03435 0.346657,-0.128803 0.08859,-0.12022 0.07232,-0.277955 -0.02485,-0.164063 -0.17219,-0.431628 -0.155921,-0.273892 -0.44788,-0.740775 -0.300546,-0.473211 -0.444715,-0.870941 -0.159083,-0.39547 -0.100321,-0.762914 0.04385,-0.365185 0.341247,-0.768782 z m -5.973169,0.614147 q 0.364943,-0.295114 0.667065,-0.498274 0.287121,-0.204748 0.466418,-0.322302 l -0.05366,-0.06635 q -0.361259,0.04521 -0.663231,-0.03983 -0.301972,-0.08504 -0.562832,-0.271911 -0.275861,-0.188459 -0.497197,-0.462166 -0.395721,-0.489354 -0.516658,-0.995146 -0.120938,-0.505793 0.08303,-0.999966 0.18897,-0.495761 0.777854,-0.971968 l 2.952713,-2.387742 1.012779,1.252415 -2.637537,2.132871 q -0.489354,0.395721 -0.589034,0.764405 -0.107974,0.375392 0.193847,0.748628 0.295114,0.364942 0.643677,0.43974 0.341855,0.0665 0.747399,-0.110547 0.405544,-0.17705 0.886605,-0.566064 l 2.123299,-1.717028 1.012779,1.252415 -6.303547,5.097427 -1.012778,-1.252415 z m -4.594321,-8.447666 q -0.430587,-1.010778 -0.175476,-1.745542 0.245297,-0.730584 1.177568,-1.127727 l 3.572068,-1.521684 0.438948,1.030404 -0.604957,0.593941 0.01672,0.03925 q 0.380738,0.104474 0.671704,0.27038 0.286785,0.156092 0.499066,0.436677 0.222095,0.276404 0.414396,0.727819 0.200661,0.471042 0.182878,0.919198 -0.0276,0.452337 -0.308535,0.827088 -0.280939,0.374752 -0.850114,0.617218 -0.843951,0.359519 -1.525114,-0.06915 -0.681163,-0.42867 -1.244425,-1.614812 l -0.409862,-0.880476 -0.166827,0.07107 q -0.480855,0.204842 -0.575339,0.500165 -0.104298,0.299503 0.06292,0.692038 0.154677,0.363095 0.435475,0.695651 0.280798,0.332556 0.606483,0.634397 l -0.826838,0.862375 Q 13.36121,53.197289 13.003712,52.7119 12.642032,52.216697 12.366123,51.569014 Z m 2.98617,-1.318472 q 0.316439,0.688389 0.639573,0.875374 0.323133,0.186985 0.696041,0.02813 0.343468,-0.146316 0.430867,-0.403838 0.07341,-0.263155 -0.06455,-0.586996 -0.196481,-0.461229 -0.60503,-0.658204 -0.412729,-0.206789 -0.923025,0.01059 l -0.441602,0.18812 z M 10.202889,43.49028 q -0.02715,-0.15768 -0.03689,-0.340005 -0.02206,-0.191026 -0.0086,-0.301576 l 1.509345,-0.0975 q -0.0011,0.119252 0.005,0.280552 0.0061,0.161301 0.04413,0.382053 0.04162,0.241777 0.158645,0.481398 0.115211,0.229108 0.3196,0.410392 0.204389,0.181284 0.49942,0.260373 0.295031,0.07909 0.715512,0.0067 l 2.911836,-0.50132 0.273283,1.587319 -5.739575,0.988161 -0.20813,-1.208885 0.927292,-0.397768 -0.01267,-0.07359 Q 11.227262,44.850874 10.942049,44.64021 10.656837,44.429547 10.465886,44.137714 10.264422,43.84769 10.202889,43.49028 Z m -0.05707,-4.149988 5.823949,-0.02841 0.0079,1.610652 -5.823949,0.02841 z m -2.2894106,0.811181 q -0.00172,-0.351997 0.1676992,-0.608828 0.1586978,-0.267444 0.6173604,-0.269682 0.4373295,-0.0021 0.6092956,0.263698 0.171914,0.255166 0.1736311,0.607163 0.00177,0.362663 -0.1676472,0.619493 -0.1694163,0.256831 -0.6067459,0.258964 -0.4586626,0.0022 -0.61991,-0.25298 -0.171914,-0.255165 -0.1736832,-0.617828 z m 2.9493026,-6.89991 q 0.196182,-0.939744 0.800287,-1.380256 0.604105,-0.440513 1.710914,-0.209454 l 3.717209,0.776009 -0.32697,1.56624 -3.320428,-0.693177 q -0.616055,-0.128608 -0.966817,0.03789 -0.359023,0.15388 -0.457114,0.623751 -0.148227,0.710029 0.288033,1.07352 0.427999,0.350869 1.336418,0.540511 l 2.673049,0.558029 -0.32915,1.576682 -5.701112,-1.190171 0.252856,-1.211226 0.808013,-0.06015 0.01308,-0.06265 q -0.242687,-0.246804 -0.376141,-0.54708 -0.141715,-0.312898 -0.168116,-0.656206 -0.03466,-0.355929 0.04599,-0.742268 z m 2.461423,-6.787278 q 0.286366,-0.53634 0.684284,-0.783374 0.38851,-0.252057 0.85285,-0.306432 l 0.0201,-0.03764 -0.57892,-0.478386 0.643066,-1.204414 5.175217,2.763173 q 0.724531,0.386844 1.063105,0.930374 0.347985,0.548554 0.29558,1.258179 -0.04738,0.700216 -0.514609,1.575298 -0.316508,0.592798 -0.642982,1.02308 -0.317064,0.435307 -0.707488,0.758893 l -1.204414,-0.643065 q 0.414267,-0.322948 0.753897,-0.70993 0.344654,-0.396392 0.656139,-0.97978 0.316509,-0.592798 0.2044,-1.039596 -0.107085,-0.456208 -0.586968,-0.712429 l -0.141143,-0.07536 q -0.112914,-0.06029 -0.296079,-0.170176 -0.178142,-0.119298 -0.309236,-0.213477 l -0.02512,0.04705 q 0.22319,0.39728 0.239289,0.865368 0.02112,0.458678 -0.260219,0.985609 -0.472251,0.884491 -1.445509,1.054084 -0.968233,0.160183 -2.247923,-0.523075 -1.27969,-0.683257 -1.689627,-1.59137 -0.409937,-0.908113 0.06231,-1.792605 z m 1.365903,0.136786 q -0.165791,0.310513 -0.107585,0.631795 0.06323,0.311874 0.351093,0.610674 0.292887,0.28939 0.810409,0.565707 0.771578,0.411964 1.27858,0.368276 0.512026,-0.0531 0.778295,-0.551801 0.150719,-0.282285 0.171536,-0.525099 0.02082,-0.242815 -0.07383,-0.450546 -0.104059,-0.212754 -0.327972,-0.404858 -0.218888,-0.201513 -0.567039,-0.387399 l -0.207009,-0.110527 q -0.517522,-0.276317 -0.911526,-0.353675 -0.394005,-0.07736 -0.688975,0.06745 -0.294969,0.144806 -0.505975,0.540005 z m 5.424881,-8.827647 4.00489,4.22848 -1.169414,1.10758 -4.004891,-4.22848 z m -2.157853,-1.114938 q 0.255568,-0.242054 0.558794,-0.294181 0.303637,-0.06721 0.61904,0.265805 0.300734,0.317523 0.224481,0.624808 -0.06851,0.299951 -0.324075,0.542005 -0.263312,0.249389 -0.566539,0.301516 -0.303226,0.05213 -0.60396,-0.265395 -0.315403,-0.333012 -0.23956,-0.625218 0.06851,-0.299951 0.331819,-0.54934 z m 9.846819,0.591109 q 0.304167,0.463831 0.309296,0.957939 0.0082,0.479338 -0.314955,0.959123 -0.323155,0.479785 -1.009982,0.930186 -0.51735,0.339263 -0.956618,0.525277 -0.433418,0.194933 -0.89857,0.28312 l -0.731171,-1.114979 q 0.515309,-0.07006 1.040413,-0.261336 0.525104,-0.191279 0.855138,-0.407706 0.410312,-0.269071 0.512667,-0.502016 0.111275,-0.238794 -0.01741,-0.435031 -0.08774,-0.133797 -0.256051,-0.176492 -0.159391,-0.04854 -0.476268,-0.0066 -0.307958,0.03612 -0.856168,0.153267 -0.554059,0.108223 -0.97125,0.113935 -0.42304,-0.0032 -0.750159,-0.171363 -0.318198,-0.174005 -0.581419,-0.575397 -0.438703,-0.668988 -0.140558,-1.361974 0.301215,-0.707755 1.175359,-1.280993 0.472751,-0.310016 0.938487,-0.47512 0.474655,-0.170952 1.010874,-0.267476 l 0.210013,1.176115 q -0.438393,0.07064 -0.85953,0.206495 -0.421136,0.135857 -0.697651,0.317187 -0.303274,0.198878 -0.408408,0.408135 -0.110983,0.200336 1.55e-4,0.369813 0.08189,0.124877 0.235432,0.164502 0.162461,0.03377 0.46457,-0.01127 0.311027,-0.05089 0.850317,-0.162187 0.54821,-0.117142 0.971251,-0.113935 0.426111,-0.01156 0.750158,0.171363 0.327118,0.168156 0.602039,0.587388 z m 7.140362,-0.623557 q -0.818721,0.199466 -1.513757,0.05042 -0.687196,-0.161939 -1.185737,-0.721158 -0.501065,-0.569584 -0.743455,-1.564486 -0.255013,-1.04672 -0.04099,-1.79052 0.214021,-0.7438 0.78334,-1.200887 0.566794,-0.46745 1.385516,-0.666916 0.497451,-0.121194 0.957969,-0.123604 0.470882,-0.0049 0.855803,0.08793 l -0.178523,1.295066 q -0.343731,-0.05898 -0.6852,-0.06362 -0.333631,-0.01753 -0.644538,0.05822 -0.404179,0.09847 -0.638547,0.353187 -0.234368,0.254716 -0.286037,0.673516 -0.05419,0.408437 0.08467,0.978433 0.136344,0.559633 0.369805,0.887009 0.233461,0.327376 0.558725,0.445748 0.32274,0.108009 0.706191,0.01459 0.445634,-0.10857 0.811675,-0.318515 0.363517,-0.220308 0.667905,-0.503062 l 0.310561,1.274718 q -0.273297,0.275179 -0.649702,0.487649 -0.376406,0.21247 -0.925675,0.346289 z m 5.555891,-6.580619 q 1.098629,0.0094 1.670135,0.536987 0.571597,0.516914 0.562922,1.530213 l -0.03324,3.882537 -1.119962,-0.0096 -0.302565,-0.791955 -0.04267,-3.65e-4 q -0.247973,0.307222 -0.516366,0.507599 -0.257726,0.200468 -0.599779,0.282876 -0.342144,0.09307 -0.832794,0.08887 -0.511983,-0.0044 -0.915659,-0.199848 -0.403584,-0.20613 -0.634773,-0.613459 -0.231188,-0.407328 -0.225892,-1.025974 0.0079,-0.917303 0.673092,-1.370292 0.665238,-0.45299 1.977651,-0.495088 l 0.970908,-0.02369 0.0016,-0.181327 q 0.0045,-0.522649 -0.228448,-0.727318 -0.232833,-0.215336 -0.659485,-0.218989 -0.394654,-0.0034 -0.811736,0.121056 -0.417081,0.124434 -0.823954,0.302291 l -0.459911,-1.102648 q 0.46066,-0.230732 1.048495,-0.364372 0.5985,-0.133547 1.302477,-0.12752 z m 0.01472,3.264256 q -0.757491,0.01485 -1.058065,0.236284 -0.300575,0.221435 -0.304045,0.626755 -0.0032,0.373321 0.197911,0.556383 0.211865,0.172488 0.563854,0.175501 0.501316,0.0043 0.845195,-0.291442 0.354545,-0.295643 0.359294,-0.850291 l 0.0041,-0.479984 z m 8.255162,-2.017398 q 0.155385,0.03815 0.326401,0.102113 0.183918,0.05614 0.279877,0.112657 l -0.51403,1.422463 q -0.108862,-0.0487 -0.25916,-0.107569 -0.150298,-0.05887 -0.367836,-0.112287 -0.238257,-0.0585 -0.504678,-0.04704 -0.256062,0.01401 -0.503939,0.128883 -0.247877,0.114872 -0.438318,0.353682 -0.190441,0.238811 -0.292185,0.653171 l -0.704574,2.86944 -1.564207,-0.384082 1.388799,-5.656008 1.191283,0.292512 -0.0061,1.008986 0.07251,0.0178 q 0.239508,-0.259713 0.546626,-0.436923 0.307119,-0.177211 0.650955,-0.23557 0.34638,-0.06872 0.698585,0.01776 z m 3.826746,1.606766 -2.302248,5.349658 -1.479484,-0.636702 2.302248,-5.349658 z m 0.17172,-2.422793 q 0.323331,0.139146 0.491016,0.397111 0.181699,0.252383 3.86e-4,0.673693 -0.172879,0.401714 -0.485292,0.453066 -0.302615,0.05557 -0.625946,-0.08358 -0.333129,-0.143363 -0.500814,-0.401328 -0.167684,-0.257964 0.0052,-0.659678 0.181313,-0.42131 0.479711,-0.467081 0.302615,-0.05557 0.635744,0.08779 z m 5.145192,5.461593 q 0.782958,0.555501 0.945239,1.285336 0.162281,0.729834 -0.491976,1.651985 l -2.197316,3.097037 -1.304931,-0.925836 1.962771,-2.766454 q 0.364162,-0.513272 0.351767,-0.901348 0.0025,-0.390603 -0.389003,-0.668354 -0.591568,-0.419712 -1.099152,-0.16514 -0.492712,0.252045 -1.029696,1.008905 l -1.580093,2.227083 -1.31363,-0.932008 3.370041,-4.749949 1.009146,0.71598 -0.267883,0.764683 0.0522,0.03703 q 0.323242,-0.123787 0.651831,-0.126073 0.34346,-0.0048 0.668696,0.108231 0.340108,0.110516 0.661991,0.338889 z m 5.23671,4.96877 q 0.377155,0.476887 0.44453,0.94038 0.07574,0.456876 -0.06003,0.90424 l 0.02647,0.03346 0.669918,-0.339425 0.846944,1.070903 -4.601538,3.63921 q -0.644215,0.509489 -1.277772,0.602567 -0.641923,0.0997 -1.271438,-0.232006 -0.622899,-0.323333 -1.238256,-1.101412 -0.416855,-0.527085 -0.680761,-0.99834 -0.272272,-0.464639 -0.412813,-0.951864 l 1.070903,-0.846943 q 0.130425,0.508824 0.349381,0.974831 0.225573,0.474373 0.635812,0.993092 0.416855,0.527085 0.871217,0.602925 0.460979,0.08421 0.887667,-0.253247 l 0.125497,-0.09925 q 0.100397,-0.0794 0.274342,-0.20337 0.180562,-0.115602 0.319292,-0.19812 l -0.03308,-0.04183 q -0.453376,0.04578 -0.888874,-0.126582 -0.428881,-0.163989 -0.799419,-0.632509 -0.621974,-0.786445 -0.388379,-1.746354 0.240212,-0.951542 1.378047,-1.85142 1.137834,-0.899877 2.134105,-0.91263 0.99627,-0.01275 1.618244,0.773692 z M 62.422,22.103961 q -0.218352,-0.276092 -0.536116,-0.351168 -0.311148,-0.06671 -0.700106,0.07771 -0.382343,0.152789 -0.842496,0.51671 -0.686048,0.542573 -0.84867,1.02477 -0.156005,0.490564 0.194683,0.933985 0.198502,0.250993 0.412752,0.367137 0.214249,0.116144 0.442496,0.112423 0.236614,-0.01034 0.502208,-0.138791 0.272211,-0.120087 0.581769,-0.364907 l 0.184061,-0.145568 q 0.460154,-0.363921 0.688561,-0.694155 0.228407,-0.330233 0.213585,-0.658495 -0.01482,-0.328263 -0.292727,-0.679653 z"
       id="text4"
       aria-label="sharing is caring" />
  </g>
  <metadata
     id="metadata1">
    <rdf:RDF>
      <cc:Work
         rdf:about="">
        <dc:title>helping hand sticker</dc:title>
        <dc:contributor>
          <cc:Agent>
            <dc:title>Danish Khatri </dc:title>
          </cc:Agent>
        </dc:contributor>
        <cc:license
           rdf:resource="http://creativecommons.org/publicdomain/zero/1.0/" />
      </cc:Work>
      <cc:License
         rdf:about="http://creativecommons.org/publicdomain/zero/1.0/">
        <cc:permits
           rdf:resource="http://creativecommons.org/ns#Reproduction" />
        <cc:permits
           rdf:resource="http://creativecommons.org/ns#Distribution" />
        <cc:permits
           rdf:resource="http://creativecommons.org/ns#DerivativeWorks" />
      </cc:License>
    </rdf:RDF>
  </metadata>
</svg>
