<?xml version="1.0" encoding="UTF-8" standalone="no"?>
<!-- Created with Inkscape (http://www.inkscape.org/) -->

<svg
   version="1.1"
   id="svg1"
   width="80"
   height="80"
   viewBox="0 0 80 80"
   sodipodi:docname="se.svg"
   inkscape:version="1.4 (86a8ad7, 2024-10-11)"
   xml:space="preserve"
   xmlns:inkscape="http://www.inkscape.org/namespaces/inkscape"
   xmlns:sodipodi="http://sodipodi.sourceforge.net/DTD/sodipodi-0.dtd"
   xmlns:xlink="http://www.w3.org/1999/xlink"
   xmlns="http://www.w3.org/2000/svg"
   xmlns:svg="http://www.w3.org/2000/svg"
   xmlns:rdf="http://www.w3.org/1999/02/22-rdf-syntax-ns#"
   xmlns:cc="http://creativecommons.org/ns#"
   xmlns:dc="http://purl.org/dc/elements/1.1/"><title
     id="title1">helping hand sticker</title><defs
     id="defs1"><pattern
       inkscape:collect="always"
       xlink:href="#TableCloth"
       preserveAspectRatio="xMidYMid"
       id="pattern23"
       patternTransform="scale(0.3)"
       x="0"
       y="0" /><pattern
       inkscape:collect="always"
       xlink:href="#TableCloth"
       preserveAspectRatio="xMidYMid"
       id="pattern5"
       patternTransform="scale(0.3)"
       x="0"
       y="0" /><pattern
       patternUnits="userSpaceOnUse"
       preserveAspectRatio="xMidYMid"
       width="50"
       height="50"
       id="TableCloth"
       inkscape:stockid="Table Cloth"
       style="fill:none"
       inkscape:collect="always"
       inkscape:isstock="true"
       inkscape:label="Table Cloth">
      <g
   id="g152475">
        <rect
   style="fill:none;fill-opacity:1;stroke:none;stroke-width:1;stroke-dasharray:none"
   id="rect152346"
   width="50"
   height="50"
   x="0"
   y="0" />
        <path
   id="path152348"
   style="fill:#afecda;fill-opacity:1;stroke:none;stroke-width:0.999995;stroke-dasharray:none"
   d="m 0.5,25.5 v 22 l 2,2 h 22 v -19 l -5,-5 z" />
        <path
   id="path152350"
   style="fill:#a8cbfe;fill-opacity:1;stroke:none;stroke-width:0.999995;stroke-dasharray:none"
   d="m 30.5,25.5 -5,5 v 19 h 22 l 2,-2 v -22 z" />
        <path
   id="path152352"
   style="fill:#cbbbe9;fill-opacity:1;stroke:none;stroke-width:0.999995;stroke-dasharray:none"
   d="m 25.5,0.5 v 19 l 5,5 h 19 v -22 l -2,-2 z" />
        <path
   id="path152354"
   style="fill:#f0b6d3;fill-opacity:1;stroke:none;stroke-width:0.999995;stroke-dasharray:none"
   d="m 2.5,0.5 -2,2 v 22 h 19 l 5,-5 v -19 z" />
        <path
   id="path152356"
   style="fill:#ffe9a6;stroke-width:1"
   d="m 17.5,37.5 c 0,2.761423 -2.238577,5 -5,5 -2.7614235,0 -5,-2.238577 -5,-5 0,-2.761424 2.2385765,-5 5,-5 2.761423,0 5,2.238576 5,5 z m 2.5,0 C 20,33.345004 16.654996,30 12.5,30 h -12 v 15 h 12 c 4.154996,0 7.5,-3.345004 7.5,-7.5 z"
   sodipodi:nodetypes="sssssssccss" />
        <path
   id="path152358"
   style="fill:#ea95bf;stroke-width:1"
   d="m 42.5,37.5 c 0,2.761423 -2.238577,5 -5,5 -2.761424,0 -5,-2.238577 -5,-5 0,-2.761424 2.238576,-5 5,-5 2.761423,0 5,2.238576 5,5 z M 37.5,30 C 33.345004,30 30,33.345004 30,37.5 v 12 h 15 v -12 C 45,33.345004 41.654996,30 37.5,30 Z"
   sodipodi:nodetypes="sssssssccss" />
        <path
   id="path152360"
   style="fill:#81b4fe;stroke-width:1"
   d="m 12.5,7.5 c 2.77,0 5,2.23 5,5 0,2.77 -2.23,5 -5,5 -2.77,0 -5,-2.23 -5,-5 0,-2.77 2.23,-5 5,-5 z m 0,12.5 C 16.654996,20 20,16.654996 20,12.5 V 0.5 H 5 v 12 c 0,4.154996 3.345004,7.5 7.5,7.5 z"
   sodipodi:nodetypes="sssssssccss" />
        <path
   id="path152362"
   style="fill:#8be3c9;stroke-width:1"
   d="m 42.5,12.5 c 0,2.761423 -2.238577,5 -5,5 -2.761424,0 -5,-2.238577 -5,-5 0,-2.7614235 2.238576,-5 5,-5 2.761423,0 5,2.2385765 5,5 z m -12.5,0 c 0,4.154996 3.345004,7.5 7.5,7.5 h 12 V 5 h -12 C 33.345004,5 30,8.345004 30,12.5 Z"
   sodipodi:nodetypes="sssssssccss" />
        <path
   style="fill:#81b4fe;fill-opacity:1;stroke:none;stroke-width:1;stroke-dasharray:none"
   d="m 25.5,30.5 h 5 v -5 z"
   id="path152364"
   sodipodi:nodetypes="cccc" />
        <path
   style="fill:#67dab8;fill-opacity:1;stroke:none;stroke-width:1;stroke-dasharray:none"
   d="m 24.5,30.5 h -5 v -5 z"
   id="path152366"
   sodipodi:nodetypes="cccc" />
        <path
   style="fill:#ea95bf;fill-opacity:1;stroke:none;stroke-width:1;stroke-dasharray:none"
   d="m 24.5,19.5 h -5 v 5 z"
   id="path152368"
   sodipodi:nodetypes="cccc" />
        <path
   style="fill:#b49ddf;fill-opacity:1;stroke:none;stroke-width:1;stroke-dasharray:none"
   d="m 25.5,19.5 h 5 v 5 z"
   id="path152370"
   sodipodi:nodetypes="cccc" />
        <path
   style="fill:#81b4fe;fill-opacity:1;stroke:none;stroke-width:1;stroke-dasharray:none"
   d="m 49.5,47.5 h -2 v 2 z"
   id="path153287"
   sodipodi:nodetypes="cccc" />
        <path
   style="fill:#67dab8;fill-opacity:1;stroke:none;stroke-width:1;stroke-dasharray:none"
   d="m 0.5,47.5 h 2 v 2 z"
   id="path154015"
   sodipodi:nodetypes="cccc" />
        <path
   style="fill:#ea95bf;fill-opacity:1;stroke:none;stroke-width:1;stroke-dasharray:none"
   d="m 0.5,2.5 h 2 v -2 z"
   id="path154155"
   sodipodi:nodetypes="cccc" />
        <path
   style="fill:#b49ddf;fill-opacity:1;stroke:none;stroke-width:1;stroke-dasharray:none"
   d="m 49.5,2.5 h -2 v -2 z"
   id="path154226"
   sodipodi:nodetypes="cccc" />
      </g>
    </pattern><inkscape:path-effect
       effect="bspline"
       id="path-effect24"
       is_visible="true"
       lpeversion="1.3"
       weight="33.333333"
       steps="2"
       helper_size="0"
       apply_no_weight="true"
       apply_with_weight="true"
       only_selected="false"
       uniform="false" /><linearGradient
       id="linearGradient21"
       inkscape:collect="always"><stop
         style="stop-color:#bfbfbf;stop-opacity:1;"
         offset="0"
         id="stop21" /><stop
         style="stop-color:#ffffff;stop-opacity:1;"
         offset="0.13513535"
         id="stop23" /><stop
         style="stop-color:#dfdfdf;stop-opacity:1;"
         offset="0.2256761"
         id="stop24" /><stop
         style="stop-color:#b4b4b4;stop-opacity:1;"
         offset="1"
         id="stop22" /></linearGradient><linearGradient
       id="swatch19"
       inkscape:swatch="solid"><stop
         style="stop-color:#d999d9;stop-opacity:1;"
         offset="0"
         id="stop19" /></linearGradient><clipPath
       clipPathUnits="userSpaceOnUse"
       id="clipPath54"><path
         id="path54"
         style="stroke-width:0.0999999;stroke-linecap:square;paint-order:markers fill stroke;stop-color:#000000"
         d="m 1691.1994,-792.32001 h 1634.8919 v 92.82806 H 1691.1994 Z" /></clipPath><inkscape:path-effect
       effect="bspline"
       id="path-effect5"
       is_visible="true"
       lpeversion="1.3"
       weight="33.333333"
       steps="2"
       helper_size="0"
       apply_no_weight="true"
       apply_with_weight="true"
       only_selected="false"
       uniform="false" /><inkscape:path-effect
       effect="bspline"
       id="path-effect2"
       is_visible="true"
       lpeversion="1.3"
       weight="33.333333"
       steps="2"
       helper_size="0"
       apply_no_weight="true"
       apply_with_weight="true"
       only_selected="false"
       uniform="false" /><inkscape:path-effect
       effect="bspline"
       id="path-effect1"
       is_visible="true"
       lpeversion="1.3"
       weight="33.333333"
       steps="2"
       helper_size="0"
       apply_no_weight="true"
       apply_with_weight="true"
       only_selected="false"
       uniform="false" /><inkscape:path-effect
       effect="bspline"
       id="path-effect2-4"
       is_visible="true"
       lpeversion="1.3"
       weight="33.333333"
       steps="2"
       helper_size="0"
       apply_no_weight="true"
       apply_with_weight="true"
       only_selected="false"
       uniform="false" /><linearGradient
       inkscape:collect="always"
       xlink:href="#linearGradient21"
       id="linearGradient22"
       x1="40.138695"
       y1="68.618027"
       x2="40.138695"
       y2="76.799126"
       gradientUnits="userSpaceOnUse"
       gradientTransform="matrix(0.90611104,-0.52314345,-0.43845445,-0.75942539,49.926641,141.48622)" /><inkscape:path-effect
       effect="bspline"
       id="path-effect2-4-4"
       is_visible="true"
       lpeversion="1.3"
       weight="33.333333"
       steps="2"
       helper_size="0"
       apply_no_weight="true"
       apply_with_weight="true"
       only_selected="false"
       uniform="false" /><filter
       inkscape:collect="always"
       style="color-interpolation-filters:sRGB"
       id="filter1"
       x="-0.11604382"
       y="-0.20048085"
       width="1.2320876"
       height="1.4009617"><feGaussianBlur
         inkscape:collect="always"
         stdDeviation="1.9729052"
         id="feGaussianBlur1" /></filter><filter
       inkscape:collect="always"
       style="color-interpolation-filters:sRGB"
       id="filter23"
       x="-0.026348655"
       y="-0.026272941"
       width="1.0526973"
       height="1.0525459"><feGaussianBlur
         inkscape:collect="always"
         stdDeviation="0.73865361"
         id="feGaussianBlur23" /></filter></defs><sodipodi:namedview
     id="namedview1"
     pagecolor="#505050"
     bordercolor="#eeeeee"
     borderopacity="1"
     inkscape:showpageshadow="0"
     inkscape:pageopacity="0"
     inkscape:pagecheckerboard="0"
     inkscape:deskcolor="#505050"
     inkscape:zoom="5.15746"
     inkscape:cx="44.110861"
     inkscape:cy="37.324574"
     inkscape:window-width="1920"
     inkscape:window-height="1129"
     inkscape:window-x="-8"
     inkscape:window-y="-8"
     inkscape:window-maximized="1"
     inkscape:current-layer="layer3"
     showgrid="false" /><g
     inkscape:groupmode="layer"
     id="layer5"
     inkscape:label="shadow"><path
       id="path1"
       style="display:inline;fill:#131313;stroke:none;stroke-width:6.07775;stroke-opacity:1;paint-order:markers fill stroke;fill-opacity:1;filter:url(#filter1)"
       inkscape:label="peel_shadow"
       d="m 35.50237,79.915295 c 3.627794,-7.179794 9.601636,-13.405831 16.983083,-17.700047 7.409626,-4.24541 15.788451,-6.305893 23.820232,-5.857758 0,0 -13.402659,8.297753 -20.203212,12.224054 C 49.30192,72.507845 35.50237,79.915295 35.50237,79.915295 Z"
       sodipodi:nodetypes="ccczc" /></g><g
     inkscape:groupmode="layer"
     inkscape:label="badge"
     id="g1"
     style="display:inline"><path
       id="path2"
       style="display:inline;mix-blend-mode:lighten;fill:url(#pattern23);fill-opacity:1;stroke:#d60d5c;stroke-width:6.34512;stroke-linecap:square;stroke-linejoin:miter;stroke-opacity:1;paint-order:fill markers stroke"
       inkscape:label="circle"
       d="M 21.610094,8.2577428 C 3.9951496,18.4273 -2.0401459,40.95133 8.1300647,58.565897 13.843762,68.392994 23.775435,75.030769 35.040678,76.551447 L 74.038885,54.035822 C 78.354561,43.519496 77.571915,31.599527 71.918248,21.737772 61.748691,4.1228278 39.224661,-1.9124677 21.610094,8.2577428 Z"
       sodipodi:nodetypes="cccccc" /><path
       style="display:inline;opacity:1;mix-blend-mode:luminosity;fill:url(#pattern5);fill-opacity:1;stroke-width:1.10334;stroke-linecap:square;stroke-linejoin:miter;paint-order:stroke fill markers;filter:url(#filter23)"
       id="path4"
       sodipodi:type="arc"
       sodipodi:cx="40"
       sodipodi:cy="40"
       sodipodi:rx="33.640591"
       sodipodi:ry="33.737537"
       sodipodi:start="1.4106603"
       sodipodi:end="0.57299907"
       sodipodi:arc-type="arc"
       d="M 45.364076,73.305886 A 33.640591,33.737537 0 0 1 8.6305026,52.1859 33.640591,33.737537 0 0 1 21.593239,11.760719 a 33.640591,33.737537 0 0 1 42.123168,4.312165 33.640591,33.737537 0 0 1 4.551068,42.218075"
       sodipodi:open="true" /><path
       id="circle19"
       style="display:inline;fill:url(#linearGradient22);stroke:none;stroke-width:6.07775;stroke-opacity:1;paint-order:markers fill stroke"
       inkscape:label="peel"
       d="m 35.50237,79.915295 c 3.627794,-7.179794 9.601636,-13.405831 16.983083,-17.700047 7.409626,-4.24541 15.788451,-6.305893 23.820232,-5.857758 0,0 -13.402659,8.297753 -20.203212,12.224054 C 49.30192,72.507845 35.50237,79.915295 35.50237,79.915295 Z"
       sodipodi:nodetypes="ccczc" /></g><g
     inkscape:groupmode="layer"
     id="layer1"
     inkscape:label="rect"
     style="display:inline" /><g
     inkscape:groupmode="layer"
     id="layer2"
     inkscape:label="icon"><g
       style="display:inline;fill:#d60d5c;fill-opacity:1"
       id="g2"
       transform="matrix(0.04519729,0,0,0.04519729,19.856452,61.694699)"><path
         d="m 312,-240 q -51,0 -97.5,-18 Q 168,-276 131,-311 83,-356 61.5,-417.5 40,-479 40,-545 q 0,-78 38,-126.5 38,-48.5 111,-48.5 14,0 26.5,2.5 12.5,2.5 25.5,7.5 l 239,89 239,-89 q 13,-5 25.5,-7.5 12.5,-2.5 26.5,-2.5 73,0 111,48.5 38,48.5 38,126.5 0,66 -21.5,127.5 Q 877,-356 829,-311 q -37,35 -83.5,53 -46.5,18 -97.5,18 -66,0 -112,-30 l -46,-30 h -20 l -46,30 q -46,30 -112,30 z m 0,-80 q 37,0 69,-17.5 32,-17.5 59,-42.5 h 80 q 27,25 59,42.5 32,17.5 69,17.5 36,0 69.5,-12.5 33.5,-12.5 59.5,-38.5 34,-34 48.5,-80 14.5,-46 14.5,-94 0,-41 -17,-68.5 -17,-27.5 -54,-26.5 -3,0 -22,4 L 480,-536 213,-636 q -5,-2 -10.5,-3 -5.5,-1 -11.5,-1 -37,0 -54,27 -17,27 -17,68 0,49 14.5,95 14.5,46 49.5,80 26,25 59,37.5 33,12.5 69,12.5 z m 49,-60 q 37,0 58,-16.5 21,-16.5 21,-45.5 0,-49 -64.5,-93.5 Q 311,-580 239,-580 q -37,0 -58,16.5 -21,16.5 -21,45.5 0,49 64.5,93.5 Q 289,-380 361,-380 Z m -6,-60 q -38,0 -82.5,-25 -44.5,-25 -52.5,-51 5,-2 11.5,-3.5 6.5,-1.5 13.5,-1.5 38,0 82.5,25.5 44.5,25.5 52.5,51.5 -5,2 -11.5,3 -6.5,1 -13.5,1 z m 244,61 q 72,0 136.5,-45 64.5,-45 64.5,-94 0,-29 -20.5,-46 -20.5,-17 -58.5,-17 -72,0 -136.5,45 -64.5,45 -64.5,94 0,29 21,46 21,17 58,17 z m 6,-61 q -7,0 -13,-1 -6,-1 -11,-3 8,-26 52.5,-51 44.5,-25 82.5,-25 7,0 13,1 6,1 11,3 -8,26 -52.5,51 -44.5,25 -82.5,25 z m -125,-40 z"
         id="path1-8"
         style="fill:#d60d5c;fill-opacity:1" /></g></g><g
     inkscape:groupmode="layer"
     id="layer3"
     inkscape:label="text"
     style="display:inline"><circle
       style="display:none;fill:none;fill-opacity:1;stroke:#92079f;stroke-width:0.739426;stroke-opacity:1;paint-order:markers fill stroke"
       id="path3"
       cx="14.641016"
       cy="-54.641018"
       r="24.026592"
       transform="rotate(120)" /><path
       style="font-weight:900;font-size:9.33333px;font-family:'Noto Sans';-inkscape-font-specification:'Noto Sans Heavy';fill:#d60d5c;stroke-width:0.1;stroke-linecap:square;paint-order:stroke fill markers"
       d="m 22.613389,59.547254 q 0.321405,-0.435592 0.834867,-0.65988 0.505952,-0.229828 1.154453,-0.134095 0.63545,0.0977 1.371451,0.640765 0.368,0.271531 0.618171,0.514116 0.248202,0.229534 0.433114,0.481962 0.184912,0.252429 0.351596,0.561002 l -0.953131,1.291757 q -0.27489,-0.539201 -0.629329,-0.98631 -0.359981,-0.4396 -0.720471,-0.70559 -0.217796,-0.160702 -0.39177,-0.207877 -0.173974,-0.04717 -0.308063,-0.0069 -0.13409,0.04025 -0.217212,0.152903 -0.105287,0.142694 -0.07969,0.312366 0.02559,0.169671 0.1583,0.429975 0.132705,0.260304 0.369315,0.678467 0.200662,0.356842 0.33016,0.684373 0.129497,0.327531 0.163696,0.64274 0.02669,0.309667 -0.06606,0.624002 -0.09829,0.321844 -0.353194,0.667314 -0.382361,0.518205 -0.892615,0.675265 -0.515796,0.16457 -1.093862,0.0048 -0.591118,-0.157784 -1.191935,-0.6011 -0.525715,-0.387902 -0.857624,-0.818388 -0.33745,-0.422974 -0.55707,-0.817003 l 1.268779,-0.792075 q 0.2291,0.412621 0.500562,0.752109 0.25841,0.341457 0.543798,0.552032 0.187756,0.138537 0.341168,0.182139 0.153412,0.0436 0.27445,0.0053 0.107986,-0.03631 0.180025,-0.133944 0.0942,-0.127674 0.06861,-0.297346 -0.02559,-0.169671 -0.162237,-0.456079 -0.149695,-0.284438 -0.414741,-0.75838 -0.263078,-0.460891 -0.378285,-0.870669 -0.128258,-0.40781 -0.06038,-0.798486 0.05483,-0.388707 0.365151,-0.809279 z m -6.674604,-2.835096 3.971187,-3.296819 0.858484,1.034088 -0.35242,0.583706 0.06558,0.07899 q 0.302422,-0.04485 0.592649,0.04173 0.277084,0.08536 0.525307,0.267465 0.242262,0.174923 0.44496,0.419083 0.321932,0.387783 0.433442,0.82895 0.11151,0.441167 -0.05664,0.896154 -0.174111,0.447806 -0.683974,0.871086 l -2.585221,2.146212 -1.138684,-1.371604 2.168713,-1.800433 q 0.387783,-0.321931 0.499431,-0.596577 0.105685,-0.281826 -0.102974,-0.533167 -0.214621,-0.258522 -0.470298,-0.288873 -0.262857,-0.02439 -0.577473,0.151887 -0.320578,0.169095 -0.715543,0.496988 l -1.737843,1.442731 z m -2.78462,-4.995248 q -0.364046,-0.777675 0.05571,-1.51005 0.411303,-0.728418 1.577816,-1.274487 0.794581,-0.37196 1.450864,-0.400936 0.643874,-0.03347 1.104846,0.224784 0.448562,0.25376 0.678069,0.744033 0.154324,0.329666 0.176634,0.597467 0.02231,0.267801 -0.02481,0.475353 -0.05557,0.21151 -0.134879,0.372301 l 0.02374,0.05072 q 0.152693,-0.09209 0.330744,-0.19605 0.178052,-0.103961 0.423189,-0.218714 l 1.707504,-0.799319 0.755791,1.614521 -6.70322,3.137919 -0.613339,-1.310213 0.48487,-0.505223 -0.03561,-0.07608 q -0.241364,-0.03129 -0.468702,-0.120668 -0.231294,-0.09783 -0.435073,-0.29099 -0.20378,-0.193156 -0.354147,-0.51437 z m 1.552854,0.01506 q 0.110797,0.236683 0.292451,0.316533 0.173201,0.08381 0.420678,0.0401 0.247477,-0.04371 0.589554,-0.19354 l 0.126794,-0.05936 q 0.371932,-0.174109 0.601779,-0.343538 0.225891,-0.177881 0.293869,-0.384894 0.05953,-0.203057 -0.05523,-0.448193 -0.09497,-0.202872 -0.26817,-0.286679 -0.185611,-0.0883 -0.470857,-0.03722 -0.285246,0.05109 -0.699442,0.244981 -0.617068,0.288862 -0.795474,0.56818 -0.178407,0.279317 -0.03595,0.583625 z M 11.250915,45.55745 q -0.144904,-0.741982 0.0078,-1.323369 0.150941,-0.590547 0.608459,-0.974696 0.45573,-0.39331 1.234354,-0.54537 l 0.778623,-0.15206 0.61003,3.123655 q 0.390314,-0.09524 0.593133,-0.420143 0.201031,-0.33406 0.09727,-0.865356 -0.09303,-0.476334 -0.261552,-0.852337 -0.168527,-0.376003 -0.452345,-0.758019 l 1.254959,-0.245085 q 0.263923,0.328844 0.441395,0.750648 0.175683,0.412643 0.304487,1.072184 0.150271,0.769463 0.0027,1.425921 -0.158527,0.649086 -0.667645,1.10988 -0.509117,0.460794 -1.406825,0.636111 -0.916028,0.178894 -1.56311,-0.01806 -0.648871,-0.206118 -1.041965,-0.709438 -0.394883,-0.51248 -0.539788,-1.254463 z m 1.178314,-0.296684 q 0.06082,0.311449 0.294336,0.484568 0.231723,0.163959 0.660251,0.118308 L 13.09043,44.361356 q -0.229007,0.04472 -0.385163,0.170317 -0.167105,0.118221 -0.244828,0.304573 -0.07772,0.186353 -0.03121,0.42452 z m -1.677338,-7.340665 q 0.0027,-0.149309 0.0243,-0.307607 0.02156,-0.158299 0.04159,-0.232612 l 1.676817,0.189364 q -0.02037,0.09298 -0.04159,0.232611 -0.02105,0.130304 -0.02549,0.37293 -0.0031,0.167972 0.03067,0.364622 0.02458,0.187147 0.123988,0.366328 0.09958,0.16985 0.302828,0.285586 0.203421,0.106404 0.558028,0.112891 l 2.538241,0.04643 -0.0326,1.782368 -5.160468,-0.09439 0.02424,-1.325111 0.826317,-0.264932 0.0015,-0.08399 q -0.249398,-0.144585 -0.4506,-0.372303 -0.210534,-0.227888 -0.326897,-0.500728 -0.116193,-0.282172 -0.110901,-0.571457 z m 8.149049,-9.606661 -1.606649,3.616511 -6.090069,-2.705536 1.606649,-3.616511 1.322073,0.587336 -0.87532,1.970316 0.955305,0.424398 0.810903,-1.825315 1.322074,0.587337 -0.810903,1.825314 1.151484,0.511551 0.87532,-1.970316 z m -1.687147,-6.717168 q 0.488863,-0.636621 1.151147,-0.763505 0.662284,-0.126885 1.454359,0.481352 l 2.664923,2.046406 -1.085731,1.41389 -2.235575,-1.716707 q -0.407141,-0.312645 -0.705365,-0.353369 -0.298223,-0.04072 -0.497179,0.218366 -0.306961,0.399739 -0.08925,0.790504 0.223392,0.383362 0.837805,0.855172 l 1.791421,1.375639 -1.085732,1.41389 -4.093618,-3.143506 0.818562,-1.065969 0.688183,0.222499 0.03979,-0.05182 q -0.09015,-0.281042 -0.08696,-0.561024 0.0015,-0.293069 0.103655,-0.579393 0.107877,-0.293727 0.329571,-0.582427 z m 7.295538,-1.678189 q 0.186159,-0.155666 0.306583,-0.317196 0.121596,-0.174677 0.238378,-0.369661 l 0.832214,0.995235 q -0.144126,0.278681 -0.34084,0.552671 -0.196714,0.27399 -0.583352,0.597296 -0.386638,0.323307 -0.781978,0.447061 -0.38818,0.117766 -0.798333,-0.03809 -0.416139,-0.163013 -0.865176,-0.700011 l -1.365071,-1.632471 -0.479717,0.40114 -0.466998,-0.558477 0.249368,-0.938506 -0.343672,-1.123926 0.894995,-0.748394 0.664574,0.794755 0.973755,-0.814253 0.856163,1.023875 -0.973755,0.814253 1.287238,1.539392 q 0.161653,0.193318 0.338553,0.215725 0.178072,0.0093 0.357071,-0.14042 z m 2.366814,-6.144777 q 0.129605,-0.07418 0.276584,-0.136798 0.146978,-0.06262 0.221054,-0.08351 l 0.696834,1.536879 q -0.09028,0.03016 -0.221054,0.08351 -0.122677,0.04871 -0.333286,0.169252 -0.145806,0.08345 -0.297368,0.213219 -0.148098,0.117027 -0.251005,0.294221 -0.09481,0.172558 -0.09001,0.406401 0.0129,0.229207 0.189077,0.53702 l 1.261082,2.203292 -1.547164,0.88554 -2.563892,-4.479487 1.150248,-0.658359 0.651007,0.573739 0.0729,-0.04173 q -0.0037,-0.288254 0.08873,-0.577733 0.08777,-0.29758 0.26241,-0.537338 0.182738,-0.244394 0.433848,-0.388121 z M 31.04886,12.1204 q 0.719366,-0.232482 1.314832,-0.15028 0.604347,0.07933 1.040388,0.487697 0.444922,0.405495 0.688883,1.160386 l 0.243962,0.754891 -3.028443,0.978717 q 0.141178,0.376146 0.487974,0.538712 0.355677,0.159695 0.870778,-0.0068 0.461816,-0.149247 0.815,-0.361474 0.353185,-0.212227 0.698571,-0.539637 l 0.393209,1.216707 q -0.29497,0.301308 -0.692559,0.527885 -0.388709,0.223707 -1.028146,0.430357 -0.74601,0.241092 -1.415394,0.17297 -0.663374,-0.07987 -1.181673,-0.530314 -0.518299,-0.450442 -0.799573,-1.320787 -0.287014,-0.888107 -0.168747,-1.55408 0.127149,-0.668843 0.579919,-1.119234 0.461652,-0.453262 1.181019,-0.685743 z m 0.435285,1.134447 q -0.301956,0.09759 -0.445948,0.350101 -0.13511,0.249645 -0.03861,0.669655 L 32.456084,13.8039 q -0.07175,-0.222027 -0.215097,-0.362066 -0.137332,-0.15179 -0.331633,-0.2067 -0.194301,-0.05491 -0.425209,0.01971 z m 7.305449,-2.521207 q 0.856704,-0.05802 1.387599,0.598268 0.530264,0.64698 0.617299,1.932036 0.05929,0.875327 -0.151144,1.497636 -0.201748,0.612365 -0.609287,0.948673 -0.398858,0.326365 -0.938954,0.362945 -0.363168,0.0246 -0.620899,-0.05149 -0.25773,-0.07609 -0.434176,-0.195107 -0.177076,-0.128328 -0.298281,-0.26044 l -0.05587,0.0038 q 0.03061,0.175666 0.06311,0.379269 0.0325,0.203602 0.05079,0.47365 l 0.127399,1.881023 -1.778591,0.120462 -0.500137,-7.384413 1.44336,-0.09776 0.295572,0.634811 0.08381,-0.0057 q 0.116492,-0.213694 0.282068,-0.393293 0.174887,-0.18023 0.428686,-0.300321 0.253798,-0.120091 0.607654,-0.144057 z m -0.57586,1.442209 q -0.260736,0.01766 -0.400899,0.158118 -0.140793,0.131147 -0.189579,0.377674 -0.04879,0.246527 -0.03287,0.619637 l 0.0095,0.13968 q 0.02775,0.409728 0.102543,0.685304 0.08411,0.274945 0.2525,0.413215 0.167764,0.128958 0.437812,0.110668 0.223488,-0.01514 0.364281,-0.146283 0.149474,-0.14109 0.20505,-0.425495 0.05557,-0.284406 0.02467,-0.740694 -0.04604,-0.679775 -0.241889,-0.947152 -0.195848,-0.267377 -0.53108,-0.244672 z m 7.623638,-0.916067 q 0.147777,0.0215 0.302102,0.06282 0.154325,0.04132 0.225525,0.07054 l -0.398929,1.639643 q -0.08967,-0.03191 -0.225526,-0.07054 -0.126617,-0.03729 -0.366754,-0.07223 -0.166249,-0.02419 -0.365582,-0.01547 -0.188753,8.28e-4 -0.379022,0.07689 -0.181033,0.07741 -0.321433,0.264471 -0.131165,0.188409 -0.182236,0.53938 l -0.365562,2.512207 -1.764087,-0.2567 0.74322,-5.10754 1.311521,0.190845 0.158811,0.853093 0.08312,0.0121 q 0.174828,-0.229214 0.426061,-0.400152 0.252577,-0.180174 0.537894,-0.261267 0.294554,-0.07975 0.580872,-0.03809 z m 4.304351,1.271316 q 0.709705,0.260487 1.127844,0.692339 0.426901,0.435068 0.518427,1.025421 0.100288,0.59357 -0.173063,1.338322 l -0.273351,0.744753 -2.987773,-1.096619 q -0.12076,0.383189 0.05205,0.724996 0.181571,0.345023 0.689755,0.531545 0.455614,0.167226 0.86453,0.217891 0.408916,0.05067 0.882708,0.0058 l -0.440577,1.200367 q -0.418006,0.05536 -0.870731,-0.01138 -0.443963,-0.06353 -1.074813,-0.295074 -0.735991,-0.270135 -1.221008,-0.736476 -0.47304,-0.471887 -0.603387,-1.146084 -0.130347,-0.674197 0.18481,-1.532853 0.32159,-0.87618 0.825308,-1.327594 0.51248,-0.448199 1.146642,-0.523645 0.642924,-0.07223 1.35263,0.188257 z m -0.356734,1.161545 q -0.297901,-0.109341 -0.566956,6.91e-4 -0.260293,0.113248 -0.443272,0.503428 l 1.436935,0.527406 q 0.0804,-0.219045 0.05388,-0.417678 -0.01454,-0.204179 -0.133659,-0.367207 -0.119122,-0.163027 -0.346929,-0.24664 z m 7.388146,2.579904 q 0.66158,0.454516 0.823308,1.109164 0.161728,0.654648 -0.403775,1.477777 l -1.902624,2.769407 -1.469324,-1.009448 1.59609,-2.323225 q 0.290679,-0.423104 0.315576,-0.723063 0.0249,-0.299959 -0.24435,-0.484937 -0.415411,-0.285393 -0.794117,-0.04733 -0.371014,0.243352 -0.809674,0.881854 l -1.278987,1.861657 -1.469324,-1.009448 2.922643,-4.254116 1.107762,0.76105 -0.185797,0.698985 0.05385,0.037 q 0.275882,-0.104882 0.55564,-0.11651 0.292736,-0.01404 0.584064,0.07287 0.29902,0.0922 0.599039,0.298312 z m 4.90332,4.491407 q 0.497735,0.56903 0.657436,1.148541 0.165846,0.586535 -0.03707,1.148425 -0.196768,0.568915 -0.793898,1.09123 l -0.597131,0.522315 -2.095403,-2.395547 q -0.289788,0.27828 -0.302144,0.661088 -0.0062,0.389834 0.350193,0.797288 0.319534,0.365303 0.654014,0.605932 0.33448,0.240629 0.771696,0.428595 l -0.962433,0.841848 q -0.393322,-0.15196 -0.758527,-0.427714 -0.35906,-0.26873 -0.801491,-0.774534 -0.51617,-0.590106 -0.718005,-1.231961 -0.188665,-0.640976 0.02041,-1.295055 0.209073,-0.65408 0.897529,-1.256278 0.702507,-0.614488 1.361037,-0.768908 0.664674,-0.147395 1.257289,0.09064 0.598759,0.245063 1.096495,0.814093 z m -0.870244,0.84801 q -0.208926,-0.238852 -0.497785,-0.271386 -0.282714,-0.02551 -0.630446,0.229055 l 1.00776,1.15211 q 0.175627,-0.153622 0.247654,-0.340625 0.0852,-0.186123 0.05889,-0.386313 -0.02631,-0.200189 -0.186073,-0.382841 z m 5.970377,7.448593 -4.605196,2.33056 -0.606873,-1.199183 0.473463,-0.490657 -0.04636,-0.0916 q -0.304819,-0.02357 -0.568506,-0.172555 -0.251144,-0.144875 -0.452626,-0.377645 -0.197268,-0.224442 -0.340557,-0.507583 -0.227577,-0.449693 -0.23813,-0.904613 -0.01055,-0.454919 0.254618,-0.861086 0.269385,-0.397839 0.860649,-0.697061 l 2.997958,-1.517182 0.804949,1.590583 -2.514953,1.272747 q -0.449694,0.227578 -0.619653,0.470495 -0.165744,0.251246 -0.01824,0.542714 0.151718,0.299796 0.394232,0.386276 0.250841,0.08226 0.596793,-0.01959 0.350166,-0.09353 0.808187,-0.325318 l 2.015294,-1.019883 z m 1.592168,5.27051 q 0.03655,0.144791 0.05729,0.303201 0.02074,0.15841 0.02091,0.235374 l -1.667738,0.257341 q -0.0047,-0.09506 -0.02091,-0.235374 -0.01388,-0.131261 -0.07328,-0.366547 -0.04112,-0.162891 -0.125287,-0.343792 -0.07283,-0.174137 -0.215782,-0.320949 -0.140662,-0.137762 -0.367162,-0.1961 -0.224216,-0.04929 -0.568096,0.03752 l -2.461455,0.621342 -0.436309,-1.728448 5.004354,-1.263242 0.324377,1.285024 -0.727823,0.472506 0.02056,0.08145 q 0.278601,0.07406 0.532513,0.240997 0.262962,0.164647 0.446851,0.397385 0.186174,0.241787 0.256988,0.522321 z"
       id="text1"
       aria-label="Super  Entrepreneur" /></g><metadata
     id="metadata1"><rdf:RDF><cc:Work
         rdf:about=""><dc:title>helping hand sticker</dc:title><dc:contributor><cc:Agent><dc:title>Danish Khatri </dc:title></cc:Agent></dc:contributor><cc:license
           rdf:resource="http://creativecommons.org/publicdomain/zero/1.0/" /></cc:Work><cc:License
         rdf:about="http://creativecommons.org/publicdomain/zero/1.0/"><cc:permits
           rdf:resource="http://creativecommons.org/ns#Reproduction" /><cc:permits
           rdf:resource="http://creativecommons.org/ns#Distribution" /><cc:permits
           rdf:resource="http://creativecommons.org/ns#DerivativeWorks" /></cc:License></rdf:RDF></metadata></svg>
