<?xml version="1.0" encoding="UTF-8" standalone="no"?>
<!-- Created with Inkscape (http://www.inkscape.org/) -->

<svg
   version="1.1"
   id="svg1"
   width="80"
   height="80"
   viewBox="0 0 80 80"
   sodipodi:docname="ss.svg"
   inkscape:version="1.4 (86a8ad7, 2024-10-11)"
   xmlns:inkscape="http://www.inkscape.org/namespaces/inkscape"
   xmlns:sodipodi="http://sodipodi.sourceforge.net/DTD/sodipodi-0.dtd"
   xmlns:xlink="http://www.w3.org/1999/xlink"
   xmlns="http://www.w3.org/2000/svg"
   xmlns:svg="http://www.w3.org/2000/svg"
   xmlns:rdf="http://www.w3.org/1999/02/22-rdf-syntax-ns#"
   xmlns:cc="http://creativecommons.org/ns#"
   xmlns:dc="http://purl.org/dc/elements/1.1/">
  <title
     id="title1">helping hand sticker</title>
  <defs
     id="defs1">
    <linearGradient
       id="swatch27"
       inkscape:swatch="solid">
      <stop
         style="stop-color:#000000;stop-opacity:1;"
         offset="0"
         id="stop27" />
    </linearGradient>
    <linearGradient
       id="swatch26"
       inkscape:swatch="solid">
      <stop
         style="stop-color:#ffda63;stop-opacity:1;"
         offset="0"
         id="stop26" />
    </linearGradient>
    <linearGradient
       id="swatch21"
       inkscape:swatch="solid">
      <stop
         style="stop-color:#fffacd;stop-opacity:1;"
         offset="0"
         id="stop25" />
    </linearGradient>
    <linearGradient
       id="swatch20"
       inkscape:swatch="solid">
      <stop
         style="stop-color:#ffda64;stop-opacity:1;"
         offset="0"
         id="stop20" />
    </linearGradient>
    <linearGradient
       id="swatch17"
       inkscape:swatch="solid">
      <stop
         style="stop-color:#007aff;stop-opacity:1;"
         offset="0"
         id="stop17" />
    </linearGradient>
    <linearGradient
       id="swatch16"
       inkscape:swatch="solid">
      <stop
         style="stop-color:#f29db5;stop-opacity:1;"
         offset="0"
         id="stop16" />
    </linearGradient>
    <linearGradient
       id="swatch15"
       inkscape:swatch="solid">
      <stop
         style="stop-color:#fffacd;stop-opacity:1;"
         offset="0"
         id="stop15" />
    </linearGradient>
    <linearGradient
       id="swatch14"
       inkscape:swatch="solid">
      <stop
         style="stop-color:#ff9505;stop-opacity:1;"
         offset="0"
         id="stop14" />
    </linearGradient>
    <linearGradient
       id="swatch11"
       inkscape:swatch="solid">
      <stop
         style="stop-color:#ff9505;stop-opacity:1;"
         offset="0"
         id="stop11" />
    </linearGradient>
    <inkscape:path-effect
       effect="bspline"
       id="path-effect24"
       is_visible="true"
       lpeversion="1.3"
       weight="33.333333"
       steps="2"
       helper_size="0"
       apply_no_weight="true"
       apply_with_weight="true"
       only_selected="false"
       uniform="false" />
    <linearGradient
       id="linearGradient21"
       inkscape:collect="always">
      <stop
         style="stop-color:#bfbfbf;stop-opacity:1;"
         offset="0"
         id="stop21" />
      <stop
         style="stop-color:#ffffff;stop-opacity:1;"
         offset="0.13513535"
         id="stop23" />
      <stop
         style="stop-color:#dfdfdf;stop-opacity:1;"
         offset="0.2256761"
         id="stop24" />
      <stop
         style="stop-color:#b4b4b4;stop-opacity:1;"
         offset="1"
         id="stop22" />
    </linearGradient>
    <linearGradient
       id="swatch19"
       inkscape:swatch="solid">
      <stop
         style="stop-color:#d999d9;stop-opacity:1;"
         offset="0"
         id="stop19" />
    </linearGradient>
    <clipPath
       clipPathUnits="userSpaceOnUse"
       id="clipPath54">
      <path
         id="path54"
         style="stroke-width:0.0999999;stroke-linecap:square;paint-order:markers fill stroke;stop-color:#000000"
         d="m 1691.1994,-792.32001 h 1634.8919 v 92.82806 H 1691.1994 Z" />
    </clipPath>
    <inkscape:path-effect
       effect="bspline"
       id="path-effect5"
       is_visible="true"
       lpeversion="1.3"
       weight="33.333333"
       steps="2"
       helper_size="0"
       apply_no_weight="true"
       apply_with_weight="true"
       only_selected="false"
       uniform="false" />
    <inkscape:path-effect
       effect="bspline"
       id="path-effect2"
       is_visible="true"
       lpeversion="1.3"
       weight="33.333333"
       steps="2"
       helper_size="0"
       apply_no_weight="true"
       apply_with_weight="true"
       only_selected="false"
       uniform="false" />
    <inkscape:path-effect
       effect="bspline"
       id="path-effect1"
       is_visible="true"
       lpeversion="1.3"
       weight="33.333333"
       steps="2"
       helper_size="0"
       apply_no_weight="true"
       apply_with_weight="true"
       only_selected="false"
       uniform="false" />
    <inkscape:path-effect
       effect="bspline"
       id="path-effect2-4"
       is_visible="true"
       lpeversion="1.3"
       weight="33.333333"
       steps="2"
       helper_size="0"
       apply_no_weight="true"
       apply_with_weight="true"
       only_selected="false"
       uniform="false" />
    <linearGradient
       inkscape:collect="always"
       xlink:href="#linearGradient21"
       id="linearGradient22"
       x1="40.138695"
       y1="68.618027"
       x2="40.138695"
       y2="76.799126"
       gradientUnits="userSpaceOnUse"
       gradientTransform="matrix(0.90611104,-0.52314345,-0.43845445,-0.75942539,49.926641,141.48622)" />
    <filter
       inkscape:collect="always"
       style="color-interpolation-filters:sRGB"
       id="filter1"
       x="-0.11604381"
       y="-0.20048088"
       width="1.2320876"
       height="1.4009618">
      <feGaussianBlur
         inkscape:collect="always"
         stdDeviation="1.972905"
         id="feGaussianBlur1" />
    </filter>
    <linearGradient
       inkscape:collect="always"
       xlink:href="#swatch15"
       id="linearGradient15"
       x1="6.3594093"
       y1="40.262463"
       x2="74.359409"
       y2="40.262463"
       gradientUnits="userSpaceOnUse" />
    <linearGradient
       inkscape:collect="always"
       xlink:href="#swatch17"
       id="linearGradient17"
       x1="-7.2650877"
       y1="-11.2331"
       x2="55.401818"
       y2="-11.2331"
       gradientUnits="userSpaceOnUse" />
    <linearGradient
       inkscape:collect="always"
       xlink:href="#swatch20"
       id="linearGradient25"
       x1="-0.00088267494"
       y1="40"
       x2="80.000885"
       y2="40"
       gradientUnits="userSpaceOnUse" />
    <linearGradient
       inkscape:collect="always"
       xlink:href="#swatch20"
       id="linearGradient27"
       x1="3.1658123"
       y1="39.933102"
       x2="76.821182"
       y2="39.933102"
       gradientUnits="userSpaceOnUse" />
  </defs>
  <sodipodi:namedview
     id="namedview1"
     pagecolor="#505050"
     bordercolor="#eeeeee"
     borderopacity="1"
     inkscape:showpageshadow="0"
     inkscape:pageopacity="0"
     inkscape:pagecheckerboard="0"
     inkscape:deskcolor="#505050"
     inkscape:zoom="10.31492"
     inkscape:cx="31.847072"
     inkscape:cy="43.238338"
     inkscape:window-width="1717"
     inkscape:window-height="1360"
     inkscape:window-x="3627"
     inkscape:window-y="0"
     inkscape:window-maximized="0"
     inkscape:current-layer="g1"
     showgrid="false" />
  <g
     inkscape:groupmode="layer"
     id="layer5"
     inkscape:label="shadow"
     transform="translate(5.232603,-23.562244)"
     style="display:inline">
    <path
       id="path1-7"
       style="display:inline;fill:#aaaaaa;fill-opacity:1;stroke:none;stroke-width:6.07775;stroke-opacity:1;paint-order:markers fill stroke;filter:url(#filter1)"
       inkscape:label="peel_shadow"
       d="m 30.26937,103.47729 c 3.627794,-7.179789 9.601636,-13.405826 16.983083,-17.700042 7.409626,-4.24541 15.788451,-6.305893 23.820232,-5.857758 0,0 -13.402659,8.297753 -20.203212,12.224054 C 44.06892,96.069845 30.26937,103.47729 30.26937,103.47729 Z"
       sodipodi:nodetypes="ccczc" />
  </g>
  <g
     inkscape:groupmode="layer"
     inkscape:label="badge"
     id="g1"
     style="display:inline">
    <path
       id="path2"
       style="display:inline;fill:url(#linearGradient25);fill-opacity:1;stroke:url(#linearGradient27);stroke-width:6.36038;stroke-linecap:square;stroke-linejoin:miter;stroke-opacity:1;paint-order:fill markers stroke"
       inkscape:label="circle"
       d="M 21.598475,8.1250487 C 3.9718638,18.336796 -2.0674295,40.954274 8.1095178,58.641919 13.826999,68.509786 23.765251,75.1751 35.037956,76.702087 L 74.061995,54.09305 C 78.380531,43.533094 77.597366,31.563672 71.939953,21.661003 61.763661,3.972979 39.224711,-2.0873555 21.598475,8.1250487 Z"
       sodipodi:nodetypes="cccccc" />
    <path
       style="display:inline;fill:url(#linearGradient15);fill-opacity:1;stroke-width:1.11353;stroke-linecap:square;stroke-linejoin:miter;paint-order:stroke fill markers;stroke:none;stroke-opacity:1"
       id="path4"
       sodipodi:type="arc"
       sodipodi:cx="40.359409"
       sodipodi:cy="40.262463"
       sodipodi:rx="34"
       sodipodi:ry="34"
       sodipodi:start="1.4106603"
       sodipodi:end="0.57299907"
       sodipodi:arc-type="arc"
       d="M 45.780794,73.827453 A 34,34 0 0 1 8.6547665,52.543164 34,34 0 0 1 21.755994,11.803493 a 34,34 0 0 1 42.573204,4.345711 34,34 0 0 1 4.59969,42.546513"
       sodipodi:open="true" />
    <path
       id="circle19"
       style="display:inline;fill:url(#linearGradient22);stroke:none;stroke-width:6;stroke-opacity:1;paint-order:markers fill stroke;stroke-dasharray:none"
       inkscape:label="circle"
       d="m 35.50237,79.915295 c 3.627794,-7.179794 9.601636,-13.405831 16.983083,-17.700047 7.409626,-4.24541 15.788451,-6.305893 23.820232,-5.857758 0,0 -13.402659,8.297753 -20.203212,12.224054 C 49.30192,72.507845 35.50237,79.915295 35.50237,79.915295 Z"
       sodipodi:nodetypes="ccczc" />
  </g>
  <g
     inkscape:groupmode="layer"
     id="layer4"
     inkscape:label="piggy">
    <g
       id="g12"
       transform="matrix(0.14243449,0,0,0.14243449,10.80188,-7.1610527)"
       style="display:inline;fill:#ffb347;fill-opacity:1;stroke:#29abe2;stroke-opacity:1;stroke-width:10.53115717;stroke-dasharray:none">
      <path
         class="st0"
         d="m 211.96616,479.0311 c -23.6,0 -29.9,-14.9 -30.2,-15.5 l -0.2,-0.4 v -0.5 c -0.2,-4.9 -1,-18.6 -2.6,-23.6 -0.3,-1 -0.9,-1.9 -1.6,-2.7 l -2.5,-2.7 -1.9,3.1 c -2.8,4.5 -7.9,7.5 -15.2,8.9 -2.6,0.5 -5.2,0.8 -7.8,0.8 -17.2,0 -26,-11.9 -26.4,-12.4 l -0.6,-0.8 2.4,-29.1 -0.7,-0.9 c -14.5,-17.3 -23.8,-35.8 -27.5,-54.7 -3.1,-15.7 -2.5,-31.9 1.9,-48 6.1,-22.4 17.5,-38.1 22.1,-43.8 l 0.6,-0.8 v -1 c 0,-4.8 2.3,-9.6 4.1,-12.8 l 1,-1.6 -1.2,-1.5 c -3.7,-4.8 -4.4,-11.9 -3.4,-16.7 1.1,-5.2 4.1,-8.6 8,-9.1 0.6,-0.1 1.2,-0.1 1.8,-0.1 3,0 4.8,1.2 5.7,2.2 1.9,2.1 2.1,5 1.9,7.3 l -0.1,2 1.8,0.8 c 0.4,0.2 0.9,0.4 1.4,0.5 l 0.8,0.3 0.8,-0.2 c 1.9,-0.5 3.9,-0.7 5.8,-0.7 4.2,0 7.5,1.1 9.5,2.1 l 0.9,0.4 1,-0.3 c 15.7,-4 30.6,-6.1 44.3,-6.1 28.1,0 44.9,8.5 52.4,13.6 l 2.2,1.5 1.6,-2.1 c 5.2,-6.9 17.1,-18.8 38,-20.8 2.1,-0.2 4.2,-0.3 6.2,-0.3 15,0 26.3,5.4 33.1,9.9 5.3,3.5 6.9,10.6 3.7,16.1 l -0.1,0.2 -0.2,0.2 c -10.7,11.8 -18.9,25.4 -24.5,40.4 l -0.9,2.4 0.4,1 c 6,15.5 7.9,40.8 8.5,54.5 0.2,3.9 2.6,7.5 6.3,9.3 0.3,0.1 0.5,0.3 0.7,0.4 5.9,4.3 9,11.9 9,21.7 0,7.6 -1.9,16 -5.1,22.6 -6.7,13.8 -19.4,23.3 -33.3,24.8 l -0.5,0.1 c -0.5,0.1 -1.2,0.2 -2,0.3 l -3.2,0.4 0.9,3.2 c 1.1,4 1.8,9.8 -0.9,15.1 -2.6,5 -7.7,8.3 -15.1,9.7 -2.5,0.5 -4.9,0.7 -7.1,0.7 -9.5,0 -14.6,-4.2 -17.2,-7.8 -0.6,-0.8 -1.1,-1.6 -1.6,-2.5 l -1.1,-2.2 -9.5,3.5 -0.3,0.2 c -1.9,1.4 -2.4,4.5 -2.6,11.6 -0.2,5.6 -0.5,12 -3.2,17.5 -3.3,6.5 -9.5,10.5 -18.6,11.9 -3.4,0.2 -6.7,0.5 -9.9,0.5 z"
         id="path1-1"
         style="display:inline;fill:#ffb347;fill-opacity:1;stroke:#29abe2;stroke-width:10.5312;stroke-dasharray:none;stroke-opacity:1" />
      <g
         id="g7"
         transform="translate(23.60831,15.331104)"
         style="fill:#ffb347;fill-opacity:1;stroke:#29abe2;stroke-opacity:1;stroke-width:10.53115717;stroke-dasharray:none">
        <path
           class="st1"
           d="m 317.4,205.5 c -7.1,-4.7 -18.9,-10.4 -34.6,-10.4 -2.1,0 -4.3,0.1 -6.5,0.3 -21.9,2.1 -34.4,14.5 -40,21.9 -8,-5.4 -25.3,-14.1 -54,-14.1 -14,0 -29.1,2.1 -45.1,6.2 -2.3,-1.1 -6,-2.4 -10.7,-2.4 -1.8,0 -3.6,0.2 -5.4,0.6 0,0 0,0 0,0 -1.2,0.2 -2.2,-0.7 -2.3,-1.9 0,-2.4 -0.5,-5.3 -2.7,-7.7 -1.3,-1.4 -3.7,-3.1 -7.7,-3.1 -0.7,0 -1.4,0 -2.1,0.1 -5.2,0.6 -9.1,4.9 -10.4,11.3 -1.2,6 -0.1,13.8 3.9,19 -2.1,3.5 -4.5,8.8 -4.5,14.2 -4.3,5.3 -16.3,21.6 -22.6,44.9 -4.5,16.5 -5.1,33.1 -1.9,49.3 3.9,19.5 13.3,38.3 28.1,56 l -2.2,27 c -0.1,1.3 0.3,2.6 1,3.7 0.4,0.6 10,13.6 28.6,13.6 2.7,0 5.5,-0.3 8.3,-0.8 9.5,-1.9 14.4,-6.1 17,-10.2 0.4,0.4 0.8,1 1,1.7 1.4,4.4 1.3,9.4 2.1,13.7 0.4,2.4 0.7,4.9 0.4,7.4 -0.6,5.5 5,11 9.2,14 5.8,4.2 13,6.2 20.1,6.7 1.3,0.1 2.6,0.1 3.9,0.1 3.3,0 6.7,-0.3 10.3,-0.8 10.1,-1.5 17,-6 20.7,-13.4 3.1,-6.1 3.3,-12.7 3.5,-18.6 0.1,-3.2 0.3,-8.6 1.5,-9.4 l 6.8,-2.5 c 0.5,0.9 1.1,1.9 1.8,2.9 3,4.1 8.8,8.9 19.4,8.9 2.4,0 4.9,-0.2 7.6,-0.7 8.3,-1.5 14.1,-5.3 17.1,-11.1 3.2,-6.2 2.3,-13 1.1,-17.1 0.8,-0.1 1.5,-0.2 2,-0.3 0.2,0 0.4,0 0.4,-0.1 14.8,-1.7 28.5,-11.8 35.6,-26.4 3.3,-6.9 5.3,-15.8 5.4,-23.8 0,-3.6 -0.4,-7.2 -1.3,-10.6 -0.8,-3 -2.1,-5.9 -4,-8.5 -1,-1.3 -2,-2.6 -3.3,-3.7 -1.1,-1 -2.4,-1.7 -3.7,-2.5 -0.3,-0.2 -0.6,-0.4 -0.9,-0.7 -0.4,-0.4 -0.8,-0.8 -1.2,-1.2 -1,-1.3 -1.6,-2.8 -1.7,-4.4 -0.6,-14.2 -2.6,-39.6 -8.7,-55.4 l 0.5,-1.4 c 5.4,-14.6 13.5,-28 23.9,-39.5 l 0.4,-0.4 0.3,-0.5 c 4.1,-6.9 2.1,-15.6 -4.4,-19.9 z M 120,213.6 c 2.3,-0.8 4.5,-1 6.5,-1 1.8,0 3.3,0.2 4.7,0.6 -13.6,6.1 -23.2,14 -28.9,19.7 0.2,-0.6 0.5,-1.2 0.8,-1.8 6.9,-14.2 16.9,-17.5 16.9,-17.5 z m -13.1,-13.1 c 0.5,-0.1 1,-0.1 1.4,-0.1 2.2,0 4.1,1 4.7,3.2 0.3,1.2 0.4,2.5 0.3,3.7 0,1.1 -0.1,2.5 -0.5,3.5 -0.2,0.6 -0.7,1.2 -1.2,1.6 -3.7,2.7 -6.4,5.8 -8.3,8.5 -4.6,-7 -2.9,-19.5 3.6,-20.4 z m 26.6,227.1 c -2.6,0.5 -5,0.7 -7.2,0.7 -11.8,0 -19.3,-6.1 -22.4,-9.3 -1.1,-1.1 -1.7,-2.7 -1.5,-4.3 l 1.7,-21 c 6.9,5 22.7,15.3 44.3,23.1 -1.3,4.4 -5.1,8.9 -14.9,10.8 z m 64.2,32.6 c -3.5,0.5 -6.6,0.8 -9.5,0.8 -15.2,0 -22.6,-6.5 -25.7,-10.6 -1.3,-1.7 -2,-3.7 -2.1,-5.8 -0.3,-5.2 -1.1,-16.8 -2.6,-21.7 -0.4,-1.4 -1.1,-2.5 -1.9,-3.4 8.7,2.7 18.2,4.9 28.3,6.1 5.5,0.7 10.4,1 14.9,1 7.4,0 13.6,-0.8 19.1,-2.1 -2.8,10.5 4,32 -20.5,35.7 z m 61.2,-32.8 c -2.4,0.4 -4.6,0.7 -6.6,0.7 -10.7,0 -15.1,-5.9 -16.9,-9.9 2.2,-1 4.3,-2.1 6.3,-3.1 8.7,-4.3 17.7,-8.8 30.5,-10.6 1.8,4.9 5.2,19.5 -13.3,22.9 z m 51.4,-91.2 c 11.5,11.9 5.8,32.6 -2.3,44.7 -6.1,9.1 -18.8,19.7 -30.6,17.2 -4.5,-1 -6.9,-7.4 -7.9,-11.3 -4.5,-16.8 2.8,-34.8 14.7,-46.8 5.4,-5.5 14.3,-10.5 22,-6.8 1.6,0.8 3,1.9 4.1,3 z M 121.5,397.8 C 109.2,391 98.6,381.7 91.1,369.7 84,358.4 78.8,345.9 76.1,332.8 72,312.5 74.7,291.6 82.4,272.5 c 2.6,-6.4 5.7,-12.6 9.4,-18.5 1.3,-2.1 2.4,-4.2 3.7,-6.2 2.8,-4.3 6.5,-8.1 10.2,-11.7 2.4,-2.3 4.8,-4.5 7.4,-6.6 9.6,-7.6 20.7,-13.5 32.5,-16.5 3.1,-0.8 6.2,-1.3 9.3,-1.9 6.1,-1 12.2,-1.8 18.3,-2.2 3,-0.2 6,-0.3 9,-0.3 38.8,0 55.3,16.5 55.3,16.5 0,0 11,-21.7 39.2,-24.4 2.1,-0.2 4,-0.3 6,-0.3 14.4,0 25.1,5.2 31.6,9.5 0.3,0.2 0.5,0.4 0.8,0.6 -7.9,-1.5 -20.9,-1.6 -33.3,9.2 -19.3,16.8 -17.6,37.9 -17.5,38.8 l 0.2,2.4 2.4,-0.3 c 0.1,0 13.5,-1.3 24,6.2 l -0.1,0.2 c 6.5,14.9 8.5,41.7 9.1,55.6 0.1,1.4 0.4,2.8 0.9,4.1 -5.8,-0.2 -11.7,2.3 -16.3,6.3 -9.1,7.8 -16.9,20.1 -19.7,31.4 -2.7,10.9 -2,26 5.6,34.7 -13.1,2.1 -22.3,6.6 -31.1,11 -13.8,6.9 -26.7,11.3 -54.5,9.9 -20.8,-1 -46.9,-13.1 -63.3,-22.2 z M 317.2,222.5 v 0 c -10.5,11.7 -18.8,25.2 -24.5,39.8 -8.9,-5.9 -19,-6.5 -23.6,-6.5 0.2,-5.6 2.1,-20.4 15.9,-32.4 13.8,-12.1 28.1,-8.9 33.4,-7.1 0.3,2.1 -0.1,4.3 -1.2,6.2 z"
           id="path2-7"
           style="display:inline;fill:#ffb347;fill-opacity:1;stroke:#29abe2;stroke-width:8.77596;stroke-dasharray:none;stroke-opacity:1" />
        <path
           class="st1"
           d="m 165.5,223.9 c 15.6,1.9 29.9,5.9 42.5,11.5 2.7,1.2 6,0.4 7.6,-1.8 1.6,-2.2 0.7,-5.1 -2.1,-6.4 -13.4,-6 -28.6,-10.4 -45,-12.5 -3.5,-0.5 -7.1,1.4 -7.8,3.9 -0.7,2.6 1.5,4.9 4.8,5.3 z"
           id="path3-1"
           style="fill:#ffb347;fill-opacity:1;stroke:#29abe2;stroke-opacity:1;stroke-width:4.91454001;stroke-dasharray:none" />
        <path
           class="st1"
           d="m 264.2,314.5 c -1.3,0 -2.4,1.9 -2.4,4.3 0,2.3 1.1,4.3 2.4,4.3 1.3,0 2.4,-1.9 2.4,-4.3 0,-2.4 -1.1,-4.3 -2.4,-4.3 z"
           id="path4-1"
           style="fill:#ffb347;fill-opacity:1;stroke:#29abe2;stroke-opacity:1;stroke-width:10.53115717;stroke-dasharray:none" />
        <ellipse
           transform="matrix(0.866,-0.5,0.5,0.866,-117.7202,183.0747)"
           class="st1"
           cx="282.79999"
           cy="311.20001"
           rx="2.4000001"
           ry="4.3000002"
           id="ellipse4"
           style="fill:#ffb347;fill-opacity:1;stroke:#29abe2;stroke-opacity:1;stroke-width:10.53138886;stroke-dasharray:none" />
        <path
           class="st1"
           d="m 287.2,359 c -1.3,-0.3 -3.1,3.2 -3.1,7.8 0,4.7 1.8,8.1 3.1,7.8 1.3,-0.3 1.6,-3.8 1.6,-7.8 0,-4 -0.3,-7.5 -1.6,-7.8 z"
           id="path5"
           style="display:inline;fill:#ffb347;fill-opacity:1;stroke:#29abe2;stroke-width:10.5312;stroke-dasharray:none;stroke-opacity:1" />
        <path
           class="st1"
           d="m 299.5,352.3 c -1.3,0.3 -1.6,3.8 -1.6,7.8 0,4.1 0.3,7.6 1.6,7.8 1.3,0.3 3.1,-3.2 3.1,-7.8 0.1,-4.6 -1.8,-8.1 -3.1,-7.8 z"
           id="path6"
           style="display:inline;fill:#ffb347;fill-opacity:1;stroke:#29abe2;stroke-width:10.5312;stroke-dasharray:none;stroke-opacity:1" />
        <path
           class="st1"
           d="m 217.5,244.5 c -6,-3 -13.7,-4.2 -23,-3.5 -16.4,1.3 -28.7,11.6 -33.6,28.4 -5,16.9 -1.4,36.5 8,43.7 15.8,12 17.4,12.2 18,12.3 l 2.4,0.3 0.3,-2.4 c 0.1,-0.4 5.8,-41.5 39.8,-48.7 l 1.6,-0.3 0.2,-1.7 c 0,-0.1 2.7,-19.7 -13.7,-28.1 z m -52,26.3 c 2.5,-8.6 9.7,-23.4 29.4,-24.9 1.7,-0.1 3.3,-0.2 4.9,-0.2 4.5,0 8.4,0.5 11.8,1.6 -3.3,2.7 -8.4,7.6 -13.3,15.1 -7,10.7 -14.8,29 -13.7,56.3 -2.4,-1.6 -6.3,-4.4 -12.7,-9.4 -7.8,-5.9 -10.8,-23.9 -6.4,-38.5 z m 61,-0.4 c -14.6,3.7 -26.4,13.7 -34.2,29.1 -1.1,2.2 -2.1,4.4 -2.9,6.4 1.3,-19 7.2,-32.3 12.6,-40.7 5.8,-9 12,-14 14.5,-15.7 9.8,5.8 10.3,16.8 10,20.9 z"
           id="path7"
           style="display:inline;fill:#ffb347;fill-opacity:1;stroke:#29abe2;stroke-width:10.5312;stroke-dasharray:none;stroke-opacity:1" />
      </g>
    </g>
  </g>
  <g
     inkscape:groupmode="layer"
     id="layer1"
     inkscape:label="rect"
     style="display:inline" />
  <g
     inkscape:groupmode="layer"
     id="layer3"
     inkscape:label="text"
     style="display:inline">
    <path
       d="m 22.933613,59.402533 q 0.329037,-0.446533 0.790494,-0.623241 0.446543,-0.174449 1.008781,-0.0384 0.562239,0.136052 1.223451,0.62328 0.498056,0.367003 0.82527,0.714117 0.333542,0.338526 0.578046,0.743941 L 26.5687,61.895628 q -0.244955,-0.458747 -0.606969,-0.884502 -0.362014,-0.425756 -0.679739,-0.659879 -0.39501,-0.291071 -0.649012,-0.305991 -0.26259,-0.02125 -0.401798,0.167671 -0.09492,0.128807 -0.07639,0.301457 0.0099,0.166323 0.159534,0.448802 0.141007,0.276152 0.441553,0.749363 0.294219,0.481797 0.444715,0.87094 0.144168,0.39773 0.100321,0.762915 -0.05243,0.358857 -0.337178,0.74528 -0.474573,0.644037 -1.227994,0.605606 -0.768336,-0.03617 -1.609879,-0.656281 -0.455119,-0.335365 -0.771938,-0.714567 -0.325406,-0.385531 -0.60245,-0.854673 l 1.029583,-0.606062 q 0.218742,0.386432 0.492625,0.733997 0.273883,0.347564 0.540085,0.543721 0.291963,0.21514 0.524724,0.240906 0.226432,0.03435 0.346657,-0.128803 0.08859,-0.12022 0.07232,-0.277955 -0.02485,-0.164063 -0.17219,-0.431628 -0.155921,-0.273892 -0.44788,-0.740775 -0.300546,-0.473211 -0.444715,-0.870941 -0.159083,-0.39547 -0.100321,-0.762914 0.04385,-0.365185 0.341247,-0.768782 z m -8.90471,-4.277135 q -0.572627,-0.823071 -0.453496,-1.529676 0.11913,-0.706605 1.047274,-1.352332 l 3.117163,-2.16867 0.913765,1.313411 -2.784431,1.937183 q -0.551633,0.383781 -0.66012,0.732136 -0.117243,0.354448 0.138611,0.722203 0.353323,0.507852 0.876037,0.456052 0.513957,-0.04571 1.196931,-0.520867 l 2.390409,-1.663053 0.919857,1.322168 -2.784432,1.937182 q -0.358999,0.249763 -0.531831,0.486953 -0.172832,0.237191 -0.168253,0.467902 -0.0042,0.236802 0.166392,0.481972 0.249763,0.358999 0.579843,0.441218 0.323988,0.07346 0.735149,-0.08265 0.405069,-0.164866 0.912921,-0.518188 l 2.241555,-1.559493 0.919857,1.322167 -4.780817,3.326106 -0.706645,-1.015705 0.478906,-0.619057 -0.03046,-0.04378 q -0.316371,0.0122 -0.614091,-0.07954 -0.303811,-0.100494 -0.571461,-0.317107 -0.276406,-0.21052 -0.507893,-0.543251 -0.371598,-0.534121 -0.431391,-1.012291 -0.06588,-0.486926 0.144247,-0.931987 l -0.03046,-0.04378 q -0.523477,0.01335 -0.960545,-0.241327 -0.445823,-0.248584 -0.762595,-0.7039 z m -3.039228,-7.65049 q -0.280758,-1.062192 0.07736,-1.752633 0.347809,-0.687716 1.3275,-0.946667 l 3.753765,-0.992191 0.286209,1.082817 -0.68408,0.500773 0.0109,0.04125 q 0.361758,0.158141 0.625841,0.364164 0.261357,0.195711 0.431083,0.503906 0.180039,0.305469 0.305425,0.779846 0.130839,0.495002 0.04879,0.935943 -0.09236,0.443666 -0.424266,0.774123 -0.331909,0.330456 -0.930037,0.488552 -0.886878,0.234419 -1.499317,-0.287749 -0.612439,-0.522168 -0.999275,-1.776982 l -0.278986,-0.930264 -0.175313,0.04634 q -0.505314,0.133564 -0.641285,0.41223 -0.146283,0.281392 -0.03725,0.693894 0.100854,0.381564 0.330911,0.751043 0.230057,0.36948 0.50895,0.715018 l -0.942256,0.734509 q -0.344086,-0.383472 -0.628068,-0.915226 -0.286707,-0.542067 -0.46661,-1.222695 z m 3.144734,-0.875345 q 0.214157,0.726739 0.507043,0.958249 0.292886,0.231509 0.684762,0.127929 0.360939,-0.0954 0.484462,-0.33768 0.110485,-0.249864 0.02053,-0.590178 -0.128113,-0.484689 -0.50409,-0.738368 -0.378702,-0.263992 -0.914954,-0.12225 l -0.464065,0.122661 z m -4.12373,-7.430503 q -0.0042,-0.159946 0.01239,-0.341776 0.0056,-0.192215 0.03483,-0.299683 l 1.507679,0.120559 q -0.01825,0.117853 -0.03539,0.278357 -0.01714,0.160504 -0.01127,0.384428 0.0064,0.24525 0.08777,0.499208 0.08107,0.243294 0.257262,0.452086 0.176195,0.208791 0.456786,0.329485 0.280591,0.120694 0.707113,0.10952 l 2.953663,-0.07738 0.04218,1.610119 -5.822021,0.152517 -0.03212,-1.22625 0.974854,-0.260286 -0.002,-0.07464 Q 10.828746,40.66282 10.576792,40.413332 10.324838,40.163843 10.177839,39.847584 10.020176,39.531603 10.010679,39.16906 Z m 5.324247,-4.372442 q 0.04496,-0.262851 0.03375,-0.513665 -0.01121,-0.250814 -0.04345,-0.505224 l 1.167057,0.199609 q 0.06198,0.270319 0.07084,0.661412 0.02117,0.382377 -0.05435,0.823966 -0.08812,0.515187 -0.326473,0.896462 -0.236559,0.37076 -0.687966,0.54245 -0.460123,0.159377 -1.196105,0.0335 l -2.765188,-0.472947 -0.127678,0.746496 -0.662384,-0.113292 -0.378242,-0.952064 -1.1317868,-0.658905 0.1708364,-0.998832 1.2196264,0.2086 0.275137,-1.608645 1.17757,0.201407 -0.275136,1.608645 2.765188,0.472947 q 0.325935,0.05575 0.526528,-0.104733 0.19008,-0.162278 0.24223,-0.467185 z m 3.036769,-8.936499 q 0.488712,0.262332 0.729125,0.694038 0.236059,0.417263 0.181182,0.99312 -0.05488,0.575857 -0.44333,1.299526 -0.2926,0.545102 -0.589759,0.918268 -0.287761,0.378212 -0.654371,0.67778 l -1.174788,-0.630604 q 0.419337,-0.307584 0.789404,-0.72636 0.370066,-0.418775 0.556725,-0.766513 0.232062,-0.432322 0.210781,-0.68587 -0.01624,-0.262948 -0.222999,-0.373934 -0.140975,-0.07567 -0.309247,-0.03283 -0.163228,0.03345 -0.421617,0.221616 -0.253344,0.178773 -0.679108,0.543438 -0.435164,0.35962 -0.799007,0.563823 -0.373243,0.199157 -0.740954,0.207583 -0.362667,-9.72e-4 -0.78559,-0.227989 -0.704873,-0.378363 -0.773762,-1.129612 -0.07324,-0.765691 0.421152,-1.686725 0.267377,-0.49811 0.597776,-0.865541 0.335443,-0.376829 0.760517,-0.717652 l 0.746052,0.933143 q -0.351475,0.271374 -0.656649,0.591813 -0.305175,0.320439 -0.461565,0.611786 -0.171525,0.319542 -0.163995,0.553603 -0.0019,0.229017 0.176699,0.324868 0.131576,0.07063 0.285406,0.03214 0.158874,-0.04789 0.40282,-0.231706 0.24899,-0.193216 0.66971,-0.548483 0.425765,-0.364665 0.799007,-0.563822 0.368889,-0.213601 0.740954,-0.207584 0.367711,-0.0084 0.809431,0.228681 z m -0.42789,-6.133194 q 0.738438,-0.813502 1.512586,-0.888703 0.76625,-0.08237 1.516567,0.598712 l 2.874903,2.609624 -0.752776,0.829298 -0.792368,-0.301483 -0.02868,0.03159 q 0.06415,0.389566 0.03498,0.723234 -0.022,0.325771 -0.188232,0.635864 -0.158335,0.317262 -0.488123,0.680574 -0.344126,0.379108 -0.758724,0.550188 -0.422497,0.16391 -0.880349,0.06524 -0.457851,-0.09868 -0.91594,-0.514494 -0.679235,-0.61656 -0.574357,-1.41452 0.104879,-0.797961 0.947212,-1.805272 l 0.628711,-0.740233 -0.134267,-0.121878 q -0.387006,-0.351296 -0.694794,-0.313755 -0.315686,0.03037 -0.602458,0.346296 -0.265264,0.292229 -0.45009,0.686286 -0.184825,0.394056 -0.322991,0.816061 L 16.745669,21.80863 q 0.134521,-0.497342 0.426158,-1.024938 0.298805,-0.535493 0.771978,-1.056767 z m 2.445491,2.162212 q -0.493224,0.575103 -0.528104,0.946804 -0.03488,0.371702 0.265246,0.644135 0.276433,0.250925 0.546917,0.22274 0.269756,-0.04325 0.506342,-0.30389 0.336957,-0.37121 0.345228,-0.824689 0.01544,-0.461377 -0.39526,-0.83418 l -0.355413,-0.322618 z m 5.870552,-1.616496 -5.025448,-3.685997 1.415255,-0.915106 2.778608,2.293491 q 0.09954,0.07536 0.228037,0.195513 0.137456,0.114358 0.271746,0.243465 0.13429,0.129107 0.218541,0.23976 l 0.03583,-0.02317 q -0.06634,-0.122237 -0.123176,-0.288721 -0.06263,-0.175442 -0.110514,-0.347718 -0.04788,-0.172276 -0.07576,-0.293974 l -0.939193,-3.49556 1.415255,-0.915105 1.299206,6.095389 z m 4.544106,-8.783649 q 0.770862,-0.250911 1.424465,-0.138347 0.650302,0.102421 1.129328,0.574682 0.485869,0.458817 0.749986,1.270251 l 0.241007,0.740433 -3.560165,1.158814 q 0.224977,0.622258 0.708974,0.868551 0.480697,0.236149 1.160272,0.01495 0.517289,-0.168375 0.910277,-0.408466 0.392988,-0.24009 0.773248,-0.588213 l 0.373065,1.14615 q -0.339687,0.334917 -0.766406,0.574769 -0.413273,0.246694 -1.082706,0.46459 -0.821577,0.267419 -1.559625,0.171124 -0.727905,-0.0996 -1.29774,-0.609605 -0.573138,-0.520152 -0.883476,-1.473586 -0.31694,-0.97372 -0.200359,-1.718371 0.123422,-0.758095 0.606065,-1.274154 0.492785,-0.51936 1.27379,-0.773573 z m 0.393829,1.072087 q -0.456432,0.148566 -0.644691,0.535152 -0.191561,0.376442 -0.05739,0.960953 l 2.089441,-0.680102 q -0.108948,-0.334716 -0.303057,-0.551973 -0.194109,-0.217257 -0.476918,-0.293467 -0.272666,-0.07951 -0.607382,0.02944 z M 39.1297,10.011794 q 0.159451,-0.01325 0.341929,-0.007 0.192225,-0.00527 0.301175,0.01779 l -0.03491,1.512089 q -0.118697,-0.01154 -0.279915,-0.01956 -0.161217,-0.008 -0.384449,0.01054 -0.244491,0.02032 -0.493429,0.115926 -0.238309,0.09473 -0.436777,0.282474 -0.198469,0.187747 -0.303063,0.474728 -0.104595,0.286981 -0.06926,0.712184 l 0.244676,2.944528 -1.60514,0.133379 -0.482285,-5.804015 1.222457,-0.10158 0.315126,0.958533 0.07441,-0.0062 q 0.144466,-0.322405 0.379271,-0.588096 0.234806,-0.265691 0.542225,-0.430381 0.306535,-0.17532 0.667957,-0.205352 z"
       id="text17"
       style="font-weight:bold;font-size:10.6667px;font-family:Sans;-inkscape-font-specification:'Sans Bold';fill:url(#linearGradient17);stroke-width:1.25;stroke-linecap:square;paint-order:stroke fill markers"
       aria-label="smart saver" />
    <circle
       style="display:none;fill:none;fill-opacity:1;stroke:#92079f;stroke-width:0.739426;stroke-opacity:1;paint-order:markers fill stroke"
       id="path3"
       cx="14.641016"
       cy="-54.641018"
       r="24.026592"
       transform="rotate(120)" />
  </g>
  <metadata
     id="metadata1">
    <rdf:RDF>
      <cc:Work
         rdf:about="">
        <dc:title>helping hand sticker</dc:title>
        <dc:contributor>
          <cc:Agent>
            <dc:title>Danish Khatri </dc:title>
          </cc:Agent>
        </dc:contributor>
        <cc:license
           rdf:resource="http://creativecommons.org/publicdomain/zero/1.0/" />
      </cc:Work>
      <cc:License
         rdf:about="http://creativecommons.org/publicdomain/zero/1.0/">
        <cc:permits
           rdf:resource="http://creativecommons.org/ns#Reproduction" />
        <cc:permits
           rdf:resource="http://creativecommons.org/ns#Distribution" />
        <cc:permits
           rdf:resource="http://creativecommons.org/ns#DerivativeWorks" />
      </cc:License>
    </rdf:RDF>
  </metadata>
</svg>
